<svg width="21" height="22" viewBox="0 0 21 22" fill="none" xmlns="http://www.w3.org/2000/svg">
<circle cx="10.5" cy="11" r="10.5" fill="#2889FC"/>
<path d="M3.67731 7.85447C3.67731 7.62883 3.86023 7.44591 4.08587 7.44591H11.3582C12.4864 7.44591 13.401 8.3605 13.401 9.48871V14.3914C13.401 14.6171 13.2181 14.8 12.9925 14.8H5.72011C4.5919 14.8 3.67731 13.8854 3.67731 12.7572V7.85447Z" fill="white"/>
<path d="M13.8094 10.0477C13.8094 9.92365 13.8658 9.80634 13.9626 9.7288L16.6591 7.56882C16.9265 7.35457 17.3231 7.54499 17.3231 7.88769V14.3574C17.3231 14.7001 16.9265 14.8905 16.6591 14.6763L13.9626 12.5163C13.8658 12.4388 13.8094 12.3214 13.8094 12.1974V10.0477Z" fill="white"/>
</svg>
