<svg width="18" height="20" viewBox="0 0 18 20" fill="none" xmlns="http://www.w3.org/2000/svg">
<path d="M16.0817 6.66981C16.7718 6.66981 17.3314 7.22933 17.3314 7.91952V13.7515C17.3314 14.4417 16.7718 15.0012 16.0817 15.0012C15.3915 15.0012 14.8319 14.4417 14.8319 13.7515V7.91952C14.8319 7.22933 15.3915 6.66981 16.0817 6.66981Z" fill="#2889FC"/>
<path d="M1.91832 6.66981C2.60851 6.66981 3.16803 7.22933 3.16803 7.91952V13.7515C3.16803 14.4417 2.60851 15.0012 1.91832 15.0012C1.22813 15.0012 0.668616 14.4417 0.668616 13.7515V7.91952C0.668616 7.22933 1.22809 6.66981 1.91832 6.66981Z" fill="#2889FC"/>
<path d="M4.41777 6.66981H13.5823C13.8123 6.66981 13.9988 6.85633 13.9988 7.08639V13.7515C13.999 14.7414 13.3025 15.5947 12.3326 15.7927V18.7503C12.3326 19.4405 11.773 20 11.0828 20C10.3927 20 9.83314 19.4405 9.83314 18.7503V15.8343H8.16685V18.7503C8.16685 19.4405 7.60733 20 6.91714 20C6.22695 20 5.66743 19.4405 5.66743 18.7503V15.7927C4.69751 15.5947 4.00095 14.7414 4.00115 13.7515V7.08639C4.00119 6.85633 4.1877 6.66981 4.41777 6.66981Z" fill="#2889FC"/>
<path d="M5.97151 1.73097L4.95593 0.716207C4.79046 0.556361 4.78589 0.292673 4.9457 0.127165C5.10554 -0.038304 5.36923 -0.0428733 5.53474 0.116933C5.53822 0.120292 5.54161 0.123689 5.54497 0.127165L6.72802 1.31025C8.17697 0.680824 9.82217 0.680824 11.2711 1.31025L12.4542 0.126345C12.6196 -0.0335005 12.8834 -0.0288922 13.0432 0.136577C13.1991 0.298023 13.1991 0.55394 13.0432 0.715347L12.0285 1.73093C13.2655 2.54949 14.0065 3.9367 13.9988 5.42006C13.9988 5.65013 13.8123 5.83665 13.5822 5.83665H4.4177C4.18763 5.83665 4.00112 5.65013 4.00112 5.42006C3.9935 3.93674 4.73442 2.54953 5.97151 1.73097Z" fill="#2889FC"/>
</svg>
