<svg width="18" height="20" viewBox="0 0 18 20" fill="none" xmlns="http://www.w3.org/2000/svg">
<path d="M12.8489 0C12.8954 0 12.9419 0 12.9911 0C13.1053 1.41044 12.5669 2.46432 11.9127 3.22751C11.2707 3.98542 10.3916 4.7205 8.9697 4.60897C8.87485 3.21872 9.41409 2.24301 10.0675 1.48158C10.6735 0.771967 11.7844 0.140517 12.8489 0Z" fill="#2889FC"/>
<path d="M17.1531 14.6805C17.1531 14.6946 17.1531 14.7069 17.1531 14.7201C16.7535 15.9303 16.1835 16.9675 15.488 17.93C14.853 18.8038 14.0749 19.9798 12.6855 19.9798C11.485 19.9798 10.6875 19.2078 9.45713 19.1868C8.15558 19.1657 7.43983 19.8323 6.24982 20C6.11369 20 5.97757 20 5.84408 20C4.97023 19.8735 4.26501 19.1815 3.75125 18.5579C2.23629 16.7154 1.06561 14.3354 0.847809 11.2897C0.847809 10.9911 0.847809 10.6934 0.847809 10.3948C0.940023 8.21499 1.99917 6.44272 3.40698 5.58381C4.14996 5.12712 5.17135 4.73807 6.30866 4.91196C6.79608 4.98749 7.29404 5.15435 7.73052 5.31946C8.14417 5.47842 8.66145 5.76033 9.1515 5.7454C9.48347 5.73574 9.81369 5.56273 10.1483 5.44065C11.1284 5.08673 12.0892 4.68098 13.3556 4.87156C14.8776 5.10166 15.9578 5.7779 16.6253 6.82124C15.3378 7.64063 14.3199 8.87542 14.4938 10.9841C14.6484 12.8995 15.762 14.0201 17.1531 14.6805Z" fill="#2889FC"/>
</svg>
