<svg width="22" height="22" viewBox="0 0 22 22" fill="none" xmlns="http://www.w3.org/2000/svg">
<path d="M19.6488 17.2854C19.1082 16.7676 18.582 16.235 18.0709 15.6881C17.6416 15.2518 17.383 14.9344 17.383 14.9344L14.1511 13.3914C15.445 11.924 16.1591 10.0351 16.1595 8.0789C16.1595 3.62512 12.5352 0 8.07975 0C3.62434 0 0 3.62512 0 8.0789C0 12.5327 3.62434 16.1578 8.07975 16.1578C10.1147 16.1578 11.9696 15.3961 13.3928 14.1508L14.936 17.3823C14.936 17.3823 15.2534 17.6409 15.6897 18.0702C16.1364 18.4891 16.7239 19.0558 17.2872 19.6479L18.8547 21.2544L19.5518 22L22 19.5521L21.2544 18.855C20.8169 18.4257 20.2328 17.8555 19.6488 17.2854ZM8.07975 13.8495C4.89748 13.8495 2.3085 11.2608 2.3085 8.0789C2.3085 4.89697 4.89748 2.30826 8.07975 2.30826C11.262 2.30826 13.851 4.89697 13.851 8.0789C13.851 11.2608 11.262 13.8495 8.07975 13.8495Z" fill="white"/>
</svg>
