<svg width="27" height="23" viewBox="0 0 27 23" fill="none" xmlns="http://www.w3.org/2000/svg">
<path d="M23.5535 3.17272C23.2826 2.25217 22.7203 1.44486 21.9516 0.872574C21.1828 0.300286 20.2491 -0.00594057 19.2915 8.73151e-05C18.1816 0.00108008 17.1123 0.418098 16.2936 1.16917C15.475 1.92023 14.9663 2.95102 14.8675 4.0589H12.1338C12.0337 2.94986 11.5233 1.91845 10.7029 1.16739C9.88257 0.416332 8.81155 -4.9274e-05 7.7004 8.73151e-05C6.74403 -0.00461731 5.81203 0.302255 5.0448 0.874477C4.27757 1.4467 3.71665 2.25328 3.44655 3.17272L0.0567001 14.4941C0.0195654 14.6202 0.000474983 14.7509 0 14.8824V16.2353C0.00214428 18.029 0.714177 19.7486 1.97987 21.0168C3.24557 22.285 4.96156 22.9982 6.75135 23C8.06312 22.9978 9.34585 22.6127 10.4429 21.892C11.5399 21.1712 12.4038 20.1459 12.9289 18.9412H14.0711C14.5962 20.1459 15.4601 21.1712 16.5571 21.892C17.6542 22.6127 18.9369 22.9978 20.2487 23C22.0387 22.9982 23.7549 22.2848 25.0206 21.0163C26.2863 19.7478 26.9982 18.0279 27 16.234V14.8824C27 14.7498 26.9798 14.6199 26.9433 14.4941L23.5535 3.17272V3.17272ZM6.75135 20.2941C5.67754 20.2927 4.64809 19.8647 3.88867 19.1038C3.12924 18.343 2.70179 17.3115 2.7 16.2353C2.7 16.1325 2.72295 16.0364 2.7297 15.935C2.80356 14.9159 3.25883 13.9625 4.00432 13.2655C4.74981 12.5686 5.7305 12.1796 6.75 12.1765C7.82413 12.1765 8.85426 12.6041 9.61378 13.3653C10.3733 14.1265 10.8 15.1589 10.8 16.2353V16.2475C10.7954 17.3212 10.367 18.3494 9.60841 19.1076C8.84983 19.8658 7.82271 20.2924 6.75135 20.2941V20.2941ZM20.2487 20.2941C19.1773 20.2924 18.1502 19.8658 17.3916 19.1076C16.633 18.3494 16.2046 17.3212 16.2 16.2475V16.2353C16.1999 15.7023 16.3046 15.1745 16.508 14.682C16.7115 14.1896 17.0097 13.7421 17.3857 13.3651C18.1451 12.6038 19.1752 12.176 20.2493 12.1758C21.3235 12.1757 22.3537 12.6031 23.1133 13.3642C23.873 14.1252 24.2998 15.1575 24.3 16.234C24.2986 17.3103 23.8713 18.3422 23.1118 19.1034C22.3523 19.8645 21.3227 20.2927 20.2487 20.2941V20.2941Z" fill="white"/>
</svg>
