<svg width="27" height="28" viewBox="0 0 27 28" fill="none" xmlns="http://www.w3.org/2000/svg">
<path d="M17.684 1.67362C17.1886 1.21945 16.537 0.974075 15.8651 0.988651C15.1932 1.00323 14.5528 1.27664 14.0776 1.75186L1.7532 14.0763C1.511 14.3184 1.31888 14.6059 1.1878 14.9224C1.05672 15.2388 0.989258 15.578 0.989258 15.9205C0.989258 16.263 1.05672 16.6021 1.1878 16.9185C1.31888 17.235 1.511 17.5225 1.7532 17.7646L3.47817 19.4896C4.12457 20.136 5.05412 19.9814 5.60178 19.6144C5.99589 19.3525 6.4685 19.235 6.93938 19.282C7.41026 19.3289 7.85037 19.5374 8.18498 19.872C8.5196 20.2066 8.72808 20.6467 8.77504 21.1176C8.822 21.5885 8.70453 22.0611 8.44258 22.4552C8.07933 23.0048 7.92286 23.9343 8.56926 24.5807L10.2551 26.2665C10.5019 26.5136 10.7959 26.7086 11.1195 26.84C11.4431 26.9713 11.7898 27.0363 12.1391 27.0311C12.4883 27.0258 12.8329 26.9505 13.1525 26.8096C13.472 26.6687 13.76 26.465 13.9994 26.2107L26.2902 13.1486C26.5271 12.8971 26.7117 12.6011 26.8332 12.2777C26.9548 11.9543 27.0108 11.61 26.9982 11.2648C26.9855 10.9195 26.9044 10.5803 26.7595 10.2666C26.6147 9.95301 26.4089 9.67129 26.1543 9.43785L24.5038 7.92524C24.3222 7.7628 24.1053 7.6449 23.8702 7.58088C23.6352 7.51686 23.3884 7.50848 23.1495 7.5564C22.7267 7.63091 22.3262 7.85631 22.0356 8.17299C21.8537 8.37139 21.6345 8.53201 21.3906 8.6457C21.1466 8.75939 20.8826 8.82392 20.6137 8.83559C20.3448 8.84727 20.0763 8.80587 19.8234 8.71375C19.5705 8.62164 19.3382 8.48061 19.1398 8.29873C18.7391 7.93141 18.5008 7.41996 18.4772 6.8769C18.4655 6.608 18.5069 6.33944 18.5991 6.08654C18.6912 5.83365 18.8322 5.60137 19.0141 5.40298C19.3065 5.08816 19.4947 4.66903 19.5338 4.24244C19.561 4.00038 19.5314 3.7553 19.4473 3.52668C19.3633 3.29806 19.227 3.09219 19.0495 2.92543L17.684 1.67362V1.67362Z" fill="white"/>
</svg>
