<svg width="25" height="24" viewBox="0 0 25 24" fill="none" xmlns="http://www.w3.org/2000/svg">
<path d="M0 3.125C0 2.2962 0.32924 1.50134 0.915291 0.915291C1.50134 0.32924 2.2962 0 3.125 0L21.875 0C22.7038 0 23.4987 0.32924 24.0847 0.915291C24.6708 1.50134 25 2.2962 25 3.125V15.625C25 16.4538 24.6708 17.2487 24.0847 17.8347C23.4987 18.4208 22.7038 18.75 21.875 18.75H6.89688C6.48251 18.7501 6.08514 18.9148 5.79219 19.2078L1.33437 23.6656C1.2252 23.7751 1.08602 23.8497 0.934431 23.88C0.782845 23.9103 0.625675 23.8949 0.482811 23.8359C0.339948 23.7768 0.217816 23.6767 0.131871 23.5482C0.0459259 23.4198 3.28357e-05 23.2686 0 23.1141L0 3.125ZM7.8125 9.375C7.8125 8.9606 7.64788 8.56317 7.35485 8.27015C7.06183 7.97712 6.6644 7.8125 6.25 7.8125C5.8356 7.8125 5.43817 7.97712 5.14515 8.27015C4.85212 8.56317 4.6875 8.9606 4.6875 9.375C4.6875 9.7894 4.85212 10.1868 5.14515 10.4799C5.43817 10.7729 5.8356 10.9375 6.25 10.9375C6.6644 10.9375 7.06183 10.7729 7.35485 10.4799C7.64788 10.1868 7.8125 9.7894 7.8125 9.375ZM14.0625 9.375C14.0625 8.9606 13.8979 8.56317 13.6049 8.27015C13.3118 7.97712 12.9144 7.8125 12.5 7.8125C12.0856 7.8125 11.6882 7.97712 11.3951 8.27015C11.1021 8.56317 10.9375 8.9606 10.9375 9.375C10.9375 9.7894 11.1021 10.1868 11.3951 10.4799C11.6882 10.7729 12.0856 10.9375 12.5 10.9375C12.9144 10.9375 13.3118 10.7729 13.6049 10.4799C13.8979 10.1868 14.0625 9.7894 14.0625 9.375ZM18.75 10.9375C19.1644 10.9375 19.5618 10.7729 19.8549 10.4799C20.1479 10.1868 20.3125 9.7894 20.3125 9.375C20.3125 8.9606 20.1479 8.56317 19.8549 8.27015C19.5618 7.97712 19.1644 7.8125 18.75 7.8125C18.3356 7.8125 17.9382 7.97712 17.6451 8.27015C17.3521 8.56317 17.1875 8.9606 17.1875 9.375C17.1875 9.7894 17.3521 10.1868 17.6451 10.4799C17.9382 10.7729 18.3356 10.9375 18.75 10.9375V10.9375Z" fill="white"/>
</svg>
