<svg width="172" height="162" viewBox="0 0 172 162" fill="none" xmlns="http://www.w3.org/2000/svg">
<g opacity="0.8">
<mask id="mask0" mask-type="alpha" maskUnits="userSpaceOnUse" x="0" y="0" width="147" height="160">
<path d="M17.9488 116.1C45.452 144.842 78.7893 132.3 78.7893 132.3C78.7893 139.54 77.0066 147.742 75.0707 154.795C74.2231 157.883 77.0756 160.735 80.095 159.668C112.921 148.072 140.854 125.505 146.297 81C151.802 36 114.382 0 72.9553 0C40.296 0 10.4479 18.9 2.11357 52.2C-3.65225 75.2375 2.62375 100.085 17.9488 116.1Z" fill="#B52B8F" fill-opacity="0.6"/>
</mask>
<g mask="url(#mask0)">
<rect x="-0.798096" y="44.6897" width="148.434" height="1.59606" fill="#B52B8F" fill-opacity="0.6"/>
<rect x="-0.798096" y="143.645" width="148.434" height="1.59606" fill="#B52B8F" fill-opacity="0.6"/>
<rect x="-0.798096" y="19.1527" width="148.434" height="1.59606" fill="#B52B8F" fill-opacity="0.6"/>
<rect x="-0.798096" y="118.108" width="148.434" height="1.59606" fill="#B52B8F" fill-opacity="0.6"/>
<rect x="-0.798096" y="70.2266" width="148.434" height="1.59606" fill="#B52B8F" fill-opacity="0.6"/>
<rect x="-0.798096" y="6.38423" width="148.434" height="1.59606" fill="#B52B8F" fill-opacity="0.6"/>
<rect x="-0.798096" y="105.34" width="148.434" height="1.59606" fill="#B52B8F" fill-opacity="0.6"/>
<rect x="-0.798096" y="57.4581" width="148.434" height="1.59606" fill="#B52B8F" fill-opacity="0.6"/>
<rect x="-0.798096" y="156.414" width="148.434" height="1.59606" fill="#B52B8F" fill-opacity="0.6"/>
<rect x="-0.798096" y="31.9212" width="148.434" height="1.59606" fill="#B52B8F" fill-opacity="0.6"/>
<rect x="-0.798096" y="130.877" width="148.434" height="1.59606" fill="#B52B8F" fill-opacity="0.6"/>
<rect x="-0.798096" y="82.9951" width="148.434" height="1.59606" fill="#B52B8F" fill-opacity="0.6"/>
<rect x="-0.798096" width="148.434" height="1.59606" fill="#B52B8F" fill-opacity="0.6"/>
<rect x="-0.798096" y="98.9557" width="148.434" height="1.59606" fill="#B52B8F" fill-opacity="0.6"/>
<rect x="-0.798096" y="51.0739" width="148.434" height="1.59606" fill="#B52B8F" fill-opacity="0.6"/>
<rect x="-0.798096" y="150.03" width="148.434" height="1.59606" fill="#B52B8F" fill-opacity="0.6"/>
<rect x="-0.798096" y="25.537" width="148.434" height="1.59606" fill="#B52B8F" fill-opacity="0.6"/>
<rect x="-0.798096" y="124.493" width="148.434" height="1.59606" fill="#B52B8F" fill-opacity="0.6"/>
<rect x="-0.798096" y="76.6109" width="148.434" height="1.59606" fill="#B52B8F" fill-opacity="0.6"/>
<rect x="-0.798096" y="12.7685" width="148.434" height="1.59606" fill="#B52B8F" fill-opacity="0.6"/>
<rect x="-0.798096" y="111.724" width="148.434" height="1.59606" fill="#B52B8F" fill-opacity="0.6"/>
<rect x="-0.798096" y="63.8424" width="148.434" height="1.59606" fill="#B52B8F" fill-opacity="0.6"/>
<rect x="-0.798096" y="38.3054" width="148.434" height="1.59606" fill="#B52B8F" fill-opacity="0.6"/>
<rect x="-0.798096" y="137.261" width="148.434" height="1.59606" fill="#B52B8F" fill-opacity="0.6"/>
<rect x="-0.798096" y="89.3793" width="148.434" height="1.59606" fill="#B52B8F" fill-opacity="0.6"/>
<rect x="-0.798096" y="95.7635" width="148.434" height="1.59606" fill="#B52B8F" fill-opacity="0.6"/>
<rect x="-0.798096" y="47.8818" width="148.434" height="1.59606" fill="#B52B8F" fill-opacity="0.6"/>
<rect x="-0.798096" y="146.837" width="148.434" height="1.59606" fill="#B52B8F" fill-opacity="0.6"/>
<rect x="-0.798096" y="22.3448" width="148.434" height="1.59606" fill="#B52B8F" fill-opacity="0.6"/>
<rect x="-0.798096" y="121.3" width="148.434" height="1.59606" fill="#B52B8F" fill-opacity="0.6"/>
<rect x="-0.798096" y="73.4187" width="148.434" height="1.59606" fill="#B52B8F" fill-opacity="0.6"/>
<rect x="-0.798096" y="9.57636" width="148.434" height="1.59606" fill="#B52B8F" fill-opacity="0.6"/>
<rect x="-0.798096" y="108.532" width="148.434" height="1.59606" fill="#B52B8F" fill-opacity="0.6"/>
<rect x="-0.798096" y="60.6503" width="148.434" height="1.59606" fill="#B52B8F" fill-opacity="0.6"/>
<rect x="-0.798096" y="159.606" width="148.434" height="1.59606" fill="#B52B8F" fill-opacity="0.6"/>
<rect x="-0.798096" y="35.1133" width="148.434" height="1.59606" fill="#B52B8F" fill-opacity="0.6"/>
<rect x="-0.798096" y="134.069" width="148.434" height="1.59606" fill="#B52B8F" fill-opacity="0.6"/>
<rect x="-0.798096" y="86.1872" width="148.434" height="1.59606" fill="#B52B8F" fill-opacity="0.6"/>
<rect x="-0.798096" y="3.19213" width="148.434" height="1.59606" fill="#B52B8F" fill-opacity="0.6"/>
<rect x="-0.798096" y="102.148" width="148.434" height="1.59606" fill="#B52B8F" fill-opacity="0.6"/>
<rect x="-0.798096" y="54.266" width="148.434" height="1.59606" fill="#B52B8F" fill-opacity="0.6"/>
<rect x="-0.798096" y="153.222" width="148.434" height="1.59606" fill="#B52B8F" fill-opacity="0.6"/>
<rect x="-0.798096" y="28.7291" width="148.434" height="1.59606" fill="#B52B8F" fill-opacity="0.6"/>
<rect x="-0.798096" y="127.685" width="148.434" height="1.59606" fill="#B52B8F" fill-opacity="0.6"/>
<rect x="-0.798096" y="79.8029" width="148.434" height="1.59606" fill="#B52B8F" fill-opacity="0.6"/>
<rect x="-0.798096" y="15.9606" width="148.434" height="1.59606" fill="#B52B8F" fill-opacity="0.6"/>
<rect x="-0.798096" y="114.916" width="148.434" height="1.59606" fill="#B52B8F" fill-opacity="0.6"/>
<rect x="-0.798096" y="67.0345" width="148.434" height="1.59606" fill="#B52B8F" fill-opacity="0.6"/>
<rect x="-0.798096" y="41.4975" width="148.434" height="1.59606" fill="#B52B8F" fill-opacity="0.6"/>
<rect x="-0.798096" y="140.453" width="148.434" height="1.59606" fill="#B52B8F" fill-opacity="0.6"/>
<rect x="-0.798096" y="92.5714" width="148.434" height="1.59606" fill="#B52B8F" fill-opacity="0.6"/>
</g>
</g>
<path d="M42.5811 116.1C70.022 144.842 103.284 132.3 103.284 132.3C103.284 139.539 101.505 147.741 99.5738 154.794C98.728 157.882 101.582 160.732 104.601 159.663C137.346 148.066 165.208 125.498 170.638 81C176.13 36 138.795 0 97.4629 0C64.8776 0 35.0972 18.9 26.7818 52.2C21.0291 75.2375 27.2908 100.085 42.5811 116.1Z" fill="#B52B8F" fill-opacity="0.6"/>
</svg>
