<svg width="123" height="45" viewBox="0 0 123 45" fill="none" xmlns="http://www.w3.org/2000/svg">
<path d="M72.8269 32.0834C80.198 39.9383 89.1326 36.5107 89.1326 36.5107C89.1326 39.2163 88.2391 42.4137 87.569 44.6274C97.1739 41.6759 105.662 35.5269 107.225 22.491C108.7 10.193 98.6716 0.354645 87.569 0.354645C78.8161 0.354645 70.8166 5.5198 68.5829 14.6203C67.0376 20.9162 68.7196 27.7067 72.8269 32.0834Z" fill="#2889FC"/>
<path d="M86.968 32.0834C94.4707 39.9383 103.565 36.5107 103.565 36.5107C103.565 39.2163 102.655 42.4137 101.973 44.6274C111.75 41.6759 120.389 35.5269 121.981 22.491C123.482 10.193 113.274 0.354645 101.973 0.354645C93.0641 0.354645 84.9218 5.5198 82.6482 14.6203C81.0753 20.9162 82.7874 27.7067 86.968 32.0834Z" fill="#B52B8F"/>
<path d="M7.88147 23.5994L0 0H4.72888L10.3135 17.6094L15.808 0H20.5819L12.7455 23.5994V36.4799H7.88147V23.5994Z" fill="#2889FC"/>
<path d="M25.4996 36.8402C22.7373 36.8402 20.7707 36.0296 19.5997 34.4082C18.4588 32.7569 17.8883 30.3699 17.8883 27.2474V19.6811C17.8883 16.5586 18.4588 14.1866 19.5997 12.5653C20.7707 10.914 22.7373 10.0883 25.4996 10.0883C28.2318 10.0883 30.1684 10.914 31.3094 12.5653C32.4803 14.1866 33.0658 16.5586 33.0658 19.6811V27.2474C33.0658 30.3699 32.4803 32.7569 31.3094 34.4082C30.1684 36.0296 28.2318 36.8402 25.4996 36.8402ZM25.4996 33.2823C26.3703 33.2823 27.0008 33.0271 27.3911 32.5167C27.7815 32.0063 28.0217 31.3757 28.1117 30.6251C28.2018 29.8745 28.2468 28.8537 28.2468 27.5626V19.4109C28.2468 18.1199 28.2018 17.099 28.1117 16.3484C28.0217 15.5678 27.7815 14.9222 27.3911 14.4118C27.0008 13.9014 26.3703 13.6462 25.4996 13.6462C24.6289 13.6462 23.9833 13.9014 23.563 14.4118C23.1727 14.9222 22.9325 15.5678 22.8424 16.3484C22.7523 17.099 22.7073 18.1199 22.7073 19.4109V27.5626C22.7073 28.8537 22.7523 29.8745 22.8424 30.6251C22.9325 31.3757 23.1727 32.0063 23.563 32.5167C23.9833 33.0271 24.6289 33.2823 25.4996 33.2823Z" fill="#2889FC"/>
<path d="M39.8586 36.8402C38.4475 36.8402 37.4417 36.3298 36.8412 35.309C36.2407 34.2881 35.9404 33.0271 35.9404 31.5259V10.4486H40.7594V30.0847C40.7594 31.0755 40.9095 31.8261 41.2097 32.3365C41.51 32.8169 42.0504 33.0571 42.8311 33.0571C43.7919 33.0571 44.9178 32.5167 46.2088 31.4358V10.4486H51.0278V36.4799H46.2088V33.9128C44.1371 35.8644 42.0204 36.8402 39.8586 36.8402Z" fill="#2889FC"/>
<path d="M60.1168 3.78311H53.4964V0H71.6463V3.78311H65.206V36.4799H60.1168V3.78311Z" fill="#2889FC"/>
</svg>
