<?xml version="1.0" encoding="iso-8859-1"?>
<!-- Generator: Adobe Illustrator 19.0.0, SVG Export Plug-In . SVG Version: 6.00 Build 0)  -->
<svg version="1.1" id="Capa_1" xmlns="http://www.w3.org/2000/svg" xmlns:xlink="http://www.w3.org/1999/xlink" x="0px" y="0px"
	 viewBox="0 0 512 512" style="enable-background:new 0 0 512 512;" xml:space="preserve" fill="#d9dfea">
<g>
	<g>
		<path d="M297.52,353.888h-82.909c-4.142,0-7.498,3.357-7.498,7.498c0,4.141,3.357,7.498,7.498,7.498h82.909
			c4.142,0,7.498-3.357,7.498-7.498C305.018,357.245,301.662,353.888,297.52,353.888z"/>
	</g>
</g>
<g>
	<g>
		<path d="M347.699,235.584c-3.439-2.305-8.098-1.387-10.403,2.054c-7.651,11.413-18.603,11.537-26.337,0
			c-2.305-3.44-6.964-4.36-10.403-2.054c-3.439,2.306-4.359,6.963-2.053,10.404c6.499,9.697,15.84,15.258,25.625,15.258
			c9.784-0.001,19.124-5.562,25.624-15.258C352.059,242.547,351.14,237.889,347.699,235.584z"/>
	</g>
</g>
<g>
	<g>
		<path d="M209.428,235.733c-3.439-2.306-8.099-1.387-10.404,2.053c-7.652,11.413-18.602,11.538-26.338,0
			c-2.307-3.44-6.964-4.358-10.404-2.053c-3.439,2.305-4.358,6.963-2.052,10.404c13.588,20.268,37.574,20.402,51.25,0
			C213.787,242.697,212.868,238.038,209.428,235.733z"/>
	</g>
</g>
<g>
	<g>
		<path d="M377.779,196.824c-1.091-3.996-5.219-6.349-9.208-5.26c-17.108,4.669-34.45,2.736-48.831-5.442
			c-3.603-2.048-8.179-0.789-10.226,2.811c-2.048,3.6-0.789,8.177,2.811,10.225c17.498,9.951,38.824,12.705,60.193,6.873
			C376.516,204.941,378.87,200.819,377.779,196.824z"/>
	</g>
</g>
<g>
	<g>
		<path d="M202.617,188.934c-2.047-3.601-6.625-4.859-10.226-2.811c-14.38,8.178-31.722,10.111-48.831,5.442
			c-3.992-1.09-8.117,1.264-9.208,5.26c-1.091,3.995,1.265,8.118,5.26,9.208c7.419,2.024,14.89,3.026,22.237,3.026
			c13.414,0,26.421-3.34,37.956-9.9C203.406,197.111,204.664,192.534,202.617,188.934z"/>
	</g>
</g>
<g>
	<g>
		<path d="M322.293,8.861C209.106-21.468,126.879,35.721,124.486,36.585c-3.553,2.128-4.708,6.732-2.58,10.286
			c2.127,3.554,6.733,4.708,10.286,2.581l0.746-0.448c0.892-0.535,1.782-1.07,2.687-1.593
			C191.346,15.24,256.26,6.693,318.413,23.347c182.409,48.876,238.908,278.822,103.719,407.226c-3.002,2.852-3.125,7.598-0.272,10.6
			c2.854,3.007,7.601,3.12,10.601,0.273C576.201,304.919,515.929,60.745,322.293,8.861z"/>
	</g>
</g>
<g>
	<g>
		<path d="M406.311,453.971c-2.398-3.374-7.077-4.168-10.456-1.768c-116.541,82.831-277.58,46.931-348.402-75.735
			c-60.02-103.959-33.736-234.3,56.909-307.59c3.22-2.603,3.72-7.325,1.116-10.544c-2.603-3.219-7.321-3.72-10.546-1.117
			C-1.708,135.356-29.071,273.919,34.465,383.966c75.342,130.496,246.481,168.304,370.077,80.461
			C407.917,462.028,408.709,457.347,406.311,453.971z"/>
	</g>
</g>
<g>
</g>
<g>
</g>
<g>
</g>
<g>
</g>
<g>
</g>
<g>
</g>
<g>
</g>
<g>
</g>
<g>
</g>
<g>
</g>
<g>
</g>
<g>
</g>
<g>
</g>
<g>
</g>
<g>
</g>
</svg>
