<svg width="18" height="18" viewBox="0 0 18 18" fill="none" xmlns="http://www.w3.org/2000/svg">
<path d="M9.67488 2.20493L9.6752 2.20519L9.68035 2.19776C9.90375 1.87528 9.87195 1.42955 9.58469 1.1423C9.26161 0.819233 8.73779 0.819233 8.41471 1.1423L8.4144 1.14261L1.14172 8.41503L1.14356 8.41688L1.09973 8.46073L1.09432 8.46615L1.0898 8.47232L1.03102 8.55251L1.02646 8.55873L1.02291 8.56559L0.965603 8.67609L0.961132 8.68472L0.958403 8.69404L0.914879 8.84275L0.912399 8.85122L0.911442 8.86L0.900589 8.95955L0.899684 8.95945L0.900033 8.97298L0.902541 9.06991L0.902735 9.07738L0.904037 9.08475L0.9251 9.2038L0.926603 9.2123L0.929541 9.22042L0.973375 9.34152L0.976348 9.34973L0.9807 9.35731L1.04193 9.46387L1.04117 9.46432L1.04929 9.47491L1.09108 9.5294L1.0904 9.52993L1.0997 9.53924L8.41469 16.8577L8.41441 16.858L8.42131 16.8637L8.52205 16.9479L8.52179 16.9482L8.52922 16.9533C8.8517 17.1767 9.29743 17.1449 9.58469 16.8577L9.58498 16.858L9.59072 16.8511L9.67488 16.7504L9.6752 16.7506L9.68035 16.7432C9.90375 16.4207 9.87195 15.975 9.58469 15.6878L3.72383 9.82727H16.2727V9.82767L16.2816 9.82687L16.4124 9.81516L16.4124 9.81556L16.4213 9.81395C16.8073 9.74389 17.1 9.40623 17.1 9H17.1004L17.0996 8.99107L17.0879 8.86034L17.0883 8.86031L17.0867 8.85141C17.0166 8.46543 16.6789 8.17273 16.2727 8.17273H3.72383L9.58469 2.31225L9.58497 2.31253L9.59072 2.30565L9.67488 2.20493Z" fill="#909DB1" stroke="#C7CDD8" stroke-width="0.2"/>
</svg>
