<svg width="22" height="22" viewBox="0 0 22 22" fill="none" xmlns="http://www.w3.org/2000/svg">
<path d="M20.3077 8.25V5.66923C20.3077 4.87479 19.6637 4.23077 18.8692 4.23077H16.359V4.65385C16.359 5.12116 15.9801 5.5 15.5128 5.5C15.0455 5.5 14.6667 5.12116 14.6667 4.65385V4.23077H7.33333V4.65385C7.33333 5.12116 6.9545 5.5 6.48718 5.5C6.01986 5.5 5.64103 5.12116 5.64103 4.65385V4.23077H3.13077C2.33633 4.23077 1.69231 4.87479 1.69231 5.66923V8.25H20.3077ZM20.3077 9.94231H1.69231V18.8692C1.69231 19.6637 2.33633 20.3077 3.13077 20.3077H18.8692C19.6637 20.3077 20.3077 19.6637 20.3077 18.8692V9.94231ZM7.33333 2.53846H14.6667V0.846153C14.6667 0.378835 15.0455 0 15.5128 0C15.9801 0 16.359 0.378835 16.359 0.846153V2.53846H18.8692C20.5983 2.53846 22 3.94015 22 5.66923V18.8692C22 20.5983 20.5983 22 18.8692 22H3.13077C1.40169 22 0 20.5983 0 18.8692V5.66923C0 3.94015 1.40169 2.53846 3.13077 2.53846H5.64103V0.846153C5.64103 0.378835 6.01986 0 6.48718 0C6.9545 0 7.33333 0.378835 7.33333 0.846153V2.53846Z" fill="#C7CDD8"/>
</svg>
