<svg width="16" height="16" viewBox="0 0 16 16" fill="none" xmlns="http://www.w3.org/2000/svg">
<path d="M14.7692 6V4.12307C14.7692 3.5453 14.3009 3.07692 13.7231 3.07692H11.8974V3.38462C11.8974 3.72448 11.6219 4 11.2821 4C10.9422 4 10.6667 3.72448 10.6667 3.38462V3.07692H5.33333V3.38462C5.33333 3.72448 5.05782 4 4.71795 4C4.37808 4 4.10256 3.72448 4.10256 3.38462V3.07692H2.27692C1.69915 3.07692 1.23077 3.5453 1.23077 4.12307V6H14.7692ZM14.7692 7.23077H1.23077V13.7231C1.23077 14.3009 1.69915 14.7692 2.27692 14.7692H13.7231C14.3009 14.7692 14.7692 14.3009 14.7692 13.7231V7.23077ZM5.33333 1.84615H10.6667V0.615384C10.6667 0.275517 10.9422 0 11.2821 0C11.6219 0 11.8974 0.275517 11.8974 0.615384V1.84615H13.7231C14.9806 1.84615 16 2.86556 16 4.12307V13.7231C16 14.9806 14.9806 16 13.7231 16H2.27692C1.01941 16 0 14.9806 0 13.7231V4.12307C0 2.86556 1.01941 1.84615 2.27692 1.84615H4.10256V0.615384C4.10256 0.275517 4.37808 0 4.71795 0C5.05782 0 5.33333 0.275517 5.33333 0.615384V1.84615Z" fill="#909DB1"/>
</svg>
