<svg width="110" height="73" viewBox="0 0 110 73" fill="none" xmlns="http://www.w3.org/2000/svg">
<g opacity="0.1">
<circle cx="108.708" cy="1.29231" r="1.29231" transform="rotate(90 108.708 1.29231)" fill="#2889FC"/>
<circle cx="103.538" cy="1.29231" r="1.29231" transform="rotate(90 103.538 1.29231)" fill="#2889FC"/>
<circle cx="108.708" cy="21.9693" r="1.29231" transform="rotate(90 108.708 21.9693)" fill="#2889FC"/>
<circle cx="103.538" cy="21.9693" r="1.29231" transform="rotate(90 103.538 21.9693)" fill="#2889FC"/>
<circle cx="108.708" cy="11.6307" r="1.29231" transform="rotate(90 108.708 11.6307)" fill="#2889FC"/>
<circle cx="103.538" cy="11.6307" r="1.29231" transform="rotate(90 103.538 11.6307)" fill="#2889FC"/>
<circle cx="108.708" cy="32.3077" r="1.29231" transform="rotate(90 108.708 32.3077)" fill="#2889FC"/>
<circle cx="103.538" cy="32.3077" r="1.29231" transform="rotate(90 103.538 32.3077)" fill="#2889FC"/>
<circle cx="108.708" cy="6.4615" r="1.29231" transform="rotate(90 108.708 6.4615)" fill="#2889FC"/>
<circle cx="103.538" cy="6.4615" r="1.29231" transform="rotate(90 103.538 6.4615)" fill="#2889FC"/>
<circle cx="108.708" cy="27.1385" r="1.29231" transform="rotate(90 108.708 27.1385)" fill="#2889FC"/>
<circle cx="103.538" cy="27.1385" r="1.29231" transform="rotate(90 103.538 27.1385)" fill="#2889FC"/>
<circle cx="108.708" cy="16.8001" r="1.29231" transform="rotate(90 108.708 16.8001)" fill="#2889FC"/>
<circle cx="103.538" cy="16.8001" r="1.29231" transform="rotate(90 103.538 16.8001)" fill="#2889FC"/>
<circle cx="108.708" cy="37.4769" r="1.29231" transform="rotate(90 108.708 37.4769)" fill="#2889FC"/>
<circle cx="103.538" cy="37.4769" r="1.29231" transform="rotate(90 103.538 37.4769)" fill="#2889FC"/>
<circle cx="26" cy="1.29231" r="1.29231" transform="rotate(90 26 1.29231)" fill="#2889FC"/>
<circle cx="20.8307" cy="1.29231" r="1.29231" transform="rotate(90 20.8307 1.29231)" fill="#2889FC"/>
<circle cx="26" cy="21.9693" r="1.29231" transform="rotate(90 26 21.9693)" fill="#2889FC"/>
<circle cx="20.8308" cy="21.9693" r="1.29231" transform="rotate(90 20.8308 21.9693)" fill="#2889FC"/>
<circle cx="26" cy="11.6307" r="1.29231" transform="rotate(90 26 11.6307)" fill="#2889FC"/>
<circle cx="20.8307" cy="11.6307" r="1.29231" transform="rotate(90 20.8307 11.6307)" fill="#2889FC"/>
<circle cx="26" cy="32.3077" r="1.29231" transform="rotate(90 26 32.3077)" fill="#2889FC"/>
<circle cx="20.8308" cy="32.3077" r="1.29231" transform="rotate(90 20.8308 32.3077)" fill="#2889FC"/>
<circle cx="26" cy="6.4615" r="1.29231" transform="rotate(90 26 6.4615)" fill="#2889FC"/>
<circle cx="20.8307" cy="6.4615" r="1.29231" transform="rotate(90 20.8307 6.4615)" fill="#2889FC"/>
<circle cx="26" cy="27.1385" r="1.29231" transform="rotate(90 26 27.1385)" fill="#2889FC"/>
<circle cx="20.8308" cy="27.1385" r="1.29231" transform="rotate(90 20.8308 27.1385)" fill="#2889FC"/>
<circle cx="26" cy="16.8001" r="1.29231" transform="rotate(90 26 16.8001)" fill="#2889FC"/>
<circle cx="20.8308" cy="16.8001" r="1.29231" transform="rotate(90 20.8308 16.8001)" fill="#2889FC"/>
<circle cx="26" cy="37.4769" r="1.29231" transform="rotate(90 26 37.4769)" fill="#2889FC"/>
<circle cx="20.8308" cy="37.4769" r="1.29231" transform="rotate(90 20.8308 37.4769)" fill="#2889FC"/>
<circle cx="67.3539" cy="1.29231" r="1.29231" transform="rotate(90 67.3539 1.29231)" fill="#2889FC"/>
<circle cx="62.1846" cy="1.29231" r="1.29231" transform="rotate(90 62.1846 1.29231)" fill="#2889FC"/>
<circle cx="67.3539" cy="21.9693" r="1.29231" transform="rotate(90 67.3539 21.9693)" fill="#2889FC"/>
<circle cx="62.1846" cy="21.9693" r="1.29231" transform="rotate(90 62.1846 21.9693)" fill="#2889FC"/>
<circle cx="67.3539" cy="11.6307" r="1.29231" transform="rotate(90 67.3539 11.6307)" fill="#2889FC"/>
<circle cx="62.1846" cy="11.6307" r="1.29231" transform="rotate(90 62.1846 11.6307)" fill="#2889FC"/>
<circle cx="67.3539" cy="32.3077" r="1.29231" transform="rotate(90 67.3539 32.3077)" fill="#2889FC"/>
<circle cx="62.1846" cy="32.3077" r="1.29231" transform="rotate(90 62.1846 32.3077)" fill="#2889FC"/>
<circle cx="67.3539" cy="6.4615" r="1.29231" transform="rotate(90 67.3539 6.4615)" fill="#2889FC"/>
<circle cx="62.1846" cy="6.4615" r="1.29231" transform="rotate(90 62.1846 6.4615)" fill="#2889FC"/>
<circle cx="67.3539" cy="27.1385" r="1.29231" transform="rotate(90 67.3539 27.1385)" fill="#2889FC"/>
<circle cx="62.1846" cy="27.1385" r="1.29231" transform="rotate(90 62.1846 27.1385)" fill="#2889FC"/>
<circle cx="67.3539" cy="16.8001" r="1.29231" transform="rotate(90 67.3539 16.8001)" fill="#2889FC"/>
<circle cx="62.1846" cy="16.8001" r="1.29231" transform="rotate(90 62.1846 16.8001)" fill="#2889FC"/>
<circle cx="67.3539" cy="37.4769" r="1.29231" transform="rotate(90 67.3539 37.4769)" fill="#2889FC"/>
<circle cx="62.1846" cy="37.4769" r="1.29231" transform="rotate(90 62.1846 37.4769)" fill="#2889FC"/>
<circle cx="88.0308" cy="1.29231" r="1.29231" transform="rotate(90 88.0308 1.29231)" fill="#2889FC"/>
<circle cx="82.8616" cy="1.29231" r="1.29231" transform="rotate(90 82.8616 1.29231)" fill="#2889FC"/>
<circle cx="88.0308" cy="21.9693" r="1.29231" transform="rotate(90 88.0308 21.9693)" fill="#2889FC"/>
<circle cx="82.8616" cy="21.9693" r="1.29231" transform="rotate(90 82.8616 21.9693)" fill="#2889FC"/>
<circle cx="88.0308" cy="11.6307" r="1.29231" transform="rotate(90 88.0308 11.6307)" fill="#2889FC"/>
<circle cx="82.8616" cy="11.6307" r="1.29231" transform="rotate(90 82.8616 11.6307)" fill="#2889FC"/>
<circle cx="88.0308" cy="32.3077" r="1.29231" transform="rotate(90 88.0308 32.3077)" fill="#2889FC"/>
<circle cx="82.8616" cy="32.3077" r="1.29231" transform="rotate(90 82.8616 32.3077)" fill="#2889FC"/>
<circle cx="88.0308" cy="6.4615" r="1.29231" transform="rotate(90 88.0308 6.4615)" fill="#2889FC"/>
<circle cx="82.8616" cy="6.4615" r="1.29231" transform="rotate(90 82.8616 6.4615)" fill="#2889FC"/>
<circle cx="88.0308" cy="27.1385" r="1.29231" transform="rotate(90 88.0308 27.1385)" fill="#2889FC"/>
<circle cx="82.8616" cy="27.1385" r="1.29231" transform="rotate(90 82.8616 27.1385)" fill="#2889FC"/>
<circle cx="88.0308" cy="16.8001" r="1.29231" transform="rotate(90 88.0308 16.8001)" fill="#2889FC"/>
<circle cx="82.8616" cy="16.8001" r="1.29231" transform="rotate(90 82.8616 16.8001)" fill="#2889FC"/>
<circle cx="88.0308" cy="37.4769" r="1.29231" transform="rotate(90 88.0308 37.4769)" fill="#2889FC"/>
<circle cx="82.8616" cy="37.4769" r="1.29231" transform="rotate(90 82.8616 37.4769)" fill="#2889FC"/>
<circle cx="5.32305" cy="1.29231" r="1.29231" transform="rotate(90 5.32305 1.29231)" fill="#2889FC"/>
<circle cx="0.153859" cy="1.29231" r="1.29231" transform="rotate(90 0.153859 1.29231)" fill="#2889FC"/>
<circle cx="5.32305" cy="21.9693" r="1.29231" transform="rotate(90 5.32305 21.9693)" fill="#2889FC"/>
<circle cx="0.153859" cy="21.9693" r="1.29231" transform="rotate(90 0.153859 21.9693)" fill="#2889FC"/>
<circle cx="5.32305" cy="11.6307" r="1.29231" transform="rotate(90 5.32305 11.6307)" fill="#2889FC"/>
<circle cx="0.153859" cy="11.6307" r="1.29231" transform="rotate(90 0.153859 11.6307)" fill="#2889FC"/>
<circle cx="5.32305" cy="32.3077" r="1.29231" transform="rotate(90 5.32305 32.3077)" fill="#2889FC"/>
<circle cx="0.153859" cy="32.3077" r="1.29231" transform="rotate(90 0.153859 32.3077)" fill="#2889FC"/>
<circle cx="5.32305" cy="6.4615" r="1.29231" transform="rotate(90 5.32305 6.4615)" fill="#2889FC"/>
<circle cx="0.153859" cy="6.4615" r="1.29231" transform="rotate(90 0.153859 6.4615)" fill="#2889FC"/>
<circle cx="5.32305" cy="27.1385" r="1.29231" transform="rotate(90 5.32305 27.1385)" fill="#2889FC"/>
<circle cx="0.153859" cy="27.1385" r="1.29231" transform="rotate(90 0.153859 27.1385)" fill="#2889FC"/>
<circle cx="5.32305" cy="16.8001" r="1.29231" transform="rotate(90 5.32305 16.8001)" fill="#2889FC"/>
<circle cx="0.153859" cy="16.8001" r="1.29231" transform="rotate(90 0.153859 16.8001)" fill="#2889FC"/>
<circle cx="5.32305" cy="37.4769" r="1.29231" transform="rotate(90 5.32305 37.4769)" fill="#2889FC"/>
<circle cx="0.153859" cy="37.4769" r="1.29231" transform="rotate(90 0.153859 37.4769)" fill="#2889FC"/>
<circle cx="46.6769" cy="1.29231" r="1.29231" transform="rotate(90 46.6769 1.29231)" fill="#2889FC"/>
<circle cx="41.5077" cy="1.29231" r="1.29231" transform="rotate(90 41.5077 1.29231)" fill="#2889FC"/>
<circle cx="46.6769" cy="21.9693" r="1.29231" transform="rotate(90 46.6769 21.9693)" fill="#2889FC"/>
<circle cx="41.5077" cy="21.9693" r="1.29231" transform="rotate(90 41.5077 21.9693)" fill="#2889FC"/>
<circle cx="46.6769" cy="11.6307" r="1.29231" transform="rotate(90 46.6769 11.6307)" fill="#2889FC"/>
<circle cx="41.5077" cy="11.6307" r="1.29231" transform="rotate(90 41.5077 11.6307)" fill="#2889FC"/>
<circle cx="46.6769" cy="32.3077" r="1.29231" transform="rotate(90 46.6769 32.3077)" fill="#2889FC"/>
<circle cx="41.5077" cy="32.3077" r="1.29231" transform="rotate(90 41.5077 32.3077)" fill="#2889FC"/>
<circle cx="46.6769" cy="6.4615" r="1.29231" transform="rotate(90 46.6769 6.4615)" fill="#2889FC"/>
<circle cx="41.5077" cy="6.4615" r="1.29231" transform="rotate(90 41.5077 6.4615)" fill="#2889FC"/>
<circle cx="46.6769" cy="27.1385" r="1.29231" transform="rotate(90 46.6769 27.1385)" fill="#2889FC"/>
<circle cx="41.5077" cy="27.1385" r="1.29231" transform="rotate(90 41.5077 27.1385)" fill="#2889FC"/>
<circle cx="46.6769" cy="16.8001" r="1.29231" transform="rotate(90 46.6769 16.8001)" fill="#2889FC"/>
<circle cx="41.5077" cy="16.8001" r="1.29231" transform="rotate(90 41.5077 16.8001)" fill="#2889FC"/>
<circle cx="46.6769" cy="37.4769" r="1.29231" transform="rotate(90 46.6769 37.4769)" fill="#2889FC"/>
<circle cx="41.5077" cy="37.4769" r="1.29231" transform="rotate(90 41.5077 37.4769)" fill="#2889FC"/>
<circle cx="108.708" cy="42.6461" r="1.29231" transform="rotate(90 108.708 42.6461)" fill="#2889FC"/>
<circle cx="103.538" cy="42.6461" r="1.29231" transform="rotate(90 103.538 42.6461)" fill="#2889FC"/>
<circle cx="108.708" cy="63.3231" r="1.29231" transform="rotate(90 108.708 63.3231)" fill="#2889FC"/>
<circle cx="103.538" cy="63.3231" r="1.29231" transform="rotate(90 103.538 63.3231)" fill="#2889FC"/>
<circle cx="108.708" cy="52.9847" r="1.29231" transform="rotate(90 108.708 52.9847)" fill="#2889FC"/>
<circle cx="103.538" cy="52.9847" r="1.29231" transform="rotate(90 103.538 52.9847)" fill="#2889FC"/>
<circle cx="108.708" cy="73.6614" r="1.29231" transform="rotate(90 108.708 73.6614)" fill="#2889FC"/>
<circle cx="103.538" cy="73.6614" r="1.29231" transform="rotate(90 103.538 73.6614)" fill="#2889FC"/>
<circle cx="108.708" cy="47.8155" r="1.29231" transform="rotate(90 108.708 47.8155)" fill="#2889FC"/>
<circle cx="103.538" cy="47.8155" r="1.29231" transform="rotate(90 103.538 47.8155)" fill="#2889FC"/>
<circle cx="108.708" cy="68.4923" r="1.29231" transform="rotate(90 108.708 68.4923)" fill="#2889FC"/>
<circle cx="103.538" cy="68.4923" r="1.29231" transform="rotate(90 103.538 68.4923)" fill="#2889FC"/>
<circle cx="108.708" cy="58.1539" r="1.29231" transform="rotate(90 108.708 58.1539)" fill="#2889FC"/>
<circle cx="103.538" cy="58.1539" r="1.29231" transform="rotate(90 103.538 58.1539)" fill="#2889FC"/>
<circle cx="26" cy="42.6461" r="1.29231" transform="rotate(90 26 42.6461)" fill="#2889FC"/>
<circle cx="20.8308" cy="42.6461" r="1.29231" transform="rotate(90 20.8308 42.6461)" fill="#2889FC"/>
<circle cx="26" cy="63.3231" r="1.29231" transform="rotate(90 26 63.3231)" fill="#2889FC"/>
<circle cx="20.8308" cy="63.3231" r="1.29231" transform="rotate(90 20.8308 63.3231)" fill="#2889FC"/>
<circle cx="26" cy="52.9847" r="1.29231" transform="rotate(90 26 52.9847)" fill="#2889FC"/>
<circle cx="20.8308" cy="52.9847" r="1.29231" transform="rotate(90 20.8308 52.9847)" fill="#2889FC"/>
<circle cx="26" cy="73.6614" r="1.29231" transform="rotate(90 26 73.6614)" fill="#2889FC"/>
<circle cx="20.8308" cy="73.6614" r="1.29231" transform="rotate(90 20.8308 73.6614)" fill="#2889FC"/>
<circle cx="26" cy="47.8155" r="1.29231" transform="rotate(90 26 47.8155)" fill="#2889FC"/>
<circle cx="20.8308" cy="47.8155" r="1.29231" transform="rotate(90 20.8308 47.8155)" fill="#2889FC"/>
<circle cx="26" cy="68.4923" r="1.29231" transform="rotate(90 26 68.4923)" fill="#2889FC"/>
<circle cx="20.8308" cy="68.4923" r="1.29231" transform="rotate(90 20.8308 68.4923)" fill="#2889FC"/>
<circle cx="26" cy="58.1539" r="1.29231" transform="rotate(90 26 58.1539)" fill="#2889FC"/>
<circle cx="20.8308" cy="58.1539" r="1.29231" transform="rotate(90 20.8308 58.1539)" fill="#2889FC"/>
<circle cx="67.3539" cy="42.6461" r="1.29231" transform="rotate(90 67.3539 42.6461)" fill="#2889FC"/>
<circle cx="62.1846" cy="42.6461" r="1.29231" transform="rotate(90 62.1846 42.6461)" fill="#2889FC"/>
<circle cx="67.3539" cy="63.3231" r="1.29231" transform="rotate(90 67.3539 63.3231)" fill="#2889FC"/>
<circle cx="62.1846" cy="63.3231" r="1.29231" transform="rotate(90 62.1846 63.3231)" fill="#2889FC"/>
<circle cx="67.3539" cy="52.9847" r="1.29231" transform="rotate(90 67.3539 52.9847)" fill="#2889FC"/>
<circle cx="62.1846" cy="52.9847" r="1.29231" transform="rotate(90 62.1846 52.9847)" fill="#2889FC"/>
<circle cx="67.3539" cy="73.6614" r="1.29231" transform="rotate(90 67.3539 73.6614)" fill="#2889FC"/>
<circle cx="62.1846" cy="73.6614" r="1.29231" transform="rotate(90 62.1846 73.6614)" fill="#2889FC"/>
<circle cx="67.3539" cy="47.8155" r="1.29231" transform="rotate(90 67.3539 47.8155)" fill="#2889FC"/>
<circle cx="62.1846" cy="47.8155" r="1.29231" transform="rotate(90 62.1846 47.8155)" fill="#2889FC"/>
<circle cx="67.3539" cy="68.4923" r="1.29231" transform="rotate(90 67.3539 68.4923)" fill="#2889FC"/>
<circle cx="62.1846" cy="68.4923" r="1.29231" transform="rotate(90 62.1846 68.4923)" fill="#2889FC"/>
<circle cx="67.3539" cy="58.1539" r="1.29231" transform="rotate(90 67.3539 58.1539)" fill="#2889FC"/>
<circle cx="62.1846" cy="58.1539" r="1.29231" transform="rotate(90 62.1846 58.1539)" fill="#2889FC"/>
<circle cx="88.0308" cy="42.6461" r="1.29231" transform="rotate(90 88.0308 42.6461)" fill="#2889FC"/>
<circle cx="82.8616" cy="42.6461" r="1.29231" transform="rotate(90 82.8616 42.6461)" fill="#2889FC"/>
<circle cx="88.0308" cy="63.3231" r="1.29231" transform="rotate(90 88.0308 63.3231)" fill="#2889FC"/>
<circle cx="82.8616" cy="63.3231" r="1.29231" transform="rotate(90 82.8616 63.3231)" fill="#2889FC"/>
<circle cx="88.0308" cy="52.9847" r="1.29231" transform="rotate(90 88.0308 52.9847)" fill="#2889FC"/>
<circle cx="82.8616" cy="52.9847" r="1.29231" transform="rotate(90 82.8616 52.9847)" fill="#2889FC"/>
<circle cx="88.0308" cy="73.6614" r="1.29231" transform="rotate(90 88.0308 73.6614)" fill="#2889FC"/>
<circle cx="82.8616" cy="73.6614" r="1.29231" transform="rotate(90 82.8616 73.6614)" fill="#2889FC"/>
<circle cx="88.0308" cy="47.8155" r="1.29231" transform="rotate(90 88.0308 47.8155)" fill="#2889FC"/>
<circle cx="82.8616" cy="47.8155" r="1.29231" transform="rotate(90 82.8616 47.8155)" fill="#2889FC"/>
<circle cx="88.0308" cy="68.4923" r="1.29231" transform="rotate(90 88.0308 68.4923)" fill="#2889FC"/>
<circle cx="82.8616" cy="68.4923" r="1.29231" transform="rotate(90 82.8616 68.4923)" fill="#2889FC"/>
<circle cx="88.0308" cy="58.1539" r="1.29231" transform="rotate(90 88.0308 58.1539)" fill="#2889FC"/>
<circle cx="82.8616" cy="58.1539" r="1.29231" transform="rotate(90 82.8616 58.1539)" fill="#2889FC"/>
<circle cx="5.32311" cy="42.6461" r="1.29231" transform="rotate(90 5.32311 42.6461)" fill="#2889FC"/>
<circle cx="0.153859" cy="42.6461" r="1.29231" transform="rotate(90 0.153859 42.6461)" fill="#2889FC"/>
<circle cx="5.32311" cy="63.3231" r="1.29231" transform="rotate(90 5.32311 63.3231)" fill="#2889FC"/>
<circle cx="0.153859" cy="63.3231" r="1.29231" transform="rotate(90 0.153859 63.3231)" fill="#2889FC"/>
<circle cx="5.32311" cy="52.9847" r="1.29231" transform="rotate(90 5.32311 52.9847)" fill="#2889FC"/>
<circle cx="0.153859" cy="52.9847" r="1.29231" transform="rotate(90 0.153859 52.9847)" fill="#2889FC"/>
<circle cx="5.32311" cy="73.6614" r="1.29231" transform="rotate(90 5.32311 73.6614)" fill="#2889FC"/>
<circle cx="0.153859" cy="73.6614" r="1.29231" transform="rotate(90 0.153859 73.6614)" fill="#2889FC"/>
<circle cx="5.32311" cy="47.8155" r="1.29231" transform="rotate(90 5.32311 47.8155)" fill="#2889FC"/>
<circle cx="0.153859" cy="47.8155" r="1.29231" transform="rotate(90 0.153859 47.8155)" fill="#2889FC"/>
<circle cx="5.32311" cy="68.4923" r="1.29231" transform="rotate(90 5.32311 68.4923)" fill="#2889FC"/>
<circle cx="0.153859" cy="68.4923" r="1.29231" transform="rotate(90 0.153859 68.4923)" fill="#2889FC"/>
<circle cx="5.32311" cy="58.1539" r="1.29231" transform="rotate(90 5.32311 58.1539)" fill="#2889FC"/>
<circle cx="0.153859" cy="58.1539" r="1.29231" transform="rotate(90 0.153859 58.1539)" fill="#2889FC"/>
<circle cx="46.6769" cy="42.6461" r="1.29231" transform="rotate(90 46.6769 42.6461)" fill="#2889FC"/>
<circle cx="41.5077" cy="42.6461" r="1.29231" transform="rotate(90 41.5077 42.6461)" fill="#2889FC"/>
<circle cx="46.6769" cy="63.3231" r="1.29231" transform="rotate(90 46.6769 63.3231)" fill="#2889FC"/>
<circle cx="41.5077" cy="63.3231" r="1.29231" transform="rotate(90 41.5077 63.3231)" fill="#2889FC"/>
<circle cx="46.6769" cy="52.9847" r="1.29231" transform="rotate(90 46.6769 52.9847)" fill="#2889FC"/>
<circle cx="41.5077" cy="52.9847" r="1.29231" transform="rotate(90 41.5077 52.9847)" fill="#2889FC"/>
<circle cx="46.6769" cy="73.6614" r="1.29231" transform="rotate(90 46.6769 73.6614)" fill="#2889FC"/>
<circle cx="41.5077" cy="73.6614" r="1.29231" transform="rotate(90 41.5077 73.6614)" fill="#2889FC"/>
<circle cx="46.6769" cy="47.8155" r="1.29231" transform="rotate(90 46.6769 47.8155)" fill="#2889FC"/>
<circle cx="41.5077" cy="47.8155" r="1.29231" transform="rotate(90 41.5077 47.8155)" fill="#2889FC"/>
<circle cx="46.6769" cy="68.4923" r="1.29231" transform="rotate(90 46.6769 68.4923)" fill="#2889FC"/>
<circle cx="41.5077" cy="68.4923" r="1.29231" transform="rotate(90 41.5077 68.4923)" fill="#2889FC"/>
<circle cx="46.6769" cy="58.1539" r="1.29231" transform="rotate(90 46.6769 58.1539)" fill="#2889FC"/>
<circle cx="41.5077" cy="58.1539" r="1.29231" transform="rotate(90 41.5077 58.1539)" fill="#2889FC"/>
<circle cx="98.3693" cy="1.29231" r="1.29231" transform="rotate(90 98.3693 1.29231)" fill="#2889FC"/>
<circle cx="93.2" cy="1.29231" r="1.29231" transform="rotate(90 93.2 1.29231)" fill="#2889FC"/>
<circle cx="98.3693" cy="21.9693" r="1.29231" transform="rotate(90 98.3693 21.9693)" fill="#2889FC"/>
<circle cx="93.2" cy="21.9693" r="1.29231" transform="rotate(90 93.2 21.9693)" fill="#2889FC"/>
<circle cx="98.3693" cy="11.6307" r="1.29231" transform="rotate(90 98.3693 11.6307)" fill="#2889FC"/>
<circle cx="93.2" cy="11.6307" r="1.29231" transform="rotate(90 93.2 11.6307)" fill="#2889FC"/>
<circle cx="98.3693" cy="32.3077" r="1.29231" transform="rotate(90 98.3693 32.3077)" fill="#2889FC"/>
<circle cx="93.2" cy="32.3077" r="1.29231" transform="rotate(90 93.2 32.3077)" fill="#2889FC"/>
<circle cx="98.3693" cy="6.4615" r="1.29231" transform="rotate(90 98.3693 6.4615)" fill="#2889FC"/>
<circle cx="93.2" cy="6.4615" r="1.29231" transform="rotate(90 93.2 6.4615)" fill="#2889FC"/>
<circle cx="98.3693" cy="27.1385" r="1.29231" transform="rotate(90 98.3693 27.1385)" fill="#2889FC"/>
<circle cx="93.2" cy="27.1385" r="1.29231" transform="rotate(90 93.2 27.1385)" fill="#2889FC"/>
<circle cx="98.3693" cy="16.8001" r="1.29231" transform="rotate(90 98.3693 16.8001)" fill="#2889FC"/>
<circle cx="93.2" cy="16.8001" r="1.29231" transform="rotate(90 93.2 16.8001)" fill="#2889FC"/>
<circle cx="98.3693" cy="37.4769" r="1.29231" transform="rotate(90 98.3693 37.4769)" fill="#2889FC"/>
<circle cx="93.2" cy="37.4769" r="1.29231" transform="rotate(90 93.2 37.4769)" fill="#2889FC"/>
<circle cx="15.6615" cy="1.29231" r="1.29231" transform="rotate(90 15.6615 1.29231)" fill="#2889FC"/>
<circle cx="10.4923" cy="1.29231" r="1.29231" transform="rotate(90 10.4923 1.29231)" fill="#2889FC"/>
<circle cx="15.6615" cy="21.9693" r="1.29231" transform="rotate(90 15.6615 21.9693)" fill="#2889FC"/>
<circle cx="10.4923" cy="21.9693" r="1.29231" transform="rotate(90 10.4923 21.9693)" fill="#2889FC"/>
<circle cx="15.6615" cy="11.6307" r="1.29231" transform="rotate(90 15.6615 11.6307)" fill="#2889FC"/>
<circle cx="10.4923" cy="11.6307" r="1.29231" transform="rotate(90 10.4923 11.6307)" fill="#2889FC"/>
<circle cx="15.6615" cy="32.3077" r="1.29231" transform="rotate(90 15.6615 32.3077)" fill="#2889FC"/>
<circle cx="10.4923" cy="32.3077" r="1.29231" transform="rotate(90 10.4923 32.3077)" fill="#2889FC"/>
<circle cx="15.6615" cy="6.4615" r="1.29231" transform="rotate(90 15.6615 6.4615)" fill="#2889FC"/>
<circle cx="10.4923" cy="6.4615" r="1.29231" transform="rotate(90 10.4923 6.4615)" fill="#2889FC"/>
<circle cx="15.6615" cy="27.1385" r="1.29231" transform="rotate(90 15.6615 27.1385)" fill="#2889FC"/>
<circle cx="10.4923" cy="27.1385" r="1.29231" transform="rotate(90 10.4923 27.1385)" fill="#2889FC"/>
<circle cx="15.6615" cy="16.8001" r="1.29231" transform="rotate(90 15.6615 16.8001)" fill="#2889FC"/>
<circle cx="10.4923" cy="16.8001" r="1.29231" transform="rotate(90 10.4923 16.8001)" fill="#2889FC"/>
<circle cx="15.6615" cy="37.4769" r="1.29231" transform="rotate(90 15.6615 37.4769)" fill="#2889FC"/>
<circle cx="10.4923" cy="37.4769" r="1.29231" transform="rotate(90 10.4923 37.4769)" fill="#2889FC"/>
<circle cx="57.0154" cy="1.29231" r="1.29231" transform="rotate(90 57.0154 1.29231)" fill="#2889FC"/>
<circle cx="51.8462" cy="1.29231" r="1.29231" transform="rotate(90 51.8462 1.29231)" fill="#2889FC"/>
<circle cx="57.0154" cy="21.9693" r="1.29231" transform="rotate(90 57.0154 21.9693)" fill="#2889FC"/>
<circle cx="51.8462" cy="21.9693" r="1.29231" transform="rotate(90 51.8462 21.9693)" fill="#2889FC"/>
<circle cx="57.0154" cy="11.6307" r="1.29231" transform="rotate(90 57.0154 11.6307)" fill="#2889FC"/>
<circle cx="51.8462" cy="11.6307" r="1.29231" transform="rotate(90 51.8462 11.6307)" fill="#2889FC"/>
<circle cx="57.0154" cy="32.3077" r="1.29231" transform="rotate(90 57.0154 32.3077)" fill="#2889FC"/>
<circle cx="51.8462" cy="32.3077" r="1.29231" transform="rotate(90 51.8462 32.3077)" fill="#2889FC"/>
<circle cx="57.0154" cy="6.4615" r="1.29231" transform="rotate(90 57.0154 6.4615)" fill="#2889FC"/>
<circle cx="51.8462" cy="6.4615" r="1.29231" transform="rotate(90 51.8462 6.4615)" fill="#2889FC"/>
<circle cx="57.0154" cy="27.1385" r="1.29231" transform="rotate(90 57.0154 27.1385)" fill="#2889FC"/>
<circle cx="51.8462" cy="27.1385" r="1.29231" transform="rotate(90 51.8462 27.1385)" fill="#2889FC"/>
<circle cx="57.0154" cy="16.8001" r="1.29231" transform="rotate(90 57.0154 16.8001)" fill="#2889FC"/>
<circle cx="51.8462" cy="16.8001" r="1.29231" transform="rotate(90 51.8462 16.8001)" fill="#2889FC"/>
<circle cx="57.0154" cy="37.4769" r="1.29231" transform="rotate(90 57.0154 37.4769)" fill="#2889FC"/>
<circle cx="51.8462" cy="37.4769" r="1.29231" transform="rotate(90 51.8462 37.4769)" fill="#2889FC"/>
<circle cx="77.6923" cy="1.29231" r="1.29231" transform="rotate(90 77.6923 1.29231)" fill="#2889FC"/>
<circle cx="72.5231" cy="1.29231" r="1.29231" transform="rotate(90 72.5231 1.29231)" fill="#2889FC"/>
<circle cx="77.6923" cy="21.9693" r="1.29231" transform="rotate(90 77.6923 21.9693)" fill="#2889FC"/>
<circle cx="72.5231" cy="21.9693" r="1.29231" transform="rotate(90 72.5231 21.9693)" fill="#2889FC"/>
<circle cx="77.6923" cy="11.6307" r="1.29231" transform="rotate(90 77.6923 11.6307)" fill="#2889FC"/>
<circle cx="72.5231" cy="11.6307" r="1.29231" transform="rotate(90 72.5231 11.6307)" fill="#2889FC"/>
<circle cx="77.6923" cy="32.3077" r="1.29231" transform="rotate(90 77.6923 32.3077)" fill="#2889FC"/>
<circle cx="72.5231" cy="32.3077" r="1.29231" transform="rotate(90 72.5231 32.3077)" fill="#2889FC"/>
<circle cx="77.6923" cy="6.4615" r="1.29231" transform="rotate(90 77.6923 6.4615)" fill="#2889FC"/>
<circle cx="72.5231" cy="6.4615" r="1.29231" transform="rotate(90 72.5231 6.4615)" fill="#2889FC"/>
<circle cx="77.6923" cy="27.1385" r="1.29231" transform="rotate(90 77.6923 27.1385)" fill="#2889FC"/>
<circle cx="72.5231" cy="27.1385" r="1.29231" transform="rotate(90 72.5231 27.1385)" fill="#2889FC"/>
<circle cx="77.6923" cy="16.8001" r="1.29231" transform="rotate(90 77.6923 16.8001)" fill="#2889FC"/>
<circle cx="72.5231" cy="16.8001" r="1.29231" transform="rotate(90 72.5231 16.8001)" fill="#2889FC"/>
<circle cx="77.6923" cy="37.4769" r="1.29231" transform="rotate(90 77.6923 37.4769)" fill="#2889FC"/>
<circle cx="72.5231" cy="37.4769" r="1.29231" transform="rotate(90 72.5231 37.4769)" fill="#2889FC"/>
<circle cx="36.3385" cy="1.29231" r="1.29231" transform="rotate(90 36.3385 1.29231)" fill="#2889FC"/>
<circle cx="31.1692" cy="1.29231" r="1.29231" transform="rotate(90 31.1692 1.29231)" fill="#2889FC"/>
<circle cx="36.3385" cy="21.9693" r="1.29231" transform="rotate(90 36.3385 21.9693)" fill="#2889FC"/>
<circle cx="31.1692" cy="21.9693" r="1.29231" transform="rotate(90 31.1692 21.9693)" fill="#2889FC"/>
<circle cx="36.3385" cy="11.6307" r="1.29231" transform="rotate(90 36.3385 11.6307)" fill="#2889FC"/>
<circle cx="31.1692" cy="11.6307" r="1.29231" transform="rotate(90 31.1692 11.6307)" fill="#2889FC"/>
<circle cx="36.3385" cy="32.3077" r="1.29231" transform="rotate(90 36.3385 32.3077)" fill="#2889FC"/>
<circle cx="31.1692" cy="32.3077" r="1.29231" transform="rotate(90 31.1692 32.3077)" fill="#2889FC"/>
<circle cx="36.3385" cy="6.4615" r="1.29231" transform="rotate(90 36.3385 6.4615)" fill="#2889FC"/>
<circle cx="31.1692" cy="6.4615" r="1.29231" transform="rotate(90 31.1692 6.4615)" fill="#2889FC"/>
<circle cx="36.3385" cy="27.1385" r="1.29231" transform="rotate(90 36.3385 27.1385)" fill="#2889FC"/>
<circle cx="31.1692" cy="27.1385" r="1.29231" transform="rotate(90 31.1692 27.1385)" fill="#2889FC"/>
<circle cx="36.3385" cy="16.8001" r="1.29231" transform="rotate(90 36.3385 16.8001)" fill="#2889FC"/>
<circle cx="31.1692" cy="16.8001" r="1.29231" transform="rotate(90 31.1692 16.8001)" fill="#2889FC"/>
<circle cx="36.3385" cy="37.4769" r="1.29231" transform="rotate(90 36.3385 37.4769)" fill="#2889FC"/>
<circle cx="31.1692" cy="37.4769" r="1.29231" transform="rotate(90 31.1692 37.4769)" fill="#2889FC"/>
<circle cx="98.3693" cy="42.6461" r="1.29231" transform="rotate(90 98.3693 42.6461)" fill="#2889FC"/>
<circle cx="93.2" cy="42.6461" r="1.29231" transform="rotate(90 93.2 42.6461)" fill="#2889FC"/>
<circle cx="98.3693" cy="63.3231" r="1.29231" transform="rotate(90 98.3693 63.3231)" fill="#2889FC"/>
<circle cx="93.2" cy="63.3231" r="1.29231" transform="rotate(90 93.2 63.3231)" fill="#2889FC"/>
<circle cx="98.3693" cy="52.9847" r="1.29231" transform="rotate(90 98.3693 52.9847)" fill="#2889FC"/>
<circle cx="93.2" cy="52.9847" r="1.29231" transform="rotate(90 93.2 52.9847)" fill="#2889FC"/>
<circle cx="98.3693" cy="73.6614" r="1.29231" transform="rotate(90 98.3693 73.6614)" fill="#2889FC"/>
<circle cx="93.2" cy="73.6614" r="1.29231" transform="rotate(90 93.2 73.6614)" fill="#2889FC"/>
<circle cx="98.3693" cy="47.8155" r="1.29231" transform="rotate(90 98.3693 47.8155)" fill="#2889FC"/>
<circle cx="93.2" cy="47.8155" r="1.29231" transform="rotate(90 93.2 47.8155)" fill="#2889FC"/>
<circle cx="98.3693" cy="68.4923" r="1.29231" transform="rotate(90 98.3693 68.4923)" fill="#2889FC"/>
<circle cx="93.2" cy="68.4923" r="1.29231" transform="rotate(90 93.2 68.4923)" fill="#2889FC"/>
<circle cx="98.3693" cy="58.1539" r="1.29231" transform="rotate(90 98.3693 58.1539)" fill="#2889FC"/>
<circle cx="93.2" cy="58.1539" r="1.29231" transform="rotate(90 93.2 58.1539)" fill="#2889FC"/>
<circle cx="15.6615" cy="42.6461" r="1.29231" transform="rotate(90 15.6615 42.6461)" fill="#2889FC"/>
<circle cx="10.4923" cy="42.6461" r="1.29231" transform="rotate(90 10.4923 42.6461)" fill="#2889FC"/>
<circle cx="15.6615" cy="63.3231" r="1.29231" transform="rotate(90 15.6615 63.3231)" fill="#2889FC"/>
<circle cx="10.4923" cy="63.3231" r="1.29231" transform="rotate(90 10.4923 63.3231)" fill="#2889FC"/>
<circle cx="15.6615" cy="52.9847" r="1.29231" transform="rotate(90 15.6615 52.9847)" fill="#2889FC"/>
<circle cx="10.4923" cy="52.9847" r="1.29231" transform="rotate(90 10.4923 52.9847)" fill="#2889FC"/>
<circle cx="15.6615" cy="73.6614" r="1.29231" transform="rotate(90 15.6615 73.6614)" fill="#2889FC"/>
<circle cx="10.4923" cy="73.6614" r="1.29231" transform="rotate(90 10.4923 73.6614)" fill="#2889FC"/>
<circle cx="15.6615" cy="47.8155" r="1.29231" transform="rotate(90 15.6615 47.8155)" fill="#2889FC"/>
<circle cx="10.4923" cy="47.8155" r="1.29231" transform="rotate(90 10.4923 47.8155)" fill="#2889FC"/>
<circle cx="15.6615" cy="68.4923" r="1.29231" transform="rotate(90 15.6615 68.4923)" fill="#2889FC"/>
<circle cx="10.4923" cy="68.4923" r="1.29231" transform="rotate(90 10.4923 68.4923)" fill="#2889FC"/>
<circle cx="15.6615" cy="58.1539" r="1.29231" transform="rotate(90 15.6615 58.1539)" fill="#2889FC"/>
<circle cx="10.4923" cy="58.1539" r="1.29231" transform="rotate(90 10.4923 58.1539)" fill="#2889FC"/>
<circle cx="57.0154" cy="42.6461" r="1.29231" transform="rotate(90 57.0154 42.6461)" fill="#2889FC"/>
<circle cx="51.8462" cy="42.6461" r="1.29231" transform="rotate(90 51.8462 42.6461)" fill="#2889FC"/>
<circle cx="57.0154" cy="63.3231" r="1.29231" transform="rotate(90 57.0154 63.3231)" fill="#2889FC"/>
<circle cx="51.8462" cy="63.3231" r="1.29231" transform="rotate(90 51.8462 63.3231)" fill="#2889FC"/>
<circle cx="57.0154" cy="52.9847" r="1.29231" transform="rotate(90 57.0154 52.9847)" fill="#2889FC"/>
<circle cx="51.8462" cy="52.9847" r="1.29231" transform="rotate(90 51.8462 52.9847)" fill="#2889FC"/>
<circle cx="57.0154" cy="73.6614" r="1.29231" transform="rotate(90 57.0154 73.6614)" fill="#2889FC"/>
<circle cx="51.8462" cy="73.6614" r="1.29231" transform="rotate(90 51.8462 73.6614)" fill="#2889FC"/>
<circle cx="57.0154" cy="47.8155" r="1.29231" transform="rotate(90 57.0154 47.8155)" fill="#2889FC"/>
<circle cx="51.8462" cy="47.8155" r="1.29231" transform="rotate(90 51.8462 47.8155)" fill="#2889FC"/>
<circle cx="57.0154" cy="68.4923" r="1.29231" transform="rotate(90 57.0154 68.4923)" fill="#2889FC"/>
<circle cx="51.8462" cy="68.4923" r="1.29231" transform="rotate(90 51.8462 68.4923)" fill="#2889FC"/>
<circle cx="57.0154" cy="58.1539" r="1.29231" transform="rotate(90 57.0154 58.1539)" fill="#2889FC"/>
<circle cx="51.8462" cy="58.1539" r="1.29231" transform="rotate(90 51.8462 58.1539)" fill="#2889FC"/>
<circle cx="77.6923" cy="42.6461" r="1.29231" transform="rotate(90 77.6923 42.6461)" fill="#2889FC"/>
<circle cx="72.5231" cy="42.6461" r="1.29231" transform="rotate(90 72.5231 42.6461)" fill="#2889FC"/>
<circle cx="77.6923" cy="63.3231" r="1.29231" transform="rotate(90 77.6923 63.3231)" fill="#2889FC"/>
<circle cx="72.5231" cy="63.3231" r="1.29231" transform="rotate(90 72.5231 63.3231)" fill="#2889FC"/>
<circle cx="77.6923" cy="52.9847" r="1.29231" transform="rotate(90 77.6923 52.9847)" fill="#2889FC"/>
<circle cx="72.5231" cy="52.9847" r="1.29231" transform="rotate(90 72.5231 52.9847)" fill="#2889FC"/>
<circle cx="77.6923" cy="73.6614" r="1.29231" transform="rotate(90 77.6923 73.6614)" fill="#2889FC"/>
<circle cx="72.5231" cy="73.6614" r="1.29231" transform="rotate(90 72.5231 73.6614)" fill="#2889FC"/>
<circle cx="77.6923" cy="47.8155" r="1.29231" transform="rotate(90 77.6923 47.8155)" fill="#2889FC"/>
<circle cx="72.5231" cy="47.8155" r="1.29231" transform="rotate(90 72.5231 47.8155)" fill="#2889FC"/>
<circle cx="77.6923" cy="68.4923" r="1.29231" transform="rotate(90 77.6923 68.4923)" fill="#2889FC"/>
<circle cx="72.5231" cy="68.4923" r="1.29231" transform="rotate(90 72.5231 68.4923)" fill="#2889FC"/>
<circle cx="77.6923" cy="58.1539" r="1.29231" transform="rotate(90 77.6923 58.1539)" fill="#2889FC"/>
<circle cx="72.5231" cy="58.1539" r="1.29231" transform="rotate(90 72.5231 58.1539)" fill="#2889FC"/>
<circle cx="36.3385" cy="42.6461" r="1.29231" transform="rotate(90 36.3385 42.6461)" fill="#2889FC"/>
<circle cx="31.1692" cy="42.6461" r="1.29231" transform="rotate(90 31.1692 42.6461)" fill="#2889FC"/>
<circle cx="36.3385" cy="63.3231" r="1.29231" transform="rotate(90 36.3385 63.3231)" fill="#2889FC"/>
<circle cx="31.1692" cy="63.3231" r="1.29231" transform="rotate(90 31.1692 63.3231)" fill="#2889FC"/>
<circle cx="36.3385" cy="52.9847" r="1.29231" transform="rotate(90 36.3385 52.9847)" fill="#2889FC"/>
<circle cx="31.1692" cy="52.9847" r="1.29231" transform="rotate(90 31.1692 52.9847)" fill="#2889FC"/>
<circle cx="36.3385" cy="73.6614" r="1.29231" transform="rotate(90 36.3385 73.6614)" fill="#2889FC"/>
<circle cx="31.1692" cy="73.6614" r="1.29231" transform="rotate(90 31.1692 73.6614)" fill="#2889FC"/>
<circle cx="36.3385" cy="47.8155" r="1.29231" transform="rotate(90 36.3385 47.8155)" fill="#2889FC"/>
<circle cx="31.1692" cy="47.8155" r="1.29231" transform="rotate(90 31.1692 47.8155)" fill="#2889FC"/>
<circle cx="36.3385" cy="68.4923" r="1.29231" transform="rotate(90 36.3385 68.4923)" fill="#2889FC"/>
<circle cx="31.1692" cy="68.4923" r="1.29231" transform="rotate(90 31.1692 68.4923)" fill="#2889FC"/>
<circle cx="36.3385" cy="58.1539" r="1.29231" transform="rotate(90 36.3385 58.1539)" fill="#2889FC"/>
<circle cx="31.1692" cy="58.1539" r="1.29231" transform="rotate(90 31.1692 58.1539)" fill="#2889FC"/>
</g>
</svg>
