<svg width="92" height="104" viewBox="0 0 92 104" fill="none" xmlns="http://www.w3.org/2000/svg">
<g opacity="0.1">
<g opacity="0.8">
<mask id="mask0" mask-type="alpha" maskUnits="userSpaceOnUse" x="0" y="-13" width="107" height="115">
<path d="M13.3844 70.7509C33.2244 91.4844 57.2728 82.4371 57.2728 82.4371C57.2728 86.9805 56.2995 92.0495 55.1268 96.641C54.3344 99.7436 57.183 102.589 60.1809 101.463C83.0018 92.8975 102.154 76.6427 105.971 45.4309C109.942 12.9693 82.948 -13 53.0644 -13C29.5049 -13 7.97346 0.633867 1.96135 24.6554C-2.19794 41.274 2.32937 59.198 13.3844 70.7509Z" fill="#637E9D"/>
</mask>
<g mask="url(#mask0)">
<rect x="-0.139038" y="19.2378" width="107.075" height="1.15135" fill="#2889FC"/>
<rect x="-0.139038" y="90.6213" width="107.075" height="1.15135" fill="#2889FC"/>
<rect x="-0.139038" y="0.816406" width="107.075" height="1.15135" fill="#2889FC"/>
<rect x="-0.139038" y="72.1997" width="107.075" height="1.15135" fill="#2889FC"/>
<rect x="-0.139038" y="37.6594" width="107.075" height="1.15135" fill="#2889FC"/>
<rect x="-0.139038" y="62.989" width="107.075" height="1.15135" fill="#2889FC"/>
<rect x="-0.139038" y="28.4487" width="107.075" height="1.15135" fill="#2889FC"/>
<rect x="-0.139038" y="99.8323" width="107.075" height="1.15135" fill="#2889FC"/>
<rect x="-0.139038" y="10.0271" width="107.075" height="1.15135" fill="#2889FC"/>
<rect x="-0.139038" y="81.4106" width="107.075" height="1.15135" fill="#2889FC"/>
<rect x="-0.139038" y="46.8701" width="107.075" height="1.15135" fill="#2889FC"/>
<rect x="-0.139038" y="58.3838" width="107.075" height="1.15135" fill="#2889FC"/>
<rect x="-0.139038" y="23.8433" width="107.075" height="1.15135" fill="#2889FC"/>
<rect x="-0.139038" y="95.2268" width="107.075" height="1.15135" fill="#2889FC"/>
<rect x="-0.139038" y="5.42163" width="107.075" height="1.15135" fill="#2889FC"/>
<rect x="-0.139038" y="76.8052" width="107.075" height="1.15135" fill="#2889FC"/>
<rect x="-0.139038" y="42.2649" width="107.075" height="1.15135" fill="#2889FC"/>
<rect x="-0.139038" y="67.5945" width="107.075" height="1.15135" fill="#2889FC"/>
<rect x="-0.139038" y="33.054" width="107.075" height="1.15135" fill="#2889FC"/>
<rect x="-0.139038" y="14.6326" width="107.075" height="1.15135" fill="#2889FC"/>
<rect x="-0.139038" y="86.0161" width="107.075" height="1.15135" fill="#2889FC"/>
<rect x="-0.139038" y="51.4756" width="107.075" height="1.15135" fill="#2889FC"/>
<rect x="-0.139038" y="56.0811" width="107.075" height="1.15135" fill="#2889FC"/>
<rect x="-0.139038" y="21.5405" width="107.075" height="1.15135" fill="#2889FC"/>
<rect x="-0.139038" y="92.9241" width="107.075" height="1.15135" fill="#2889FC"/>
<rect x="-0.139038" y="3.11914" width="107.075" height="1.15135" fill="#2889FC"/>
<rect x="-0.139038" y="74.5024" width="107.075" height="1.15135" fill="#2889FC"/>
<rect x="-0.139038" y="39.9622" width="107.075" height="1.15135" fill="#2889FC"/>
<rect x="-0.139038" y="65.2917" width="107.075" height="1.15135" fill="#2889FC"/>
<rect x="-0.139038" y="30.7515" width="107.075" height="1.15135" fill="#2889FC"/>
<rect x="-0.139038" y="12.3298" width="107.075" height="1.15135" fill="#2889FC"/>
<rect x="-0.139038" y="83.7134" width="107.075" height="1.15135" fill="#2889FC"/>
<rect x="-0.139038" y="49.1729" width="107.075" height="1.15135" fill="#2889FC"/>
<rect x="-0.139038" y="60.6863" width="107.075" height="1.15135" fill="#2889FC"/>
<rect x="-0.139038" y="26.146" width="107.075" height="1.15135" fill="#2889FC"/>
<rect x="-0.139038" y="97.5295" width="107.075" height="1.15135" fill="#2889FC"/>
<rect x="-0.139038" y="7.72437" width="107.075" height="1.15135" fill="#2889FC"/>
<rect x="-0.139038" y="79.1079" width="107.075" height="1.15135" fill="#2889FC"/>
<rect x="-0.139038" y="44.5674" width="107.075" height="1.15135" fill="#2889FC"/>
<rect x="-0.139038" y="69.8972" width="107.075" height="1.15135" fill="#2889FC"/>
<rect x="-0.139038" y="35.3567" width="107.075" height="1.15135" fill="#2889FC"/>
<rect x="-0.139038" y="16.9351" width="107.075" height="1.15135" fill="#2889FC"/>
<rect x="-0.139038" y="88.3186" width="107.075" height="1.15135" fill="#2889FC"/>
<rect x="-0.139038" y="53.7783" width="107.075" height="1.15135" fill="#2889FC"/>
</g>
</g>
<path d="M30.9424 70.7509C50.7824 91.4844 74.8309 82.4371 74.8309 82.4371C74.8309 86.9805 73.8575 92.0495 72.6849 96.641C71.8925 99.7436 74.741 102.589 77.739 101.463C100.56 92.8975 119.712 76.6427 123.529 45.4309C127.5 12.9693 100.506 -13 70.6224 -13C47.063 -13 25.5315 0.633867 19.5194 24.6554C15.3601 41.274 19.8874 59.198 30.9424 70.7509Z" fill="#2889FC"/>
</g>
</svg>
