<svg width="22" height="22" viewBox="0 0 22 22" fill="none" xmlns="http://www.w3.org/2000/svg">
<path d="M11 4.06154C11.4673 4.06154 11.8462 4.44037 11.8462 4.90769V10.477L15.4399 12.2739C15.8579 12.4829 16.0274 12.9912 15.8184 13.4092C15.6094 13.8272 15.1011 13.9966 14.6831 13.7876L10.6216 11.7568C10.3349 11.6135 10.1538 11.3205 10.1538 11V4.90769C10.1538 4.44037 10.5327 4.06154 11 4.06154Z" fill="#C7CDD8"/>
<path fill-rule="evenodd" clip-rule="evenodd" d="M11 22C17.0751 22 22 17.0751 22 11C22 4.92487 17.0751 0 11 0C4.92487 0 0 4.92487 0 11C0 17.0751 4.92487 22 11 22ZM11 20.3077C5.8595 20.3077 1.69231 16.1405 1.69231 11C1.69231 5.8595 5.8595 1.69231 11 1.69231C16.1405 1.69231 20.3077 5.8595 20.3077 11C20.3077 16.1405 16.1405 20.3077 11 20.3077Z" fill="#C7CDD8"/>
</svg>
