<svg width="22" height="22" viewBox="0 0 22 22" fill="none" xmlns="http://www.w3.org/2000/svg">
<path fill-rule="evenodd" clip-rule="evenodd" d="M1.87782 21.6756L5.95564 17.5982H18.7C20.5225 17.5982 22 16.1209 22 14.2986V3.29967C22 1.47731 20.5225 0 18.7 0H3.3C1.47746 0 0 1.47731 0 3.29967V20.8979C0 21.8778 1.18486 22.3685 1.87782 21.6756ZM5.5 15.3985C5.20826 15.3985 4.92847 15.5143 4.72218 15.7206L2.2 18.2425V3.29967C2.2 2.69222 2.69249 2.19978 3.3 2.19978H18.7C19.3075 2.19978 19.8 2.69222 19.8 3.29967V14.2986C19.8 14.906 19.3075 15.3985 18.7 15.3985H5.5Z" fill="#C7CDD8"/>
</svg>
