<svg width="422" height="220" viewBox="0 0 422 220" fill="none" xmlns="http://www.w3.org/2000/svg">
<path opacity="0.17" d="M186.35 175.31C213.732 175.31 235.93 171.59 235.93 167C235.93 162.411 213.732 158.69 186.35 158.69C158.968 158.69 136.77 162.411 136.77 167C136.77 171.59 158.968 175.31 186.35 175.31Z" fill="#BBD4EF"/>
<path opacity="0.17" d="M355 197C375.987 197 393 193.866 393 190C393 186.134 375.987 183 355 183C334.013 183 317 186.134 317 190C317 193.866 334.013 197 355 197Z" fill="#BBD4EF"/>
<path d="M270.71 153.64C271.92 155.091 273.417 156.276 275.107 157.121C276.797 157.966 278.643 158.453 280.53 158.55C287.21 159.08 290.77 171.4 290.77 171.4L243.23 169.4L258.38 143.7L270.71 153.64Z" fill="#2F80ED"/>
<path d="M286.82 175.78C284 175.57 278.82 173.62 278.99 167.78C279.17 160.94 277.1 147.38 275.83 145.31L275.64 145.01L275.76 144.67C275.86 144.38 285.89 114.93 286.07 109.84L286.27 104L287.55 109.7C287.94 111.4 296.69 150.53 296.5 160.22C299.26 160.56 308.5 162.63 310.27 174.96L310.39 175.82L286.82 175.78Z" fill="white"/>
<path d="M286.82 109.82C286.82 109.82 296.45 152.69 295.72 160.82C295.72 160.82 307.53 161 309.52 174.99H286.82C286.82 174.99 279.55 174.44 279.74 167.72C279.93 161 277.92 147.2 276.47 144.84C276.47 144.84 286.64 115.05 286.82 109.78V109.82ZM285.72 98.0504L285.32 109.73C285.18 113.87 277.86 136.12 275.05 144.35L274.82 145.02L275.19 145.62C276.29 147.4 278.43 160.62 278.24 167.68C278.06 174.13 283.7 176.26 286.71 176.48H311.25L311 174.81C309.29 162.81 300.75 160.14 297.24 159.53C297.05 148.7 288.65 111.17 288.24 109.53L285.68 98.1304L285.72 98.0504Z" fill="#79A5CC"/>
<path d="M258.15 30.2004L276.08 9.37042C276.613 8.45016 277.377 7.68429 278.295 7.14787C279.214 6.61145 280.256 6.32287 281.32 6.31042C282.481 6.33179 283.617 6.65691 284.613 7.25343C285.61 7.84994 286.432 8.69704 287 9.71042C287.532 10.7099 287.78 11.8367 287.714 12.9673C287.649 14.098 287.274 15.1888 286.63 16.1204L276.73 31.8304L272.91 37.8304L258.15 30.2004Z" fill="white"/>
<path d="M281.32 7.06042C285.17 7.06042 288.84 11.2704 286.04 15.7204L276.14 31.4304L272.69 36.8804L259.34 30.0104L276.68 9.81042C277.146 8.98689 277.82 8.29972 278.634 7.81726C279.448 7.3348 280.374 7.07387 281.32 7.06042ZM281.32 5.56042C280.139 5.56883 278.981 5.88269 277.958 6.47149C276.934 7.06029 276.081 7.90396 275.48 8.92042L258.2 29.0104L257 30.4404L258.69 31.3104L272 38.2104L273.22 38.8404L273.95 37.6804L277.41 32.2304L287.31 16.5204C288.026 15.4757 288.441 14.2538 288.508 12.9888C288.575 11.7239 288.292 10.465 287.69 9.35042C287.057 8.21301 286.134 7.26332 285.015 6.5977C283.897 5.93208 282.622 5.57422 281.32 5.56042Z" fill="#79A5CC"/>
<path d="M222.1 169.18C202.75 169.18 200.69 166.9 200.01 166.18C199.81 165.972 199.657 165.723 199.562 165.451C199.467 165.178 199.432 164.888 199.46 164.6C199.46 164.24 199.54 163.8 199.58 163.3C201.031 141.19 210.588 120.393 226.42 104.89C251 80.5304 256.32 29.0104 255 7.91044C254.944 6.9951 255.075 6.0779 255.385 5.21483C255.695 4.35175 256.177 3.56089 256.803 2.89052C257.429 2.22014 258.185 1.68432 259.024 1.31574C259.864 0.947168 260.77 0.753571 261.687 0.746768C262.604 0.739965 263.513 0.920099 264.358 1.27618C265.203 1.63225 265.967 2.15681 266.603 2.81782C267.238 3.47883 267.733 4.26244 268.055 5.12083C268.378 5.97921 268.523 6.89437 268.48 7.81044C269.349 13.9768 269.683 20.2066 269.48 26.4304C275.74 25.2504 311.28 18.7004 325.48 18.7004C326.07 18.7004 326.63 18.7004 327.16 18.7004C329.8 18.8104 331.41 20.3804 331.82 23.2304C333.51 35.0204 314.21 66.1304 299.58 71.1504C299.044 71.3274 298.577 71.6673 298.243 72.1227C297.91 72.578 297.727 73.1261 297.72 73.6904V94.0104C297.724 95.6596 297.519 97.3027 297.11 98.9004C294.11 110.48 277.9 168.25 251.29 168.25H247.39C247.35 168.27 234.33 169.18 222.1 169.18Z" fill="white"/>
<path d="M261.78 1.51045C262.601 1.49869 263.416 1.65765 264.172 1.97727C264.929 2.29688 265.611 2.77018 266.175 3.36717C266.739 3.96416 267.173 4.67181 267.449 5.44529C267.726 6.21876 267.838 7.04119 267.78 7.86045C268.689 14.3113 268.993 20.8329 268.69 27.3405C268.69 27.3405 309.86 19.4505 325.53 19.4505C326.11 19.4505 326.66 19.4505 327.17 19.4505C340.74 20.0505 317.34 64.2805 299.38 70.4505C298.688 70.6762 298.085 71.115 297.658 71.7042C297.23 72.2933 297 73.0026 297 73.7305V94.0105C297.005 95.5959 296.806 97.1754 296.41 98.7104C293.22 111.1 277.27 167.5 251.32 167.5H247.42C247.42 167.5 234.42 168.42 222.09 168.42C210.72 168.42 199.89 167.64 200.2 164.64C200.83 158.37 201.88 130.18 226.94 105.38C252 80.5805 257.05 28.7405 255.77 7.85045C255.712 7.03119 255.824 6.20876 256.1 5.43529C256.377 4.66181 256.811 3.95416 257.375 3.35717C257.939 2.76018 258.621 2.28688 259.377 1.96727C260.134 1.64765 260.949 1.48869 261.77 1.50045L261.78 1.51045ZM261.77 0.000451507C260.752 -0.0107709 259.743 0.18732 258.804 0.582432C257.866 0.977544 257.019 1.56125 256.316 2.29732C255.613 3.0334 255.068 3.90615 254.716 4.8614C254.364 5.81666 254.212 6.83405 254.27 7.85045V7.94045C255.55 28.9405 250.27 80.1704 225.88 104.32C209.913 119.939 200.273 140.902 198.81 163.19C198.81 163.69 198.73 164.13 198.69 164.49C198.654 164.882 198.703 165.276 198.832 165.647C198.961 166.018 199.169 166.356 199.44 166.64C200.82 168.17 204.64 169.92 222.08 169.92C233.94 169.92 246.53 169.07 247.46 169H251.31C262.94 169 273.85 158.71 283.74 138.41C291.37 122.76 296.15 105.7 297.85 99.0905C298.278 97.4312 298.493 95.7241 298.49 94.0105V73.7305C298.502 73.3244 298.638 72.9318 298.88 72.6049C299.121 72.278 299.456 72.0323 299.84 71.9005C306.84 69.5005 315.34 61.3105 322.64 49.9705C327.84 41.8904 333.57 30.0205 332.58 23.1605C332.12 19.9605 330.21 18.1605 327.21 17.9905C326.69 17.9905 326.11 17.9905 325.5 17.9905C311.6 17.9905 278.6 23.9905 270.26 25.5505C270.412 19.6131 270.077 13.6733 269.26 7.79045C269.309 6.78111 269.151 5.77238 268.797 4.82612C268.442 3.87985 267.898 3.01601 267.198 2.28754C266.497 1.55908 265.655 0.981352 264.724 0.589791C263.792 0.198231 262.79 0.00108787 261.78 0.0104515L261.77 0.000451507Z" fill="#79A5CC"/>
<path d="M276.47 53.7705C282.413 53.7705 287.23 48.9531 287.23 43.0105C287.23 37.0679 282.413 32.2505 276.47 32.2505C270.527 32.2505 265.71 37.0679 265.71 43.0105C265.71 48.9531 270.527 53.7705 276.47 53.7705Z" fill="#2F80ED"/>
<path d="M279.42 50.1305C281.049 50.1305 282.37 48.8097 282.37 47.1805C282.37 45.5512 281.049 44.2305 279.42 44.2305C277.791 44.2305 276.47 45.5512 276.47 47.1805C276.47 48.8097 277.791 50.1305 279.42 50.1305Z" fill="white"/>
<path d="M325.27 35.8304C331.748 35.8304 337 30.908 337 24.8358C337 18.7636 331.748 13.8412 325.27 13.8412C318.792 13.8412 313.54 18.7636 313.54 24.8358C313.54 30.908 318.792 35.8304 325.27 35.8304Z" fill="#2F80ED"/>
<path d="M305.96 36.8805C307.103 36.8805 308.03 35.9537 308.03 34.8105C308.03 33.6672 307.103 32.7405 305.96 32.7405C304.817 32.7405 303.89 33.6672 303.89 34.8105C303.89 35.9537 304.817 36.8805 305.96 36.8805Z" fill="#2F80ED"/>
<path d="M313.45 38.4205C314.593 38.4205 315.52 37.4937 315.52 36.3505C315.52 35.2073 314.593 34.2805 313.45 34.2805C312.307 34.2805 311.38 35.2073 311.38 36.3505C311.38 37.4937 312.307 38.4205 313.45 38.4205Z" fill="#2F80ED"/>
<path d="M308.41 43.0105C309.553 43.0105 310.48 42.0837 310.48 40.9405C310.48 39.7973 309.553 38.8705 308.41 38.8705C307.267 38.8705 306.34 39.7973 306.34 40.9405C306.34 42.0837 307.267 43.0105 308.41 43.0105Z" fill="#2F80ED"/>
<path d="M317.45 55.9004C317.45 55.9004 303.28 78.7004 278.94 72.2504L317.45 55.9004Z" fill="white"/>
<path d="M287.44 74.1404C284.507 74.1429 281.585 73.763 278.75 73.0104L279.13 71.5604C302.64 77.7904 316.67 55.7704 316.81 55.5604L318.08 56.3504C318 56.5004 306.74 74.1404 287.44 74.1404Z" fill="#79A5CC"/>
<path d="M225.85 126.46C225.85 126.46 239.21 135.23 237.85 147.03C238.66 157.52 249.29 164.03 249.29 164.03" fill="white"/>
<path d="M248.89 164.7C248.44 164.42 237.89 157.83 237.09 147.09V146.94C238.4 135.73 225.57 127.17 225.44 127.09L226.26 125.83C226.82 126.2 239.94 134.96 238.59 147.04C239.41 156.98 249.59 163.35 249.67 163.42L248.89 164.7Z" fill="#79A5CC"/>
<path d="M258.35 87.7104C258.35 87.7104 253.45 87.7105 253.45 94.7905C253.45 101.87 250.93 158.68 249.7 160.18C248.47 161.68 241.8 164.26 241.8 175.03H261C261 175.03 268.49 173.53 268.49 167.81V104.74" fill="white"/>
<path d="M261.08 175.78H241.08V175.01C241.08 165.88 245.82 162.29 248.08 160.56C248.43 160.305 248.764 160.027 249.08 159.73C250.18 156.73 252.7 103.52 252.7 94.7304C252.7 86.9904 258.29 86.9004 258.35 86.9004V88.4004C258.19 88.4004 254.2 88.5304 254.2 94.7304C254.2 98.1304 251.9 158.62 250.28 160.59C249.885 161.013 249.446 161.391 248.97 161.72C246.8 163.37 242.8 166.4 242.56 174.22H260.92C261.63 174.05 267.75 172.51 267.75 167.75V104.74H269.25V167.81C269.25 174.07 261.48 175.69 261.15 175.76L261.08 175.78Z" fill="#79A5CC"/>
<path d="M253.38 175.01C253.38 175.01 251.79 166.58 258.33 166.58L253.38 175.01Z" fill="white"/>
<path d="M252.64 175.161C252.64 174.971 251.77 170.371 253.99 167.701C254.522 167.079 255.191 166.589 255.944 166.268C256.696 165.947 257.513 165.804 258.33 165.851V167.351C257.735 167.307 257.139 167.402 256.587 167.627C256.036 167.853 255.544 168.203 255.15 168.651C253.38 170.781 254.15 174.851 254.15 174.891L252.64 175.161Z" fill="#79A5CC"/>
<path d="M294.22 175.42C294.22 175.42 295.81 167 289.22 167L294.22 175.42Z" fill="white"/>
<path d="M295 175.56L293.53 175.28C293.53 175.28 294.27 171.17 292.53 169.04C292.134 168.596 291.642 168.248 291.09 168.025C290.539 167.801 289.944 167.707 289.35 167.75V166.25C290.166 166.207 290.981 166.35 291.733 166.669C292.485 166.988 293.154 167.474 293.69 168.09C295.83 170.77 295 175.36 295 175.56Z" fill="#79A5CC"/>
<path d="M257.87 120.65C257.87 120.65 258.35 123.1 260.8 120.99L257.87 120.65Z" fill="white"/>
<path d="M259.08 122.22C258.921 122.222 258.762 122.199 258.61 122.15C258.326 122.016 258.077 121.817 257.884 121.568C257.691 121.32 257.56 121.029 257.5 120.72L258.24 120.58C258.24 120.58 258.4 121.28 258.86 121.44C259.32 121.6 259.86 121.32 260.56 120.71L261.05 121.28C260.523 121.814 259.826 122.147 259.08 122.22Z" fill="#365775"/>
<path d="M197.7 139.32C197.7 139.32 180.91 131.75 185.33 121.46C185.579 120.87 185.996 120.365 186.529 120.01C187.063 119.654 187.689 119.463 188.33 119.46C191.27 119.52 196.14 122.33 197.7 139.32Z" fill="white"/>
<path d="M198.56 140.531L197.39 140.001C194.504 138.634 191.814 136.888 189.39 134.811C184.39 130.421 182.71 125.701 184.66 121.171C184.962 120.424 185.483 119.785 186.153 119.339C186.824 118.893 187.614 118.66 188.42 118.671C192.15 118.801 196.93 122.471 198.42 139.251L198.56 140.531ZM188.28 120.171C187.79 120.188 187.315 120.347 186.914 120.63C186.512 120.912 186.202 121.305 186.02 121.76C182.61 129.69 193.17 136.11 196.82 138.04C196.13 131.83 194.09 120.371 188.35 120.171H188.28Z" fill="#79A5CC"/>
<path d="M232.51 219.011C211.93 219.011 190.4 212.731 172.62 207.541C162.62 204.621 154.03 202.111 147.97 201.541C145.137 201.311 142.397 200.42 139.97 198.941C137.61 197.451 136.58 195.891 136.91 194.281C137.45 191.681 141.49 189.61 150.02 187.55C156.77 185.93 165.14 184.631 171.86 183.601L175.72 182.991C155 181.321 63 181.631 0 182.331V180.331C0.45 180.331 45.51 179.831 90.06 179.781C181.01 179.661 181.25 181.241 181.46 182.781C181.61 183.891 180.34 184.221 179.8 184.371C177.63 184.751 174.99 185.161 172.19 185.591C160.85 187.351 139.74 190.591 138.89 194.711C138.7 195.631 140.17 196.711 141.06 197.261C143.216 198.577 145.652 199.369 148.17 199.571C154.41 200.201 163.11 202.741 173.17 205.681C203.83 214.631 245.81 226.891 273.91 203.851C298 184.071 307.33 140.721 301.6 75.0105V74.8505V74.7005C302.93 68.8805 304.51 66.1605 306.71 65.9105C308.91 65.6605 310.83 67.7305 313.24 72.6205L313.32 72.8005L314.45 89.0105L312.45 89.1405L311.38 73.3105C308.78 68.0905 307.38 67.8305 306.96 67.8705C306.54 67.9105 305.09 68.5805 303.61 74.9705C309.37 141.311 299.81 185.191 275.18 205.381C262.81 215.531 247.92 219.011 232.51 219.011Z" fill="#2F80ED"/>
<path d="M306.34 67.2005C306.34 67.2005 299.74 68.8405 296.11 66.8705L306.34 67.2005Z" fill="white"/>
<path d="M301 68.5905C299.203 68.6616 297.416 68.298 295.79 67.5304L296.5 66.2104C299.84 68.0204 306.14 66.4805 306.2 66.4705L306.57 67.9205C304.744 68.3512 302.876 68.5759 301 68.5905Z" fill="#79A5CC"/>
<path opacity="0.17" d="M224.35 151.07C226.819 151.07 228.82 147.489 228.82 143.07C228.82 138.652 226.819 135.07 224.35 135.07C221.881 135.07 219.88 138.652 219.88 143.07C219.88 147.489 221.881 151.07 224.35 151.07Z" fill="#BBD4EF"/>
<path opacity="0.17" d="M218.79 158.91C220.596 158.91 222.06 157.263 222.06 155.23C222.06 153.198 220.596 151.55 218.79 151.55C216.984 151.55 215.52 153.198 215.52 155.23C215.52 157.263 216.984 158.91 218.79 158.91Z" fill="#BBD4EF"/>
<path opacity="0.17" d="M213.94 151.08C215.746 151.08 217.21 149.433 217.21 147.4C217.21 145.368 215.746 143.72 213.94 143.72C212.134 143.72 210.67 145.368 210.67 147.4C210.67 149.433 212.134 151.08 213.94 151.08Z" fill="#BBD4EF"/>
<g opacity="0.17">
<path opacity="0.17" d="M291.86 138.9L289.68 127.01C289.68 127.01 281.35 148.6 278.94 149.55C279.669 152.633 280.141 155.77 280.35 158.93C280.35 162.2 291.86 138.9 291.86 138.9Z" fill="#BBD4EF"/>
</g>
<path opacity="0.17" d="M230 125.83C230 125.83 239.4 135.64 239.53 141.63C239.66 147.62 243.21 159.02 245.8 158.91C248.39 158.8 251.66 100.49 251.25 97.7705C250.84 95.0505 224.61 119.31 230 125.83Z" fill="#BBD4EF"/>
<g opacity="0.17">
<path d="M277.94 75.6105C284.63 78.7605 295.72 90.7005 287.02 123.92C287.02 123.92 298.28 95.5905 296.11 75.6105H277.94Z" fill="#BBD4EF"/>
</g>
<path d="M318.42 95.3905L309 96.2905C308 86.0105 317.44 85.1505 318.42 95.3905Z" fill="white"/>
<path d="M308.55 96.8404L308.5 96.3404C308.21 94.2235 308.558 92.0683 309.5 90.1504C309.826 89.4835 310.311 88.9073 310.913 88.473C311.515 88.0386 312.214 87.7595 312.95 87.6604C315.46 87.4304 318.4 89.7304 318.95 95.3504V95.8404L308.55 96.8404ZM313.29 88.6504H313C311 88.8404 309.14 91.1304 309.44 95.7404L317.85 94.9304C317.698 93.1758 317.057 91.4991 316 90.0904C315.682 89.666 315.274 89.317 314.806 89.0681C314.337 88.8192 313.82 88.6766 313.29 88.6504Z" fill="#2F80ED"/>
<path d="M311.403 95.7396L311.393 95.7401C310.952 95.7637 310.613 96.1404 310.637 96.5816L310.784 99.3576C310.808 99.7988 311.185 100.137 311.626 100.114L311.636 100.113C312.077 100.09 312.416 99.7132 312.392 99.272L312.244 96.4959C312.221 96.0547 311.844 95.7161 311.403 95.7396Z" fill="#2F80ED"/>
<path d="M316 99.7704C315.895 99.7758 315.79 99.7604 315.691 99.7251C315.592 99.6898 315.5 99.6353 315.422 99.5647C315.344 99.4941 315.281 99.4088 315.236 99.3137C315.191 99.2186 315.165 99.1155 315.16 99.0104L315 96.2404C314.989 96.0282 315.064 95.8205 315.206 95.663C315.349 95.5055 315.548 95.411 315.76 95.4004C315.972 95.3898 316.18 95.4639 316.337 95.6064C316.495 95.749 316.589 95.9482 316.6 96.1604L316.75 98.9204C316.758 99.0258 316.745 99.1318 316.712 99.232C316.678 99.3322 316.625 99.4247 316.555 99.504C316.485 99.5833 316.4 99.6477 316.304 99.6934C316.209 99.7392 316.106 99.7654 316 99.7704Z" fill="#2F80ED"/>
<path d="M334.47 97.9404L325.39 115.83H334.47L327.84 129.91L344.01 109.11L334.7 109.19L334.47 97.9404Z" fill="#2F80ED"/>
<path d="M351.611 191.78C351.161 191.782 350.714 191.722 350.281 191.6C347.991 190.98 346.361 189.05 345.561 186.04C343.491 178.17 347.401 163.77 353.181 158.04C355.401 155.84 357.781 155.04 360.071 155.64C361.511 156.03 363.421 157.23 364.341 160.73C366.431 168.63 362.341 183.63 356.541 189.38C355.923 190.092 355.168 190.671 354.321 191.083C353.474 191.496 352.552 191.733 351.611 191.78ZM358.611 157.44C357.845 157.495 357.098 157.699 356.412 158.042C355.726 158.386 355.114 158.861 354.611 159.44C349.331 164.68 345.611 178.32 347.511 185.51C348.131 187.83 349.241 189.22 350.821 189.65C352.181 190.03 353.641 189.45 355.151 187.94C360.461 182.68 364.341 168.44 362.431 161.22C361.891 159.15 360.921 157.92 359.571 157.55C359.248 157.468 358.914 157.431 358.581 157.44H358.611Z" fill="#2F80ED"/>
<path d="M357.021 164.011C354.631 163.361 352.501 171.181 354.891 171.831C357.111 172.411 359.241 164.591 357.021 164.011Z" fill="#2F80ED"/>
<path d="M354.381 174.94C351.991 174.29 349.861 182.101 352.251 182.751C354.471 183.361 356.601 175.54 354.381 174.94Z" fill="#2F80ED"/>
<path d="M358.931 192.07C356.574 192.057 354.226 191.779 351.931 191.24L352.151 190.24C358.581 191.69 364.391 191.12 368.931 188.56C370.868 187.503 372.558 186.046 373.889 184.285C375.22 182.525 376.161 180.502 376.651 178.35C378.471 170.35 373.931 160.29 359.651 157.06L359.871 156.06C366.551 157.58 371.741 160.74 374.871 165.21C376.242 167.115 377.194 169.289 377.662 171.589C378.131 173.888 378.107 176.261 377.591 178.55C376.051 185.65 369.641 192.07 358.931 192.07Z" fill="#2F80ED"/>
<path d="M377.231 187.49C375.742 187.451 374.283 187.064 372.971 186.36L373.421 185.47C377.231 187.38 379.921 186.35 380.801 184.58C381.681 182.81 380.911 180.04 377.101 178.13L377.551 177.24C381.971 179.45 382.801 182.83 381.701 185.03C381.263 185.82 380.612 186.47 379.821 186.905C379.03 187.34 378.132 187.543 377.231 187.49Z" fill="#2F80ED"/>
<path d="M402.271 188.46C394.051 188.46 385.381 187.82 380.881 185.46L381.351 184.57C390.921 189.57 421.441 186.5 421.751 186.47L421.851 187.47C421.161 187.55 412.041 188.46 402.271 188.46Z" fill="#2F80ED"/>
</svg>
