<svg width="16" height="16" viewBox="0 0 16 16" fill="none" xmlns="http://www.w3.org/2000/svg">
<path d="M1.875 8.5H12.25V3.75H1.875V8.5ZM2.8125 4.6875H11.3125V7.5625H2.8125V4.6875Z" fill="#909DB1"/>
<path d="M1.875 9.4375H6.59375V10.375H1.875V9.4375Z" fill="#909DB1"/>
<path d="M1.875 11.3125H6.59375V12.25H1.875V11.3125Z" fill="#909DB1"/>
<path d="M7.53125 14.125H12.25V9.4375H7.53125V14.125ZM8.46875 10.375H11.3125V13.1875H8.46875V10.375Z" fill="#909DB1"/>
<path d="M1.875 13.1875H6.59375V14.125H1.875V13.1875Z" fill="#909DB1"/>
<path d="M1.875 0V1.875H0V14.5938C0 15.3692 0.630844 16 1.40625 16H14.5931C14.5985 16 14.6039 16 14.6093 15.9999C15.3775 15.9915 16 15.3639 16 14.5938V0H1.875ZM1.40625 15.0625C1.14778 15.0625 0.9375 14.8522 0.9375 14.5938V2.8125H13.1875V14.5938C13.1875 14.7562 13.2147 14.9141 13.267 15.0625H1.40625ZM15.0625 14.5938C15.0625 14.8492 14.8572 15.0575 14.6029 15.0624C14.4749 15.065 14.3573 15.0177 14.2669 14.9298C14.1754 14.8407 14.125 14.7214 14.125 14.5938V1.875H2.8125V0.9375H15.0625V14.5938Z" fill="#909DB1"/>
</svg>
