<?xml version="1.0" encoding="utf-8"?>
<!-- Svg Vector Icons : http://www.onlinewebfonts.com/icon -->
<!DOCTYPE svg PUBLIC "-//W3C//DTD SVG 1.1//EN" "http://www.w3.org/Graphics/SVG/1.1/DTD/svg11.dtd">
<svg version="1.1" xmlns="http://www.w3.org/2000/svg" xmlns:xlink="http://www.w3.org/1999/xlink" x="0px" y="0px" viewBox="0 0 1000 1000" enable-background="new 0 0 1000 1000" xml:space="preserve">
<metadata> Svg Vector Icons : http://www.onlinewebfonts.com/icon </metadata>
<g><path d="M739.9,579.4c0.8,4.6,0.8,9.1-0.8,15.2c-0.8,6.1-3,12.2-5.3,18.2c-2.3,6.1-5.3,11.4-9.1,16.7c-3.8,4.6-7.6,8.4-11.4,10.6c-4.6,2.3-7.6,3-11.4,3c-3,0-6.8-0.8-10.6-2.3c-3.8-0.8-7.6-2.3-12.9-3c-5.3-0.8-10.6-0.8-16-0.8c-5.3,0.8-10.6,1.5-16,3c-4.6,2.3-9.1,5.3-13.7,9.9c-8.4,9.1-13.7,19-14.4,29.7c-1.5,11.4,0,22,4.6,31.9c3.8,6.8,3,13.7-1.5,21.3c-2.3,3-5.3,5.3-9.9,8.4s-9.9,5.3-15.2,8.4c-5.3,2.3-11.4,4.6-16.7,6.1c-6.1,1.5-11.4,2.3-16,2.3c-3,0-6.1-1.5-9.1-3.8c-3-2.3-4.6-5.3-6.1-7.6h-0.8c-3.8-10.6-10.6-20.5-19.8-28.1c-9.1-7.6-19.8-12.2-31.9-12.2s-22.8,3.8-31.9,12.2c-9.9,7.6-16.7,16.7-20.5,27.4c-1.5,4.6-4.6,7.6-7.6,9.1s-7.6,3-11.4,3c-4.6,0-10.6-0.8-16.7-2.3c-6.1-1.5-12.2-3.8-18.2-6.8c-6.1-2.3-11.4-5.3-16.7-9.1c-4.6-3.8-8.4-6.8-11.4-10.6c-1.5-2.3-3-5.3-3-8.4s0.8-7.6,3.8-13.7c3.8-8.4,5.3-17.5,4.6-27.4c-0.8-10.6-5.3-19.8-13.7-28.9c-4.6-5.3-10.6-8.4-17.5-9.9c-6.8-1.5-13.7-2.3-19.8-1.5c-7.6,0-15.2,1.5-22.8,4.6c-4.6,1.5-9.9,0.8-14.4-0.8c-3.8-1.5-7.6-4.6-10.6-9.9c-3-5.3-6.1-10.6-9.1-16.7c-2.3-6.1-4.6-12.2-6.1-19c-1.5-6.8-1.5-12.2-0.8-16c0.8-7.6,4.6-12.9,10.6-14.4c10.6-4.6,19.8-11.4,28.1-20.5c8.4-9.9,12.9-20.5,12.9-32.7c0-12.2-4.6-22.8-12.9-31.9c-8.4-9.1-17.5-16-28.1-19.8c-3-0.8-6.1-3.8-7.6-7.6c-2.3-3.8-3-8.4-3-12.2c0-4.6,0.8-9.9,2.3-15.2c1.5-5.3,3-11.4,5.3-16c2.3-5.3,4.6-9.9,7.6-14.4c3-4.6,6.1-7.6,9.9-9.9c3-1.5,5.3-2.3,8.4-2.3c2.3,0,5.3,0.8,8.4,2.3c10.6,4.6,21.3,5.3,32.7,3.8c11.4-1.5,21.3-6.8,30.4-15.2c4.6-4.6,7.6-9.1,9.1-15.2c2.3-6.1,3-12.2,3.8-18.2c0.8-6.1,0.8-11.4,0-16c-0.8-4.6-0.8-8.4-1.5-10.6c-0.8-2.3-1.5-4.6-1.5-7.6c-0.8-3,0-5.3,0.8-7.6c2.3-4.6,6.1-9.1,11.4-12.9s11.4-6.8,17.5-9.1c6.1-2.3,12.2-4.6,18.2-5.3c6.1-1.5,10.6-1.5,14.4-1.5c4.6,0,8.4,1.5,10.6,4.6s4.6,6.1,5.3,9.1c3.8,9.1,9.9,17.5,19,25.1c9.1,6.8,19,10.6,31.2,10.6c12.2,0,22.8-3,32.7-9.9c9.1-6.8,16-15.2,19.8-25.8c1.5-3,3.8-5.3,6.8-8.4s6.1-4.6,9.1-4.6c4.6,0,9.9,0.8,16,2.3s11.4,3,16.7,6.1c5.3,2.3,10.6,5.3,15.2,9.1c4.6,3.8,8.4,8.4,11.4,12.9c1.5,3,2.3,6.1,1.5,9.1c-0.8,3-1.5,5.3-2.3,6.8c-4.6,9.9-6.1,20.5-4.6,31.9s6.8,21.3,15.2,29.7c8.4,8.4,19,12.9,31.2,13.7c12.2,0.8,23.6-0.8,34.2-6.1c3-1.5,6.1-2.3,9.9-2.3c3.8,0,7.6,2.3,9.9,4.6c5.3,4.6,9.9,12.2,13.7,22c3.8,9.9,6.8,19.8,8.4,30.4c0.8,6.1,0,10.6-3,13.7c-2.3,3-5.3,5.3-8.4,6.8c-10.6,3.8-19.8,10.6-28.1,20.5c-7.6,9.9-11.4,20.5-11.4,32.7c0,12.2,3,22,9.9,31.2c6.8,9.1,15.2,15.2,25.8,19c2.3,1.5,4.6,3,6.1,4.6C736.1,570.3,739.1,574.9,739.9,579.4L739.9,579.4z M495.8,626.6c16,0,30.4-3,44.9-9.1c13.7-6.1,25.8-14.4,36.5-25.1c10.6-10.6,18.2-22.8,24.3-36.5c6.1-13.7,9.1-28.9,9.1-44.1c0-16-3-30.4-9.1-44.1c-6.1-13.7-14.4-25.9-24.3-36.5c-10.6-10.6-22.8-18.2-36.5-24.3s-28.9-9.1-44.9-9.1c-16,0-30.4,3-44.1,9.1c-13.7,6.1-25.8,14.4-36.5,24.3c-10.6,10.6-18.2,22.8-24.3,36.5c-6.1,13.7-9.1,28.9-9.1,44.1c0,16,3,30.4,9.1,44.1c6.1,13.7,14.4,25.8,24.3,36.5c10.6,10.6,22,19,36.5,25.1C465.4,623.5,479.9,626.6,495.8,626.6L495.8,626.6z"/><path d="M10,501.9c0,268.7,217.8,486.6,486.6,486.6c268.7,0,486.6-217.8,486.6-486.6c0-268.7-217.8-486.6-486.6-486.6C227.8,15.3,10,233.2,10,501.9L10,501.9z"/><path d="M13.8,498.1c0,268.7,217.8,486.6,486.6,486.6c268.7,0,486.6-217.8,486.6-486.6c0-268.7-217.8-486.6-486.6-486.6C231.6,11.5,13.8,229.4,13.8,498.1L13.8,498.1z"/><path d="M496.6,191.7c11.4,0,22.8,1.5,34.2,3.8c11.4,2.3,22,6.1,31.9,10.6c9.9,4.6,19,9.1,26.6,15.2c7.6,5.3,13.7,11.4,18.2,16.7c10.6,12.9,18.2,26.6,22.8,41.8c4.6,15.2,8.4,29.7,9.9,44.1c2.3,16,3,31.9,3,47.9c3,2.3,5.3,4.6,6.8,7.6s3,6.1,3.8,10.6c0.8,4.6,0.8,9.9,0,16c-0.8,8.4-2.3,15.2-5.3,19.8c-2.3,5.3-5.3,9.1-8.4,11.4c-3.8,3-7.6,5.3-11.4,6.8c-2.3,6.8-3.8,12.9-6.1,19c-2.3,5.3-4.6,9.9-6.8,15.2c-2.3,5.3-5.3,9.1-8.4,11.4c-7.6,6.1-13.7,10.6-18.2,15.2c-4.6,3.8-7.6,11.4-9.9,21.3c-1.5,6.1-1.5,12.2-1.5,18.2c0.8,6.1,2.3,12.2,5.3,18.2s7.6,12.2,13.7,17.5c6.1,5.3,14.4,10.6,25.8,15.2c9.9,3.8,20.5,7.6,32.7,10.6c11.4,3,22.8,6.8,34.2,10.6c11.4,3.8,21.3,9.1,29.7,15.2s14.4,14.4,18.2,25.1c2.3,6.1,3.8,14.4,4.6,23.6c0.8,9.1,1.5,19,1.5,28.1c0,9.1-0.8,18.2-2.3,26.6c-1.5,8.4-3.8,14.4-6.1,19c-2.3,3-7.6,5.3-16.7,8.4s-20.5,5.3-34.2,8.4c-13.7,2.3-28.9,4.6-45.6,6.8c-16.7,2.3-34.2,3.8-50.9,5.3c-16.7,1.5-33.5,2.3-49.4,3c-16,0.8-29.7,1.5-41.1,1.5c-11.4,0-25.1-0.8-40.3-1.5c-15.2-0.8-31.2-1.5-47.1-3c-16-1.5-32.7-3-48.7-4.6c-16-1.5-30.4-3.8-44.1-5.3c-12.9-2.3-24.3-3.8-33.5-6.1c-9.1-2.3-15.2-3.8-17.5-6.1c-3.8-3-6.8-12.9-9.1-28.9c-2.3-16-1.5-37.3,3-63.1c2.3-14.4,7.6-25.9,17.5-33.5c9.9-7.6,21.3-13.7,34.2-18.2c12.9-4.6,26.6-8.4,40.3-12.2c13.7-3.8,25.8-8.4,37.3-15.2c8.4-5.3,14.4-9.9,19-15.2c4.6-4.6,7.6-9.9,9.9-14.4s3-9.9,3-15.2c0-5.3,0-10.6-0.8-17.5c-0.8-9.1-3.8-16.7-9.9-22c-5.3-5.3-11.4-10.6-18.2-16.7c-3-3-6.1-6.8-8.4-11.4c-2.3-5.3-4.6-9.9-6.8-15.2c-2.3-6.1-3.8-12.2-6.1-19c-3-0.8-5.3-2.3-8.4-3.8c-2.3-2.3-5.3-4.6-7.6-8.4c-3-3.8-5.3-8.4-6.8-15.2c-2.3-6.8-3-12.9-3-18.2c0.8-5.3,1.5-10.6,3-14.4c1.5-4.6,3.8-8.4,7.6-12.2c-0.8-15.2,0.8-30.4,2.3-45.6c1.5-12.9,4.6-26.6,8.4-41.1c3.8-14.4,10.6-28.1,19-39.5c7.6-11.4,16-20.5,25.1-27.4c9.1-6.8,19-12.2,28.9-16.7c9.9-3.8,19.8-6.8,28.9-8.4C478.3,192.5,487.5,191.7,496.6,191.7L496.6,191.7z"/><path d="M13.8,498.1c0,268.7,217.8,486.6,486.6,486.6c268.7,0,486.6-217.8,486.6-486.6c0-268.7-217.8-486.6-486.6-486.6C231.6,11.5,13.8,229.4,13.8,498.1L13.8,498.1z"/><path d="M739.1,316.4c1.5,3,3,6.8,3.8,11.4c0.8,4.6,1.5,9.1,1.5,13.7c0,4.6-0.8,9.9-3,14.4c-1.5,4.6-4.6,9.1-9.1,13.7c-4.6,4.6-8.4,8.4-12.2,11.4c-3.8,3-6.8,6.1-9.1,9.1c-3,3-6.1,5.3-8.4,7.6L599.2,294.3c4.6-3.8,9.9-9.1,16-14.4c6.1-6.1,11.4-9.9,15.2-13.7c5.3-3.8,10.6-6.8,16-8.4c5.3-1.5,10.6-2.3,16.7-2.3c5.3,0,10.6,0.8,15.2,2.3c5.3,1.5,9.1,3,12.9,5.3c7.6,3.8,16.7,11.4,25.8,21.3C726.9,294.3,733.8,305,739.1,316.4L739.1,316.4z M307.3,587.1c2.3-2.3,7.6-7.6,15.2-16c8.4-8.4,18.2-18.2,30.4-30.4l40.3-40.3l44.9-44.9l119.4-119.4l103.4,104.2L542.2,558.9l-44.1,44.9c-14.4,14.4-28.1,27.4-40.3,39.5c-12.2,12.2-21.3,22-29.7,29.7c-7.6,7.6-12.2,12.2-13.7,13.7c-3.8,3-7.6,6.8-12.9,10.6c-4.6,3.8-9.9,6.8-15.2,9.1c-5.3,2.3-12.9,6.1-22.8,9.1c-9.9,3.8-20.5,7.6-31.2,10.6c-10.6,3.8-21.3,6.8-31.2,9.1c-9.9,2.3-16.7,4.6-22,5.3c-9.9,0.8-16.7,0-19.8-4.6c-3-3.8-4.6-10.6-3-20.5c0.8-5.3,2.3-12.9,5.3-22.8c3-9.9,6.1-19.8,9.1-30.4c3-10.6,6.1-20.5,9.1-28.9c3-9.1,5.3-15.2,6.8-18.2c2.3-5.3,4.6-9.9,7.6-14.4C298.1,596.9,301.9,591.6,307.3,587.1L307.3,587.1z"/><path d="M13.8,498.1c0,268.7,217.8,486.6,486.6,486.6c268.7,0,486.6-217.8,486.6-486.6c0-268.7-217.8-486.6-486.6-486.6C231.6,11.5,13.8,229.4,13.8,498.1L13.8,498.1z"/><path d="M764.2,278.4v341.4l-114,98.1H276.9V278.4H764.2L764.2,278.4z M618.2,571.1H349.8v48.7h268.4V571.1L618.2,571.1z M691.2,473.8H349.8v48.7h341.4V473.8L691.2,473.8z M691.2,375.7H349.8v49.4h341.4V375.7L691.2,375.7z"/><path d="M16.8,498.1c0,268.7,217.8,486.6,486.6,486.6c268.7,0,486.6-217.8,486.6-486.6c0-268.7-217.8-486.6-486.6-486.6C234.7,11.5,16.8,229.4,16.8,498.1L16.8,498.1z"/><path d="M579.4,276.9c9.1,2.3,16.7,6.8,22.8,14.4c6.1,7.6,9.1,17.5,9.9,28.9c0,3.8,0,9.1,0.8,16.7c0.8,7.6,0.8,15.2,0.8,23.6s0,16-0.8,22.8c-0.8,6.8-1.5,10.6-3,12.2c-3,2.3-5.3,3.8-7.6,3.8c-2.3,0-3,0.8-3,3c0,1.5,0,5.3-0.8,12.2c-0.8,6.8-2.3,16.7-5.3,29.7c-1.5,6.8-3.8,12.9-6.8,18.2c-3,5.3-6.1,9.9-9.1,14.4c-3.8,4.6-7.6,9.1-12.2,12.9c-0.8,5.3-0.8,9.9-0.8,14.4v12.2c0,4.6,0,7.6,0.8,9.9c0.8,4.6,1.5,8.4,3.8,9.9c2.3,2.3,6.1,3.8,12.2,5.3c2.3,0.8,5.3,2.3,10.6,3.8c5.3,1.5,11.4,3.8,18.2,6.1c6.8,2.3,14.4,5.3,22,8.4s15.2,5.3,22,8.4c6.8,2.3,13.7,4.6,19,6.8c5.3,2.3,9.9,3.8,12.2,5.3c7.6,3.8,12.9,8.4,16,12.2c2.3,4.6,4.6,9.9,6.8,16.7c0.8,3.8,1.5,9.9,3,19.8c1.5,9.1,3,19,4.6,29.6c1.5,10.6,3,19.8,3.8,28.9c0.8,9.1,1.5,14.4,2.3,17.5c0.8,5.3-0.8,9.1-3,12.9c-2.3,3.8-6.8,6.1-15.2,8.4c-6.8,1.5-16.7,3-29.6,5.3c-12.9,1.5-27.4,3.8-44.9,5.3c-16.7,1.5-35.7,3-56.3,3.8c-20.5,0.8-41.8,1.5-64.6,1.5c-22.8,0-44.1-0.8-64.6-1.5c-20.5-0.8-39.5-1.5-56.3-3c-17.5-1.5-32.7-3-45.6-4.6c-12.9-1.5-23.6-3.8-31.2-5.3c-1.5-0.8-3.8-1.5-6.1-2.3c-2.3-1.5-4.6-3-6.8-4.6s-3.8-3.8-5.3-6.8c-1.5-2.3-1.5-5.3-1.5-8.4c0.8-3,1.5-9.1,3-19c1.5-9.9,3.8-19.8,6.1-31.2c2.3-11.4,4.6-21.3,6.8-31.2c2.3-9.9,3-16,3.8-18.2c1.5-4.6,3.8-9.9,6.8-14.4c3-5.3,8.4-10.6,15.2-16c3.8-3,9.9-6.1,19.8-9.1c9.1-3,19-6.1,29.7-9.1s19.8-5.3,28.9-6.8c9.1-2.3,15.2-3,17.5-3.8c6.1-1.5,11.4-3,16-4.6c4.6-1.5,6.8-4.6,6.8-7.6v-34.2c-4.6-3.8-8.4-7.6-12.2-12.2c-3.8-3.8-6.8-7.6-10.6-12.9c-3.8-4.6-6.8-9.9-9.1-16c-5.3-10.6-9.1-20.5-10.6-29.7c-1.5-9.1-2.3-14.4-3-16s-1.5-3-4.6-3.8c-2.3-0.8-4.6-3-5.3-6.1c-3-6.8-4.6-13.7-4.6-21.3s0.8-18.2,1.5-31.9c1.5-13.7,3.8-27.4,6.8-39.5c3-12.9,10.6-24.3,22-35c6.1-5.3,13.7-9.1,23.6-12.9c9.9-3,19.8-6.1,30.4-7.6c10.6-1.5,19.8-2.3,29.6-2.3c9.1,0,16,0.8,21.3,1.5c5.3,1.5,9.1,3,12.2,5.3c3,1.5,5.3,3.8,7.6,5.3c1.5,1.5,3,3,4.6,4.6s2.3,2.3,3.8,3c2.3,1.5,4.6,2.3,7.6,1.5C566.5,274.6,571.8,275.3,579.4,276.9L579.4,276.9z M525.5,601.5l16,61.6l25.8-69.9l-25.1-17.5L525.5,601.5z M482.1,574.1l-23.6,19l26.6,69.9l14.4-62.3L482.1,574.1z M693.5,342.2c5.3,0.8,9.9,3.8,13.7,8.4c3,4.6,5.3,10.6,5.3,17.5c0,2.3,0,5.3,0.8,9.9c0,4.6,0,9.1,0,13.7c0,4.6,0,9.1-0.8,13.7c-0.8,3.8-0.8,6.8-1.5,7.6c-1.5,1.5-3,2.3-4.6,2.3s-2.3,0.8-2.3,2.3c0,0.8,0,3,0,7.6c0,3.8-1.5,9.9-3,18.2c-0.8,3.8-2.3,7.6-3.8,10.6s-3,6.1-5.3,8.4c-2.3,3-4.6,5.3-6.8,7.6c-0.8,3-0.8,6.1-0.8,9.1v13.7c0.8,3,1.5,4.6,2.3,6.1c1.5,1.5,3.8,2.3,6.8,3c1.5,0.8,5.3,1.5,11.4,3.8c6.1,2.3,12.2,4.6,19,6.8c6.8,2.3,13.7,4.6,19,6.8c6.1,2.3,9.9,3.8,12.2,5.3c4.6,2.3,8.4,4.6,9.9,7.6c1.5,2.3,3,6.1,3.8,10.6c0.8,2.3,0.8,6.1,1.5,11.4c0.8,5.3,1.5,11.4,2.3,17.5c0.8,6.1,1.5,12.2,2.3,17.5c0.8,5.3,1.5,8.4,1.5,9.9c0.8,3,0,6.1-1.5,8.4c-1.5,2.3-4.6,3.8-9.1,4.6c-3.8,0.8-9.1,1.5-15.2,3s-14.4,2.3-25.1,3c-0.8-4.6-2.3-9.1-3.8-13.7c-1.5-3.8-2.3-8.4-3.8-12.2c-1.5-4.6-3.8-8.4-6.1-11.4c-4.6-6.1-9.1-10.6-13.7-14.4c-4.6-3.8-9.1-6.8-14.4-9.1c-4.6-2.3-9.1-4.6-14.4-5.3c-4.6-1.5-9.1-3-14.4-4.6c-19.8-6.8-36.5-12.2-48.7-14.4c-12.2-3-19-5.3-20.5-6.8c-0.8-1.5-1.5-2.3-1.5-3.8s0-3,0-5.3c0-2.3,0-3.8,0.8-6.8c5.3-1.5,9.9-2.3,12.2-3c3-0.8,4.6-0.8,6.8-1.5c3-0.8,6.1-1.5,9.1-3c3-0.8,3.8-2.3,3.8-4.6v-20.5l-1.5-0.8l-0.8-3.8c-0.8-0.8-1.5-1.5-2.3-3c2.3-5.3,4.6-11.4,6.8-18.2c2.3-6.1,3.8-13.7,6.1-22.8c2.3-9.1,3.8-19.8,5.3-32.7c1.5-9.9,2.3-19,2.3-26.6c0.8-7.6,0.8-14.4,0.8-20.5v-18.2c4.6-0.8,9.9-1.5,15.2-1.5c5.3,0,9.9,0.8,12.9,1.5c6.8,2.3,10.6,3.8,12.2,6.1s3,3.8,4.6,4.6c1.5,0.8,3,0.8,5.3,0.8C685.1,341.5,688.9,341.5,693.5,342.2L693.5,342.2z M663.1,532.3l3.8,16l10.6,3.8l8.4-21.3l-12.2-10.6L663.1,532.3z M632.7,521.7l-10.6,9.9l0.8,2.3l18.2,5.3l2.3-6.8L632.7,521.7z M369.6,329.3c-6.1-0.8-12.9-0.8-19-0.8c-5.3,0.8-11.4,1.5-18.2,3c-6.8,1.5-12.2,4.6-18.2,8.4c-4.6,3-8.4,6.8-11.4,11.4c-3,4.6-4.6,9.1-6.1,13.7c-1.5,4.6-2.3,9.1-3,12.9s-0.8,6.8-0.8,9.1c-0.8,5.3-0.8,9.9-1.5,13.7c-0.8,3.8,0,7.6,0.8,10.6s1.5,5.3,1.5,6.8c0.8,1.5,1.5,2.3,2.3,3c1.5,0.8,2.3,1.5,3,1.5s1.5,3,2.3,8.4s1.5,9.9,3.8,15.2c2.3,4.6,4.6,9.1,6.8,12.2c1.5,2.3,3,3.8,4.6,5.3c1.5,1.5,3.8,3.8,5.3,5.3c1.5,2.3,3.8,3.8,6.1,6.1v6.8v9.9c-0.8,2.3-1.5,4.6-3,6.1c-1.5,1.5-3.8,3-8.4,3.8c-2.3,0.8-5.3,1.5-9.9,2.3c-4.6,1.5-9.1,2.3-14.4,3.8c-5.3,1.5-10.6,3-16,4.6s-9.9,3-12.9,3.8c-11.4,5.3-18.2,15.2-20.5,28.1c-1.5,6.1-3,14.4-5.3,23.6c-2.3,9.1-3,16-3.8,19.8c-0.8,3.8-0.8,8.4,0,12.2c0.8,4.6,4.6,6.8,9.9,8.4c3,0.8,6.1,1.5,10.6,1.5c3.8,0.8,8.4,0.8,12.2,1.5c4.6,0.8,9.1,1.5,13.7,1.5c0.8-4.6,2.3-9.1,3.8-14.4c1.5-4.6,3-8.4,5.3-12.9s4.6-8.4,8.4-12.2c3-3.8,6.8-6.8,11.4-10.6c4.6-3,9.1-6.8,13.7-9.9c4.6-3.8,9.9-6.8,15.2-9.9l-6.1-14.4l12.9-9.9l13.7,15.2l6.8-1.5c0.8,0,2.3-0.8,3.8-1.5c0.8-0.8,1.5-0.8,2.3-0.8l11.4-12.9l9.9,8.4c2.3-0.8,3.8-0.8,5.3-1.5c1.5-0.8,3-0.8,5.3-1.5l6.1-1.5c4.6-0.8,8.4-1.5,10.6-2.3c3-0.8,4.6-3,5.3-6.1c0-1.5,0-3,0-3.8c0-0.8,0-1.5,0-3v-1.5c-3.8-1.5-6.8-2.3-9.9-3.8l-8.4-2.3c-3-0.8-4.6-1.5-6.8-2.3c-3-1.5-4.6-3-5.3-5.3c-0.8-2.3-0.8-5.3-0.8-8.4v-6.1c0-2.3,0-3.8,0.8-6.1c0-2.3,0-4.6,0.8-6.8c-3-4.6-6.1-9.9-9.1-15.2c-3-4.6-5.3-9.9-8.4-16c-2.3-6.1-4.6-12.2-6.1-19c-2.3-9.1-3-19-3.8-28.9c-0.8-10.6-0.8-19.8-0.8-28.1C367.3,349.1,368.1,339.2,369.6,329.3L369.6,329.3z"/><path d="M13.8,498.1c0,268.7,217.8,486.6,486.6,486.6c268.7,0,486.6-217.8,486.6-486.6c0-268.7-217.8-486.6-486.6-486.6C231.6,11.5,13.8,229.4,13.8,498.1L13.8,498.1z"/><path d="M508.7,216c0.8,0,2.3-0.8,3-1.5c2.3-1.5,6.1-4.6,10.6-9.1c5.3-4.6,10.6-8.4,16-10.6c5.3-2.3,12.2-1.5,20.5,2.3c4.6,1.5,7.6,3,10.6,5.3c2.3,2.3,5.3,4.6,7.6,6.8c2.3,2.3,5.3,3.8,7.6,5.3c3,1.5,6.1,2.3,10.6,2.3c4.6,0,8.4-0.8,11.4-2.3s6.1-2.3,9.1-3.8c3-0.8,5.3-1.5,8.4-2.3c3-0.8,6.1,0,9.9,1.5c4.6,1.5,7.6,4.6,9.1,7.6s2.3,6.8,1.5,9.9c-0.8,3.8-2.3,6.8-4.6,10.6c-2.3,3.8-5.3,6.1-9.1,8.4c-8.4,5.3-14.4,10.6-19,16c-4.6,5.3-8.4,11.4-12.9,17.5c-2.3,3-4.6,6.8-6.8,10.6c-2.3,3.8-5.3,7.6-6.8,11.4c-2.3,4.6-5.3,9.1-8.4,13.7H441.1c-3-5.3-6.1-9.9-9.1-15.2c-2.3-4.6-5.3-8.4-8.4-12.9c-3-4.6-5.3-8.4-7.6-11.4c-4.6-6.8-9.1-12.2-14.4-17.5c-5.3-5.3-10.6-9.1-16-13.7c-5.3-3.8-9.9-9.1-11.4-16c-2.3-6.8,0-12.2,6.1-17.5c3-2.3,6.8-3,10.6-2.3c3.8,0.8,8.4,1.5,12.2,2.3c4.6,1.5,8.4,2.3,12.9,3.8c3.8,1.5,7.6,1.5,11.4,0.8c6.1-1.5,10.6-3.8,13.7-6.8c3-3,8.4-7.6,16-12.2c5.3-3.8,12.2-4.6,19-3.8c6.8,0.8,12.2,3,16,6.8c1.5,2.3,3.8,3.8,5.3,5.3c2.3,1.5,3.8,3,6.1,4.6C503.4,213,505.7,214.5,508.7,216L508.7,216z M581.7,346c5.3,6.8,11.4,14.4,19.8,22.8c6.8,7.6,14.4,16,24.3,25.1c9.9,9.1,20.5,19,33.5,29.7c10.6,9.1,21.3,19.8,31.9,31.9c11.4,12.2,20.5,26.6,28.9,43.3c8.4,16.7,13.7,35.7,17.5,57c3,21.3,3,45.6-1.5,72.2c-3.8,22-11.4,41.8-22.8,61.6c-11.4,19-26.6,35.7-45.6,50.2c-19,14.4-41.8,25.8-67.7,34.2c-25.8,8.4-56.3,12.9-89.7,12.9c-34.2,0-64.6-4.6-91.2-14.4c-26.6-9.9-48.7-22.8-67.7-38c-18.2-16-32.7-32.7-44.1-52.5c-10.6-19-18.2-38.8-21.3-57.8c-3.8-21.3-4.6-41.8-1.5-60.8c3-19.8,7.6-38,15.2-54.7c7.6-17.5,16.7-32.7,27.4-47.1c11.4-14.4,22.8-27.4,35.7-38c11.4-9.9,21.3-19.8,30.4-28.1c9.1-9.1,16.7-16.7,22.8-24.3c7.6-8.4,13.7-16,19.8-23.6h146V346z M513.3,545.2l-17.5-17.5l-13.7-13.7c-4.6-4.6-7.6-7.6-9.1-9.9c-3.8-3-8.4-5.3-13.7-7.6s-10.6-0.8-14.4,3.8c-3.8,4.6-4.6,9.1-2.3,13.7c1.5,4.6,3.8,8.4,6.1,10.6l9.9,9.1c4.6,5.3,9.9,10.6,16,16.7c6.8,6.8,13.7,14.4,21.3,22l-0.8,13.7H451c-3.8,0-7.6,1.5-9.9,4.6c-3,3-4.6,6.1-4.6,9.9c0,3.8,1.5,6.8,3.8,9.1c2.3,2.3,6.1,3.8,10.6,3.8h44.1v22.8H451c-3.8,0-7.6,1.5-9.9,3.8c-3,2.3-4.6,5.3-4.6,9.1c-0.8,3.8,0.8,6.1,3.8,9.1c3,2.3,6.1,3.8,10.6,3.8h44.1v12.9c0.8,6.1,2.3,10.6,6.1,12.9c3.8,2.3,7.6,3.8,12.9,3.8c5.3,0.8,9.1-1.5,12.9-4.6c3-3.8,4.6-7.6,4.6-11.4v-12.9h45.6c4.6,0,7.6-0.8,10.6-3c3-2.3,3.8-5.3,3.8-9.1c0-9.1-6.1-13.7-18.2-13.7h-42.6l0.8-22l42.6-0.8c6.1,0.8,10.6-0.8,12.9-3.8c2.3-3,3.8-6.1,3.8-9.9c0-3.8-1.5-6.8-4.6-9.1c-3-3-7.6-4.6-13.7-4.6h-41.8v-12.9c7.6-6.8,14.4-13.7,20.5-20.5c5.3-5.3,10.6-10.6,16-16c5.3-5.3,9.1-9.1,11.4-11.4c9.9-8.4,12.2-16,6.8-22.8c-3-3.8-6.8-6.1-11.4-6.1s-9.1,1.5-12.9,5.3c-2.3,1.5-6.1,4.6-11.4,9.1c-5.3,4.6-10.6,9.1-16,13.7C527,532.3,520.1,538.4,513.3,545.2L513.3,545.2z"/><path d="M13.8,498.1c0,268.7,217.8,486.6,486.6,486.6c268.7,0,486.6-217.8,486.6-486.6c0-268.7-217.8-486.6-486.6-486.6C231.6,11.5,13.8,229.4,13.8,498.1L13.8,498.1z"/><path d="M514.1,683.6c0,13.7,3,25.1,9.9,35c6.8,9.9,14.4,16,24.3,18.2c-11.4,0.8-22,1.5-31.9,1.5c-9.9,0-19,0.8-27.4,0.8c-10.6,0-22.8,0-36.5-0.8c-13.7-0.8-28.1-1.5-42.6-3c-14.4-1.5-29.7-3-43.3-4.6c-14.4-1.5-27.4-3-39.5-5.3c-12.2-1.5-22-3.8-30.4-5.3c-8.4-1.5-13.7-3.8-16-5.3c-3.8-3-6.8-11.4-9.1-26.6c-2.3-14.4-1.5-34.2,2.3-57.8c1.5-9.1,4.6-16.7,9.1-22c4.6-6.1,9.9-10.6,16.7-14.4c6.8-3.8,13.7-7.6,21.3-9.9c7.6-2.3,16-4.6,24.3-7.6c8.4-2.3,16-4.6,24.3-7.6c7.6-3,14.4-6.1,21.3-9.9c7.6-4.6,13.7-9.1,17.5-13.7c3.8-4.6,6.8-8.4,8.4-12.9s2.3-9.1,2.3-13.7c0-4.6,0-9.9-0.8-16c-0.8-8.4-3.8-14.4-8.4-19.8c-4.6-4.6-10.6-9.9-16.7-14.4c-3-2.3-5.3-6.1-7.6-10.6c-2.3-4.6-4.6-9.1-6.1-13.7c-1.5-5.3-3.8-11.4-5.3-17.5c-2.3-0.8-5.3-2.3-7.6-3.8c-2.3-1.5-4.6-4.6-6.8-7.6s-4.6-7.6-6.8-13.7c-1.5-6.1-2.3-11.4-1.5-16.7c0.8-5.3,1.5-9.1,3-12.9s3.8-7.6,6.8-11.4c0-13.7,0-27.4,2.3-41.1c1.5-11.4,4.6-23.6,8.4-37.3c3.8-12.9,9.1-25.1,16.7-35.7c6.8-9.9,14.4-18.2,22.8-24.3c8.4-6.1,16.7-11.4,25.8-14.4c9.1-3.8,17.5-6.1,26.6-7.6c9.1-1.5,17.5-1.5,25.9-1.5c10.6,0,20.5,1.5,31.2,3.8c9.9,2.3,19.8,5.3,28.9,9.1c9.1,3.8,16.7,8.4,24.3,13.7c6.8,5.3,12.9,9.9,16.7,15.2c9.1,11.4,16,24.3,20.5,38s7.6,27.4,9.1,39.5c2.3,14.4,3,28.9,3,43.3c2.3,1.5,4.6,3.8,6.1,6.8c1.5,2.3,2.3,6.1,3.8,9.9c0.8,3.8,0.8,9.1,0,14.4c-0.8,7.6-3,13.7-5.3,18.2c-2.3,4.6-4.6,8.4-7.6,10.6c-3,3-6.8,4.6-9.9,6.1c-1.5,6.1-3.8,12.2-5.3,17.5c-1.5,4.6-3.8,9.1-6.1,13.7c-2.3,4.6-4.6,8.4-7.6,10.6c-3.8,3-6.8,5.3-9.9,7.6s-5.3,3.8-7.6,6.8c-2.3,2.3-3.8,5.3-5.3,7.6c-1.5,3-2.3,6.8-3,11.4c-0.8,5.3-0.8,10.6-0.8,16.7c0,5.3,1.5,11.4,4.6,16.7c3,5.3,6.8,10.6,12.2,16c5.3,5.3,13.7,9.9,23.6,13.7c2.3,0.8,3.8,1.5,5.3,1.5v20.5v16.7c-1.5,0-4.6,0.8-8.4,0.8h-36.5c-32.7,0-49.4,12.9-49.4,39.5v38.8H514.1z M780.9,651.7c5.3,3.8,7.6,9.1,7.6,16.7c0,6.8-1.5,12.2-5.3,15.2c-6.1,4.6-14.4,9.9-24.3,16.7c-9.9,6.1-20.5,12.9-31.2,19.8c-10.6,6.8-21.3,12.9-31.9,19.8c-9.9,6.8-18.2,12.2-25.1,17.5c-8.4,6.8-14.4,10.6-18.2,10.6c-3.8,0-6.1-5.3-6.1-15.2v-26.6c0-6.8-1.5-12.2-4.6-15.2s-7.6-4.6-12.9-4.6H565c-5.3,0-9.9-1.5-13.7-3.8c-3.8-3-5.3-7.6-5.3-13.7v-26.6c0-10.6,1.5-17.5,5.3-19.8c3-2.3,9.9-3.8,18.2-3.8c4.6,0,7.6,0,9.9,0c2.3,0,5.3,0,9.1,0c3.8,0,8.4,0,13.7,0c5.3,0,12.9,0,22.8,0c7.6,0,13.7-3,16.7-8.4c3-5.3,4.6-11.4,4.6-18.2v-25.9c0-6.8,1.5-11.4,4.6-13.7c3-2.3,7.6-0.8,13.7,4.6c6.1,5.3,14.4,10.6,25.1,17.5c10.6,6.8,21.3,12.9,32.7,19.8c11.4,6.8,22,13.7,32.7,20.5C765.7,640.3,774.1,646.4,780.9,651.7L780.9,651.7z"/><path d="M13.8,498.1c0,268.7,217.8,486.6,486.6,486.6c268.7,0,486.6-217.8,486.6-486.6c0-268.7-217.8-486.6-486.6-486.6C231.6,11.5,13.8,229.4,13.8,498.1L13.8,498.1z"/><path d="M319.4,631.1c0,9.9,3,17.5,9.9,24.3c6.8,6.8,14.4,9.9,24.3,9.9h102.6v68.4H319.4c-9.9,0-18.2-1.5-26.6-5.3c-8.4-3.8-15.2-8.4-22-15.2c-6.1-6.1-11.4-13.7-15.2-22c-3.8-8.4-5.3-17.5-5.3-26.6V322.5c0-9.1,1.5-18.2,5.3-26.6c3.8-8.4,8.4-16,15.2-22c6.1-6.1,13.7-10.6,22-14.4c8.4-3.8,17.5-5.3,26.6-5.3h377.1c9.9,0,18.2,1.5,26.6,5.3c8.4,3.8,15.2,8.4,22,14.4c6.1,6.1,11.4,12.9,15.2,22c3.8,8.4,5.3,17.5,5.3,26.6v135.3l-68.4,0.8v-32.7c0-9.9-3-17.5-9.9-24.3c-6.8-6.8-14.4-9.9-24.3-9.9H353.6c-9.9,0-17.5,3-24.3,9.9c-6.8,6.8-9.9,14.4-9.9,24.3V631.1L319.4,631.1z M783.2,598.5c7.6,6.8,11.4,12.9,12.2,18.2c0,5.3-3.8,11.4-11.4,18.2c-7.6,6.8-16.7,13.7-27.4,22c-10.6,8.4-21.3,16.7-32.7,25.9s-22,17.5-33.5,26.6c-11.4,9.1-21.3,16.7-30.4,23.6c-9.9,7.6-17.5,9.9-23.6,8.4s-9.1-7.6-9.1-16.7c0-6.1,0-12.9,0-22c0-8.4-0.8-16-0.8-22c0-6.8-2.3-11.4-6.1-12.9c-3.8-1.5-9.1-2.3-16.7-2.3s-15.2,0-21.3,0c-6.8,0-12.9,0-19,0c-6.1,0-12.9,0-19.8,0c-6.8,0-14.4,0-22,0c-3,0-6.8,0-10.6-0.8c-3.8-0.8-7.6-2.3-10.6-3.8s-5.3-4.6-7.6-8.4c-2.3-3.8-3-8.4-3-15.2v-43.3c0-11.4,3-19,8.4-22.8c5.3-3.8,14.4-6.1,25.9-6.1c10.6,0,22,0.8,32.7,0.8s23.6,0,38.8,0.8c10.6,0,19-0.8,25.1-3c6.1-1.5,9.1-6.1,9.1-13.7c0-5.3,0-11.4,0-19c0.8-7.6,0.8-14.4,0.8-19.8c0-9.9,2.3-15.2,7.6-18.2c5.3-2.3,11.4-0.8,19.8,6.1c8.4,6.8,17.5,14.4,28.1,22.8c10.6,9.1,22,18.2,33.5,27.4c11.4,9.1,22.8,18.2,34.2,27.4C765,584,774.1,591.6,783.2,598.5L783.2,598.5z"/><path d="M13.8,498.1c0,268.7,217.8,486.6,486.6,486.6c268.7,0,486.6-217.8,486.6-486.6c0-268.7-217.8-486.6-486.6-486.6C231.6,11.5,13.8,229.4,13.8,498.1L13.8,498.1z"/><path d="M494.3,356.7c47.1,0,85.9-40.3,85.9-89c0-49.4-38.8-89-85.9-89c-47.1,0-85.9,40.3-85.9,89C407.6,316.4,446.4,356.7,494.3,356.7L494.3,356.7z M657.8,499.6h-32.7c-16.7,0-20.5-9.9-36.5-25.1c-19.8-18.2-46.4-82.1-46.4-82.1s-39.5,2.3-54.7,2.3s-45.6-2.3-45.6-2.3s-53.2,31.9-69.2,44.1c-19.8,15.2-34.2,36.5-34.2,57v57c0,25.1,69.2,27.4,69.2-0.8v-24.3c0-12.2,7.6-16.7,15.2-20.5c6.8-3,19.8,3.8,19.8,21.3v151.3c0,17.5-12.9,34.2-30.4,46.4c-14.4,9.9-22.8,19.8-36.5,35c-12.9,12.9,26.6,81.3,53.2,51.7c26.6-29.7,28.9-30.4,48.7-51.7c19-19,34.2-54,34.2-84.4v-45.6c8.4,10.6,14.4,14.4,22,30.4c5.3,12.2,12.2,42.6,12.2,57v47.9c0,28.9,69.2,28.1,69.2-3v-41.8c0-29.7-10.6-50.2-21.3-76c-15.2-35-19.8-56.3-23.6-64.6c-7.6-16.7-5.3-31.2-5.3-41.8c8.4,5.3,11.4,8.4,21.3,19.8c9.1,12.2,16.7,13.7,38,13.7h36.5C693.5,571.1,691.2,499.6,657.8,499.6L657.8,499.6z"/><path d="M13.8,498.1c0,268.7,217.8,486.6,486.6,486.6c268.7,0,486.6-217.8,486.6-486.6c0-268.7-217.8-486.6-486.6-486.6C231.6,11.5,13.8,229.4,13.8,498.1L13.8,498.1z"/><path d="M754.3,667.6c0,6.8-1.5,12.9-3.8,19c-2.3,6.1-5.3,11.4-9.9,15.2c-4.6,4.6-9.1,7.6-15.2,10.6c-6.1,2.3-12.2,3.8-19,3.8H317.2c-6.8,0-12.9-1.5-19-3.8c-6.1-2.3-11.4-6.1-16-10.6s-8.4-9.9-10.6-15.2c-3-6.1-3.8-12.2-3.8-19V399.3c0-13.7,4.6-25.1,14.4-35c9.1-9.1,21.3-14.4,35-14.4h390c13.7,0,25.1,4.6,35,14.4c9.1,9.1,14.4,21.3,14.4,35v73H635c-13.7,0-25.1,4.6-35,13.7c-9.1,9.1-14.4,20.5-14.4,34.2c0,9.1,2.3,17.5,6.1,24.3c3,6.1,7.6,11.4,14.4,16.7c6.8,5.3,16,7.6,28.9,7.6h121.6v98.8H754.3z M681.3,326.3H437.3c19-9.9,37.3-19.8,54.7-28.9c15.2-7.6,29.6-16,44.9-23.6c14.4-7.6,25.8-13.7,34.2-18.2c12.2-6.8,23.6-9.9,33.5-9.1c9.9,0.8,18.2,2.3,25.1,5.3c7.6,3.8,14.4,9.1,20.5,15.2L681.3,326.3z M608.3,520.9c0-6.8,2.3-12.2,6.8-17.5c4.6-4.6,10.6-6.8,17.5-6.8c6.8,0,12.2,2.3,17.5,6.8c4.6,4.6,6.8,10.6,6.8,17.5c0,6.8-2.3,12.9-6.8,17.5c-4.6,4.6-10.6,7.6-17.5,7.6c-6.8,0-12.2-2.3-17.5-7.6C610.6,533.8,608.3,527.7,608.3,520.9L608.3,520.9z"/><path d="M13.8,498.1c0,268.7,217.8,486.6,486.6,486.6c268.7,0,486.6-217.8,486.6-486.6c0-268.7-217.8-486.6-486.6-486.6C231.6,11.5,13.8,229.4,13.8,498.1L13.8,498.1z"/><path d="M767.2,457.8c7.6-4.6,13.7-6.8,17.5-5.3c3.8,0.8,6.1,4.6,6.1,9.9v181.7c0,13.7-1.5,25.1-5.3,33.5c-3,8.4-7.6,14.4-13.7,19c-5.3,3.8-12.2,6.8-19.8,7.6c-7.6,1.5-16,1.5-25.1,1.5h-25.8c-12.9,0-28.1,0-46.4,0c-18.2,0-38,0-60.1,0h-68.4H457h-63.1h-51.7h-32.7c-13.7,0-25.8-1.5-34.2-5.3c-9.1-3.8-16-8.4-21.3-14.4c-5.3-6.1-8.4-12.9-10.6-19.8c-2.3-7.6-3-15.2-3-23.6V467.7c0-7.6,2.3-12.9,6.1-15.2s9.1-1.5,14.4,2.3c1.5,1.5,5.3,3.8,10.6,6.8c5.3,3.8,11.4,7.6,19,12.2c6.8,4.6,15.2,9.1,22.8,14.4c8.4,5.3,16,9.9,22.8,13.7c6.8,4.6,12.9,8.4,18.2,11.4c5.3,3,8.4,5.3,9.9,6.1c5.3,3,7.6,6.8,6.8,9.9c-0.8,3.8-1.5,6.8-3.8,9.9c-1.5,3-3.8,7.6-6.8,14.4c-3,6.8-6.1,13.7-9.9,20.5c-3.8,6.8-6.8,13.7-9.9,20.5c-3,6.1-5.3,10.6-6.8,13.7c-2.3,3-2.3,6.1-2.3,7.6c0.8,2.3,1.5,3.8,3,5.3s3.8,1.5,6.1,0.8c2.3-0.8,4.6-2.3,6.1-4.6c1.5-1.5,4.6-4.6,9.1-9.9c4.6-5.3,9.9-11.4,16-18.2c6.1-6.8,11.4-12.9,16.7-18.2c5.3-5.3,8.4-9.1,9.9-10.6c2.3-2.3,5.3-4.6,9.1-6.8c3.8-2.3,8.4-3,12.9-0.8c2.3,1.5,6.1,4.6,12.2,7.6c5.3,3.8,12.2,7.6,19,12.2c6.8,4.6,13.7,8.4,20.5,12.9c6.8,4.6,12.9,8.4,17.5,10.6c4.6,3,9.9,5.3,15.2,6.1c5.3,0.8,9.9,0.8,15.2,0.8c4.6-0.8,9.1-1.5,12.9-2.3c3.8-1.5,6.8-2.3,9.1-3.8c2.3-1.5,6.8-3.8,13.7-7.6c6.8-3.8,13.7-8.4,21.3-12.9s15.2-9.1,22-13.7c6.8-4.6,11.4-6.8,14.4-9.1c4.6-2.3,7.6-3,11.4-2.3c3,0.8,6.1,3,9.9,6.1c1.5,1.5,4.6,4.6,9.1,10.6c4.6,6.1,9.9,12.2,15.2,19c5.3,6.8,10.6,13.7,16,19.8c4.6,6.1,8.4,10.6,9.9,12.9c2.3,3,4.6,4.6,7.6,4.6c2.3,0,4.6-0.8,6.1-1.5c1.5-1.5,3-3,3.8-6.1c0.8-2.3,0-5.3-2.3-8.4c-0.8-1.5-2.3-5.3-4.6-11.4c-2.3-6.1-5.3-12.9-7.6-19.8c-3-7.6-6.1-14.4-9.1-21.3c-3-6.8-5.3-12.2-6.8-15.2c-3-6.1-4.6-10.6-5.3-13.7c0-3.8,1.5-6.8,6.1-9.1c1.5-0.8,6.1-3.8,14.4-9.1c8.4-5.3,18.2-11.4,28.9-18.2s20.5-12.9,30.4-19C757.4,464.6,764.2,460.1,767.2,457.8L767.2,457.8z M517.1,558.2c-2.3,0.8-5.3-0.8-9.9-3c-4.6-2.3-9.9-5.3-16-9.1c-20.5-11.4-41.1-22.8-61.6-35c-18.2-9.9-37.3-21.3-57.8-32.7c-20.5-12.2-39.5-22.8-57-32.7V340.7h1.5V340c0-9.9,2.3-19.8,6.1-28.1c3.8-9.1,9.1-16.7,16-22.8c6.8-6.8,14.4-12.2,22.8-16c9.1-3.8,18.2-6.1,28.1-6.1h255.5c9.9,0,19.8,2.3,28.9,6.1s16.7,9.1,23.6,16c6.8,6.8,12.2,14.4,16,22.8c3.8,9.1,6.1,18.2,6.1,28.1v0.8h1.5v104.9c-18.2,9.9-37.3,21.3-57.8,32.7c-20.5,12.2-39.5,22.8-57.8,32.7c-21.3,12.2-41.8,23.6-61.6,35.7c-3.8,2.3-8.4,4.6-13.7,6.8C523.2,556.6,519.4,558.2,517.1,558.2L517.1,558.2z M425.9,376.5h182.5V340H425.9V376.5L425.9,376.5z M425.9,449.4h182.5v-36.5H425.9V449.4L425.9,449.4z"/><path d="M13.8,498.1c0,268.7,217.8,486.6,486.6,486.6c268.7,0,486.6-217.8,486.6-486.6c0-268.7-217.8-486.6-486.6-486.6C231.6,11.5,13.8,229.4,13.8,498.1L13.8,498.1z"/><path d="M527.7,790c16,0,28.9-5.3,40.3-16.7c10.6-10.6,16.7-24.3,16.7-40.3s-5.3-29.7-16.7-41.1c-10.6-10.6-24.3-16.7-40.3-16.7c-16,0-29.6,5.3-41.1,16.7C476.1,702.6,470,716.3,470,733c0,16,5.3,28.9,16.7,40.3C498.1,784.7,511.8,790,527.7,790L527.7,790z"/><path d="M581.7,560.4c0-7.6,5.3-16,16-25.8c10.6-9.9,22-22.8,35-37.3c12.9-15.2,24.3-32.7,35-52.5c10.6-19.8,16-43.3,16-70.7c0-18.2-3.8-37.3-10.6-56.3c-6.8-19.8-18.2-38-33.5-54c-15.2-16-35-29.7-58.5-40.3c-23.6-10.6-52.5-16-86.7-16c-39.5,0-70.7,6.8-94.3,20.5c-23.6,13.7-41.1,30.4-53.2,50.2c-12.2,19.8-19.8,40.3-23.6,61.6c-3.8,21.3-5.3,38.8-5.3,54c0,13.7,5.3,22.8,16.7,28.9c11.4,5.3,23.6,8.4,36.5,6.8c12.9-0.8,25.8-4.6,36.5-12.2c11.4-6.8,16.7-16.7,16.7-28.1c0-7.6,0.8-15.2,1.5-24.3c0.8-9.1,3.8-17.5,8.4-25.8c4.6-8.4,12.2-15.2,21.3-20.5c9.9-5.3,22.8-8.4,39.5-8.4c26.6,0,47.1,7.6,63.1,22c15.2,14.4,23.6,31.9,23.6,51.7c0,16-5.3,31.9-16.7,47.1c-10.6,15.2-22.8,28.9-35.7,41.8c-12.9,12.9-25.1,23.6-35.7,33.5c-10.6,9.9-16.7,17.5-16.7,23.6v61.6c0,5.3,5.3,9.1,16.7,11.4c10.6,2.3,22.8,3.8,35.7,3c12.9,0,25.1-1.5,35.7-4.6c10.6-3,16.7-7.6,16.7-13.7V560.4L581.7,560.4z"/><path d="M13.8,498.1c0,268.7,217.8,486.6,486.6,486.6c268.7,0,486.6-217.8,486.6-486.6c0-268.7-217.8-486.6-486.6-486.6C231.6,11.5,13.8,229.4,13.8,498.1L13.8,498.1z"/><path d="M596.2,438c-6.1-3-9.1-6.8-8.4-12.2c0.8-5.3,3-9.1,6.1-12.2c0.8-0.8,4.6-3.8,10.6-8.4c6.1-5.3,13.7-11.4,22.8-18.2c-16-18.2-34.2-31.9-56.3-42.6c-21.3-10.6-44.9-15.2-70.7-15.2c-23.6,0-45.6,4.6-66.1,12.9c-20.5,9.1-38.8,20.5-54,36.5c-15.2,15.2-27.4,33.5-36.5,54c-9.1,20.5-12.9,42.6-12.9,66.1c0,22.8,4.6,44.9,12.9,65.4c9.1,20.5,20.5,38.8,36.5,54c15.2,15.2,33.5,27.4,54,36.5s42.6,12.9,66.1,12.9c19.8,0,38-3,55.5-9.1c17.5-6.1,33.5-15.2,47.9-25.8c14.4-11.4,26.6-24.3,37.3-39.5c10.6-15.2,17.5-31.9,22.8-49.4c2.3-8.4,7.6-16,14.4-21.3c6.8-5.3,15.2-8.4,25.1-8.4c11.4,0,21.3,3.8,29.7,12.2c8.4,8.4,12.2,18.2,12.2,28.9c0,5.3-0.8,10.6-3,15.2c-7.6,25.8-19.8,50.2-35,72.2c-15.2,22-33.5,41.1-54.7,57c-21.3,16-44.9,28.1-69.9,37.3c-25.8,9.1-52.5,13.7-81.3,13.7c-35,0-67.7-6.8-98.1-19.8c-30.4-12.9-57-31.2-79.8-54c-22.8-22.8-40.3-49.4-54-79.8c-12.9-30.4-19.8-63.1-19.8-98.1c0-35,6.8-67.7,19.8-98.1c12.9-30.4,31.2-57,54-79.8c22.8-22.8,49.4-40.3,79.8-54c30.4-12.9,63.1-19.8,98.1-19.8c38.8,0,73.7,7.6,107.2,23.6c32.7,16,60.8,37.3,83.6,64.6c8.4-6.1,16-12.2,21.3-16.7c6.1-4.6,9.1-7.6,10.6-8.4c2.3-1.5,4.6-3,7.6-4.6c2.3-0.8,5.3-0.8,7.6,0c2.3,0.8,4.6,3,6.1,6.1c1.5,3,3,7.6,3.8,13.7c0,3,0.8,9.1,0.8,16.7c0,8.4,0.8,17.5,0.8,28.1c0,10.6,0.8,21.3,0.8,32.7c0,11.4,0,22-0.8,31.9c0,12.9-3,22-9.1,27.4c-3,3-7.6,4.6-13.7,5.3c-6.1,0-12.2,0-19-1.5c-9.9-2.3-21.3-4.6-33.5-7.6s-23.6-5.3-35-8.4c-10.6-3-20.5-5.3-28.9-7.6C603.8,441.1,598.5,438.8,596.2,438L596.2,438z"/><path d="M13.8,498.1c0,268.7,217.8,486.6,486.6,486.6c268.7,0,486.6-217.8,486.6-486.6c0-268.7-217.8-486.6-486.6-486.6C231.6,11.5,13.8,229.4,13.8,498.1L13.8,498.1z"/><path d="M757.4,704.9c20.5-35,9.1-62.3-26.6-89.7c-42.6-31.9-83.6-53.2-113.3-19c0,0-31.2,37.3-123.9-50.2c-108-102.6-62.3-139.1-62.3-139.1c37.3-38,13.7-66.1-17.5-108.7c-31.2-42.6-63.1-56.3-108.7-19.8c-88.2,70.7,35.7,236.4,98.8,301.1l0,0c0,0,95,98.8,155.1,131.5l31.9,18.2c46.4,23.6,98.1,34.2,133.8,12.2C723.9,741.4,741.4,732.3,757.4,704.9L757.4,704.9z"/><path d="M13.8,498.9c0,268.7,217.8,486.6,486.6,486.6c268.7,0,486.6-217.8,486.6-486.6c0-268.7-217.8-486.6-486.6-486.6C231.6,12.3,13.8,230.1,13.8,498.9L13.8,498.9z"/><path d="M500.4,799.2c-35,0-63.1-28.1-63.1-63.1c0-35,28.1-63.1,63.1-63.1c35,0,63.1,28.1,63.1,63.1C563.5,771,535.4,799.2,500.4,799.2L500.4,799.2z M563.5,531.6c0,35-28.1,63.1-63.1,63.1c-35,0-63.1-28.1-63.1-63.1V261.7c0-35,28.1-63.1,63.1-63.1c35,0,63.1,28.1,63.1,63.1V531.6L563.5,531.6z"/><path d="M13.8,498.1c0,268.7,217.8,486.6,486.6,486.6c268.7,0,486.6-217.8,486.6-486.6c0-268.7-217.8-486.6-486.6-486.6C231.6,11.5,13.8,229.4,13.8,498.1L13.8,498.1z"/><path d="M317.2,631.9c0,8.4,3,15.2,9.1,21.3s12.9,9.1,22,9.1h120.1v60.8l-151.3,0c-8.4,0-16-1.5-23.6-4.6c-7.6-3-13.7-7.6-19-12.9c-5.3-5.3-9.9-12.2-12.9-19c-3-7.6-4.6-15.2-4.6-24.3V359.7c0-8.4,1.5-16,4.6-23.6c3-7.6,7.6-13.7,12.9-19c5.3-5.3,12.2-9.9,19-12.9c7.6-3,15.2-4.6,23.6-4.6h364.2c8.4,0,16,1.5,23.6,4.6s13.7,7.6,19,12.9c5.3,5.3,9.9,12.2,12.9,19c3,7.6,4.6,15.2,4.6,23.6v89l-60.8,0.8c-0.8-8.4-3.8-15.2-9.1-20.5c-5.3-5.3-12.9-8.4-21.3-8.4H348.3c-8.4,0-16,3-22,9.1s-9.1,12.9-9.1,21.3V631.9L317.2,631.9z M739.9,536.9c2.3,3,3,6.8,3.8,11.4c0.8,4.6-1.5,9.1-5.3,13.7c-3.8,4.6-6.1,7.6-8.4,9.9l-3.8,3.8L676,530c1.5-2.3,3.8-4.6,6.8-6.8c3-3,5.3-4.6,6.8-6.8c4.6-4.6,9.1-6.8,14.4-6.1c5.3,0.8,9.1,1.5,12.9,3c3.8,1.5,8.4,4.6,12.9,9.1C733.8,527,737.6,531.6,739.9,536.9L739.9,536.9z M548.3,673.7c0.8-0.8,3-3.8,6.8-7.6c3.8-4.6,7.6-9.1,12.9-15.2c5.3-6.1,11.4-12.9,17.5-19.8c6.1-7.6,12.9-14.4,19-22c15.2-17.5,32.7-36.5,51.7-57.8l50.9,45.6c-19,21.3-36.5,41.1-51.7,58.5c-6.1,7.6-12.9,14.4-19,22c-6.1,7.6-12.2,13.7-17.5,19.8c-5.3,6.1-9.9,10.6-12.9,14.4c-3,3.8-5.3,6.1-6.1,6.8c-3,3.8-6.8,6.8-12.2,9.9c-2.3,1.5-5.3,3-9.9,5.3c-4.6,2.3-9.1,3.8-14.4,6.1c-5.3,2.3-9.9,3.8-13.7,5.3c-4.6,1.5-7.6,2.3-9.9,2.3c-8.4,1.5-12.2-2.3-11.4-10.6c0-2.3,0.8-6.1,2.3-10.6c0.8-4.6,2.3-9.1,3-14.4c0.8-5.3,2.3-9.9,3-13.7c0.8-4.6,2.3-6.8,2.3-8.4C541.4,682.8,544.5,678.3,548.3,673.7L548.3,673.7z"/></g>
</svg>