<svg width="17" height="17" viewBox="0 0 17 17" fill="none" xmlns="http://www.w3.org/2000/svg">
<path d="M1.82354 9.00117C2.23067 9.63156 2.71168 10.2624 3.26155 10.8489C4.7998 12.4897 6.55549 13.4584 8.48842 13.4585C9.85954 13.436 11.1875 12.9755 12.2781 12.1442C12.5892 11.907 13.0337 11.967 13.2708 12.2781C13.508 12.5893 13.448 13.0337 13.1369 13.2709C11.8058 14.2855 10.185 14.8476 8.5 14.875C6.10597 14.875 4.01009 13.7187 2.22804 11.8178C1.6158 11.1648 1.0841 10.4675 0.633488 9.76974C0.361227 9.34818 0.17435 9.01595 0.0747808 8.81681C-0.0281483 8.61096 -0.0246425 8.36792 0.0841815 8.16512C1.01303 6.43413 2.30131 4.9218 3.86261 3.72957C4.17353 3.49215 4.61805 3.55173 4.85547 3.86265C5.09289 4.17357 5.03331 4.61808 4.72239 4.85551C3.42258 5.84805 2.33368 7.08789 1.51764 8.5023C1.6065 8.65583 1.70855 8.82311 1.82354 9.00117Z" fill="#C7CDD8"/>
<path d="M15.1766 7.99886C14.7695 7.36846 14.2885 6.73764 13.7386 6.15111C12.2004 4.5103 10.4447 3.54164 8.49855 3.54164C8.05268 3.54061 7.60822 3.59141 7.17413 3.69302C6.79322 3.78218 6.41216 3.54567 6.323 3.16477C6.23384 2.78386 6.47035 2.4028 6.85125 2.31364C7.39226 2.187 7.94617 2.12369 8.50019 2.12498C10.8942 2.12498 12.9901 3.28133 14.7722 5.18219C15.3844 5.83525 15.9161 6.53256 16.3667 7.23029C16.639 7.65185 16.8258 7.98408 16.9254 8.18322C17.0282 8.38872 17.0249 8.63129 16.9165 8.83391C16.4633 9.68178 15.9228 10.48 15.3038 11.2156C15.052 11.515 14.6051 11.5534 14.3058 11.3016C14.0065 11.0497 13.968 10.6029 14.2199 10.3035C14.6938 9.7403 15.1164 9.13618 15.4829 8.4984C15.394 8.34468 15.2918 8.17717 15.1766 7.99886Z" fill="#C7CDD8"/>
<path d="M9.48363 9.51882C9.75032 9.23261 10.1985 9.21679 10.4847 9.48348C10.7709 9.75017 10.7868 10.1984 10.5201 10.4846C9.81374 11.2426 8.74998 11.5546 7.7461 11.2983C6.74222 11.0419 5.95833 10.258 5.70195 9.25413C5.44558 8.25025 5.75761 7.18648 6.51563 6.48015C6.80184 6.21346 7.25005 6.22928 7.51674 6.51549C7.78343 6.8017 7.76761 7.24991 7.48141 7.5166C7.10239 7.86977 6.94638 8.40165 7.07457 8.90359C7.20275 9.40553 7.5947 9.79747 8.09664 9.92566C8.59858 10.0538 9.13046 9.89783 9.48363 9.51882Z" fill="#C7CDD8"/>
<path d="M0.207466 1.2092L15.7908 16.7925C16.0674 17.0692 16.5159 17.0692 16.7925 16.7925C17.0692 16.5159 17.0692 16.0674 16.7925 15.7908L1.2092 0.207466C0.932579 -0.0691553 0.484087 -0.0691553 0.207466 0.207466C-0.0691553 0.484087 -0.0691553 0.932579 0.207466 1.2092Z" fill="#C7CDD8"/>
</svg>
