<svg width="24" height="18" viewBox="0 0 24 18" fill="none" xmlns="http://www.w3.org/2000/svg">
<path d="M1.04568 8.60507C0.918106 8.85237 0.918106 9.14763 1.04568 9.39493C1.17586 9.64728 1.42025 10.0682 1.77586 10.6019C2.36487 11.4858 3.05987 12.3693 3.85966 13.1961C6.17746 15.5924 8.89964 17.05 12 17.05C15.1004 17.05 17.8226 15.5924 20.1404 13.1961C20.9402 12.3693 21.6352 11.4858 22.2242 10.6019C22.5798 10.0682 22.8242 9.64728 22.9544 9.39493C23.082 9.14763 23.082 8.85237 22.9544 8.60507C22.8242 8.35272 22.5798 7.9318 22.2242 7.39812C21.6352 6.51417 20.9402 5.63072 20.1404 4.80386C17.8226 2.40761 15.1004 0.95 12 0.95C8.89964 0.95 6.17746 2.40761 3.85966 4.80386C3.05987 5.63072 2.36487 6.51417 1.77586 7.39812C1.42025 7.9318 1.17586 8.35272 1.04568 8.60507ZM5.0511 12.0039C4.32746 11.2557 3.69494 10.4517 3.1595 9.64812C2.99359 9.39914 2.85638 9.18044 2.74854 9C2.85638 8.81956 2.99359 8.60086 3.1595 8.35188C3.69494 7.54832 4.32746 6.74426 5.0511 5.99613C7.08624 3.89211 9.41321 2.64998 12 2.64998C14.5868 2.64998 16.9138 3.89211 18.949 5.99613C19.6726 6.74426 20.3051 7.54832 20.8406 8.35188C21.0065 8.60086 21.1437 8.81956 21.2515 9C21.1437 9.18044 21.0065 9.39914 20.8406 9.64812C20.3051 10.4517 19.6726 11.2557 18.949 12.0039C16.9138 14.1079 14.5868 15.35 12 15.35C9.41321 15.35 7.08624 14.1079 5.0511 12.0039ZM8.37862 9C8.37862 10.9708 10.0095 12.55 12 12.55C13.9905 12.55 15.6214 10.9708 15.6214 9C15.6214 7.02923 13.9905 5.45 12 5.45C10.0095 5.45 8.37862 7.02923 8.37862 9ZM13.95 9C13.95 10.0106 13.0876 10.85 12 10.85C10.9125 10.85 10.05 10.0106 10.05 9C10.05 7.98943 10.9125 7.14998 12 7.14998C13.0876 7.14998 13.95 7.98943 13.95 9Z" fill="#C7CDD8" stroke="#C7CDD8" stroke-width="0.1"/>
</svg>
