<svg width="25" height="21" viewBox="0 0 25 21" fill="none" xmlns="http://www.w3.org/2000/svg">
<path d="M3.66211 10.9582H6.10928C6.44233 10.9582 6.7648 11.0037 7.07168 11.0874C7.67705 9.89732 8.91299 9.07965 10.3372 9.07965H14.6628C16.087 9.07965 17.3229 9.89732 17.9283 11.0874C18.2352 11.0037 18.5577 10.9582 18.8907 10.9582H21.3379C23.3572 10.9582 25 12.601 25 14.6203V18.5323C25 19.7439 24.0143 20.7295 22.8027 20.7295H2.19727C0.985693 20.7295 0 19.7439 0 18.5323V14.6203C0 12.601 1.64282 10.9582 3.66211 10.9582ZM18.325 12.7419V19.2648H22.8027C23.2066 19.2648 23.5352 18.9362 23.5352 18.5323V14.6203C23.5352 13.4087 22.5495 12.4231 21.3379 12.4231H18.8907C18.6919 12.4231 18.4994 12.4501 18.3161 12.4998C18.3213 12.5799 18.325 12.6605 18.325 12.7419ZM8.13989 19.2648H16.8601V12.7418C16.8601 11.5302 15.8744 10.5445 14.6628 10.5445H10.3372C9.12558 10.5445 8.13989 11.5302 8.13989 12.7418V19.2648ZM1.46484 18.5323C1.46484 18.9362 1.79341 19.2648 2.19727 19.2648H6.67505V12.7418C6.67505 12.6604 6.67866 12.5798 6.68394 12.4998C6.50063 12.4501 6.30811 12.423 6.10928 12.423H3.66211C2.45054 12.423 1.46484 13.4087 1.46484 14.6203V18.5323Z" fill="#C7CDD8"/>
<path d="M20.1143 4.04177C21.9087 4.04177 23.3685 5.50158 23.3685 7.29597C23.3685 9.09035 21.9087 10.5502 20.1143 10.5502C18.32 10.5502 16.8601 9.09035 16.8601 7.29597C16.8601 5.50158 18.3199 4.04177 20.1143 4.04177ZM20.1143 9.08532C21.101 9.08532 21.9037 8.28264 21.9037 7.29597C21.9037 6.3093 21.101 5.50661 20.1143 5.50661C19.1277 5.50661 18.325 6.3093 18.325 7.29597C18.325 8.28264 19.1277 9.08532 20.1143 9.08532Z" fill="#C7CDD8"/>
<path d="M12.5 0C14.8973 0 16.8475 1.95029 16.8475 4.34756C16.8475 6.74482 14.8973 8.69512 12.5 8.69512C10.1027 8.69512 8.15243 6.74482 8.15243 4.34756C8.15243 1.95034 10.1027 0 12.5 0ZM12.5 7.23027C14.0895 7.23027 15.3827 5.93711 15.3827 4.34756C15.3827 2.75806 14.0895 1.46484 12.5 1.46484C10.9104 1.46484 9.61727 2.75801 9.61727 4.34756C9.61727 5.93711 10.9104 7.23027 12.5 7.23027Z" fill="#C7CDD8"/>
<path d="M4.88573 4.04177C6.68007 4.04177 8.13993 5.50158 8.13993 7.29597C8.13988 9.09035 6.68007 10.5502 4.88573 10.5502C3.09134 10.5502 1.63153 9.09035 1.63153 7.29597C1.63153 5.50158 3.09134 4.04177 4.88573 4.04177ZM4.88573 9.08532C5.87235 9.08532 6.67509 8.28264 6.67509 7.29597C6.67504 6.3093 5.87235 5.50661 4.88573 5.50661C3.89906 5.50661 3.09637 6.3093 3.09637 7.29597C3.09637 8.28264 3.89906 9.08532 4.88573 9.08532Z" fill="#C7CDD8"/>
</svg>
