<svg width="18" height="15" viewBox="0 0 18 15" fill="none" xmlns="http://www.w3.org/2000/svg">
<path d="M2.63672 7.88988H4.39868C4.63848 7.88988 4.87065 7.92265 5.09161 7.9829C5.52748 7.12608 6.41735 6.53735 7.44275 6.53735H10.5572C11.5826 6.53735 12.4725 7.12608 12.9084 7.9829C13.1293 7.92265 13.3615 7.88988 13.6013 7.88988H15.3633C16.8172 7.88988 18 9.07271 18 10.5266V13.3432C18 14.2156 17.2903 14.9253 16.418 14.9253H1.58203C0.709699 14.9253 0 14.2156 0 13.3432V10.5266C0 9.07271 1.18283 7.88988 2.63672 7.88988ZM13.194 9.17414V13.8706H16.418C16.7087 13.8706 16.9453 13.6341 16.9453 13.3433V10.5266C16.9453 9.6543 16.2356 8.9446 15.3633 8.9446H13.6013C13.4582 8.9446 13.3195 8.96404 13.1876 8.99987C13.1914 9.05756 13.194 9.11557 13.194 9.17414ZM5.86072 13.8706H12.1393V9.1741C12.1393 8.30177 11.4296 7.59207 10.5572 7.59207H7.44275C6.57042 7.59207 5.86072 8.30177 5.86072 9.1741V13.8706ZM1.05469 13.3433C1.05469 13.6341 1.29125 13.8706 1.58203 13.8706H4.80604V9.1741C4.80604 9.1155 4.80864 9.05749 4.81243 8.99983C4.68046 8.96404 4.54184 8.94457 4.39868 8.94457H2.63672C1.76439 8.94457 1.05469 9.65427 1.05469 10.5266V13.3433Z" fill="#909DB1"/>
<path d="M14.4823 2.91008C15.7742 2.91008 16.8253 3.96115 16.8253 5.2531C16.8253 6.54506 15.7742 7.59613 14.4823 7.59613C13.1904 7.59613 12.1393 6.54506 12.1393 5.2531C12.1393 3.96115 13.1903 2.91008 14.4823 2.91008ZM14.4823 6.54144C15.1927 6.54144 15.7707 5.96351 15.7707 5.2531C15.7707 4.5427 15.1927 3.96477 14.4823 3.96477C13.7719 3.96477 13.194 4.5427 13.194 5.2531C13.194 5.96351 13.7719 6.54144 14.4823 6.54144Z" fill="#909DB1"/>
<path d="M8.99999 0C10.726 0 12.1302 1.40421 12.1302 3.13024C12.1302 4.85627 10.726 6.26048 8.99999 6.26048C7.27396 6.26048 5.86975 4.85627 5.86975 3.13024C5.86975 1.40425 7.27396 0 8.99999 0ZM8.99999 5.2058C10.1445 5.2058 11.0755 4.27472 11.0755 3.13024C11.0755 1.9858 10.1445 1.05469 8.99999 1.05469C7.85551 1.05469 6.92444 1.98577 6.92444 3.13024C6.92444 4.27472 7.85551 5.2058 8.99999 5.2058Z" fill="#909DB1"/>
<path d="M3.51773 2.91008C4.80965 2.91008 5.86075 3.96115 5.86075 5.2531C5.86072 6.54506 4.80965 7.59613 3.51773 7.59613C2.22577 7.59613 1.1747 6.54506 1.1747 5.2531C1.1747 3.96115 2.22577 2.91008 3.51773 2.91008ZM3.51773 6.54144C4.22809 6.54144 4.80606 5.96351 4.80606 5.2531C4.80603 4.5427 4.22809 3.96477 3.51773 3.96477C2.80732 3.96477 2.22939 4.5427 2.22939 5.2531C2.22939 5.96351 2.80732 6.54144 3.51773 6.54144Z" fill="#909DB1"/>
</svg>
