<svg width="26" height="22" viewBox="0 0 26 22" fill="none" xmlns="http://www.w3.org/2000/svg">
<path d="M9.1 5.47273C9.1 5.96978 9.50294 6.37273 10 6.37273C10.4971 6.37273 10.9 5.96978 10.9 5.47273H9.1ZM10.9 16.5273C10.9 16.0302 10.4971 15.6273 10 15.6273C9.50294 15.6273 9.1 16.0302 9.1 16.5273H10.9ZM17.6667 12.0852C18.1637 12.0852 18.5667 11.6822 18.5667 11.1852C18.5667 10.6881 18.1637 10.2852 17.6667 10.2852V12.0852ZM0.363604 10.5488C0.012132 10.9003 0.012132 11.4701 0.363604 11.8216L6.09117 17.5491C6.44264 17.9006 7.01249 17.9006 7.36396 17.5491C7.71543 17.1977 7.71543 16.6278 7.36396 16.2763L2.27279 11.1852L7.36396 6.09401C7.71543 5.74254 7.71543 5.17269 7.36396 4.82122C7.01249 4.46975 6.44264 4.46975 6.09117 4.82122L0.363604 10.5488ZM12 1.9H23V0.1H12V1.9ZM24.1 3V19H25.9V3H24.1ZM23 20.1H12V21.9H23V20.1ZM10.9 5.47273V3H9.1V5.47273H10.9ZM10.9 19V16.5273H9.1V19H10.9ZM12 20.1C11.3925 20.1 10.9 19.6075 10.9 19H9.1C9.1 20.6016 10.3984 21.9 12 21.9V20.1ZM24.1 19C24.1 19.6075 23.6075 20.1 23 20.1V21.9C24.6016 21.9 25.9 20.6016 25.9 19H24.1ZM23 1.9C23.6075 1.9 24.1 2.39249 24.1 3H25.9C25.9 1.39837 24.6016 0.1 23 0.1V1.9ZM12 0.1C10.3984 0.1 9.1 1.39837 9.1 3H10.9C10.9 2.39249 11.3925 1.9 12 1.9V0.1ZM17.6667 10.2852H1V12.0852H17.6667V10.2852Z" fill="#909DB1"/>
</svg>
