<svg width="8" height="8" viewBox="0 0 8 8" fill="none" xmlns="http://www.w3.org/2000/svg">
<path d="M6 7V6.5H6.5V7H6Z" fill="#2889FC"/>
<path d="M4.5 6V5.5H5V6H4.5Z" fill="#2889FC"/>
<path d="M4.5 7.5H5.5V7H5V6.5H4.5V7.5Z" fill="#2889FC"/>
<path d="M6.5 6.5V5.5H7V6.5H6.5Z" fill="#2889FC"/>
<path d="M7 6.5H7.5V7.5H6.5V7H7V6.5Z" fill="#2889FC"/>
<path d="M6.5 5V4.5H7.5V5.5H7V5H6.5Z" fill="#2889FC"/>
<path d="M6 5H5.5V6H5V6.5H6V5Z" fill="#2889FC"/>
<path d="M4.5 5V4.5H5.5V5H4.5Z" fill="#2889FC"/>
<path d="M1.5 5.5H2.5V6.5H1.5V5.5Z" fill="#2889FC"/>
<path d="M3.5 7.5H0.5V4.5H3.5V7.5ZM1 7H3V5H1V7Z" fill="#2889FC"/>
<path d="M5.5 1.5H6.5V2.5H5.5V1.5Z" fill="#2889FC"/>
<path d="M7.5 3.5H4.5V0.5H7.5V3.5ZM5 3H7V1H5V3Z" fill="#2889FC"/>
<path d="M1.5 1.5H2.5V2.5H1.5V1.5Z" fill="#2889FC"/>
<path d="M3.5 3.5H0.5V0.5H3.5V3.5ZM1 3H3V1H1V3Z" fill="#2889FC"/>
</svg>
