<svg width="27" height="26" viewBox="0 0 27 26" fill="none" xmlns="http://www.w3.org/2000/svg">
<path d="M13.5 5.43077C14.031 5.43077 14.4615 5.84405 14.4615 6.35385V12.4295L18.5454 14.3898C19.0204 14.6178 19.2129 15.1722 18.9754 15.6282C18.7379 16.0842 18.1604 16.269 17.6854 16.041L13.07 13.8256C12.7442 13.6693 12.5385 13.3496 12.5385 13V6.35385C12.5385 5.84405 12.969 5.43077 13.5 5.43077Z" fill="#909DB1"/>
<path fill-rule="evenodd" clip-rule="evenodd" d="M13.5 25C20.4036 25 26 19.6274 26 13C26 6.37258 20.4036 1 13.5 1C6.59644 1 1 6.37258 1 13C1 19.6274 6.59644 25 13.5 25ZM13.5 23.1538C7.65853 23.1538 2.92308 18.6078 2.92308 13C2.92308 7.39219 7.65853 2.84615 13.5 2.84615C19.3415 2.84615 24.0769 7.39219 24.0769 13C24.0769 18.6078 19.3415 23.1538 13.5 23.1538Z" fill="#909DB1"/>
<path d="M13.5 5.43077C14.031 5.43077 14.4615 5.84405 14.4615 6.35385V12.4295L18.5454 14.3898C19.0204 14.6178 19.2129 15.1722 18.9754 15.6282C18.7379 16.0842 18.1604 16.269 17.6854 16.041L13.07 13.8256C12.7442 13.6693 12.5385 13.3496 12.5385 13V6.35385C12.5385 5.84405 12.969 5.43077 13.5 5.43077Z" stroke="#909DB1" stroke-width="0.1"/>
<path fill-rule="evenodd" clip-rule="evenodd" d="M13.5 25C20.4036 25 26 19.6274 26 13C26 6.37258 20.4036 1 13.5 1C6.59644 1 1 6.37258 1 13C1 19.6274 6.59644 25 13.5 25ZM13.5 23.1538C7.65853 23.1538 2.92308 18.6078 2.92308 13C2.92308 7.39219 7.65853 2.84615 13.5 2.84615C19.3415 2.84615 24.0769 7.39219 24.0769 13C24.0769 18.6078 19.3415 23.1538 13.5 23.1538Z" stroke="#909DB1" stroke-width="0.1"/>
</svg>
