<svg width="18" height="18" viewBox="0 0 18 18" fill="none" xmlns="http://www.w3.org/2000/svg">
<path d="M14.2828 2.28963L14.4536 2.11892H14.2121H10.7014C10.1448 2.11892 9.69193 1.66596 9.69193 1.10946C9.69193 0.55296 10.1448 0.1 10.7014 0.1H16.8905C17.447 0.1 17.9 0.552964 17.9 1.10946V7.29867C17.9 7.85516 17.447 8.30813 16.8905 8.30813C16.3341 8.30813 15.8811 7.85516 15.8811 7.29867V3.78789V3.54646L15.7104 3.71718L9.85411 9.57354C9.66321 9.76445 9.41002 9.8693 9.14022 9.8693C8.87032 9.8693 8.61726 9.7644 8.42642 9.57339L8.42634 9.57331C8.23556 9.38276 8.13076 9.12972 8.13076 8.85977C8.13076 8.58984 8.23561 8.33672 8.42649 8.14596L8.42651 8.14594L14.2828 2.28963ZM12.7516 16.1981H12.8516V16.0981V7.9795L14.5535 6.27757V17.049C14.5535 17.519 14.1725 17.9 13.7025 17.9H0.95096C0.481006 17.9 0.1 17.519 0.1 17.049V4.2974C0.1 3.82745 0.481006 3.44644 0.95096 3.44644H11.7224L10.0204 5.14837H1.90192H1.80192V5.24837V16.0981V16.1981H1.90192H12.7516ZM8.3558 8.07522C8.14615 8.28475 8.03076 8.56332 8.03076 8.85977C8.03076 9.15622 8.14608 9.43472 8.35568 9.64406C8.56527 9.85385 8.84377 9.96929 9.14022 9.96929C9.43654 9.96929 9.71517 9.85391 9.92482 9.64425L8.3558 8.07522Z" fill="#909DB1" stroke="#FAFBFD" stroke-width="0.2"/>
</svg>
