<svg width="11" height="11" viewBox="0 0 11 11" fill="none" xmlns="http://www.w3.org/2000/svg">
<path fill-rule="evenodd" clip-rule="evenodd" d="M7.93333 1.73125H4.73333C4.52715 1.73125 4.36 1.90754 4.36 2.125V2.6875H5.26667C5.85577 2.6875 6.33333 3.19118 6.33333 3.8125V7.58125H7.93333C8.13952 7.58125 8.30667 7.40496 8.30667 7.1875V2.125C8.30667 1.90754 8.13952 1.73125 7.93333 1.73125ZM6.33333 8.3125H7.93333C8.52244 8.3125 9 7.80882 9 7.1875V2.125C9 1.50368 8.52244 1 7.93333 1H4.73333C4.14423 1 3.66667 1.50368 3.66667 2.125V2.6875H2.06667C1.47756 2.6875 1 3.19118 1 3.8125V8.875C1 9.49632 1.47756 10 2.06667 10H5.26667C5.85577 10 6.33333 9.49632 6.33333 8.875V8.3125ZM1.69333 3.8125C1.69333 3.59504 1.86048 3.41875 2.06667 3.41875H5.26667C5.47285 3.41875 5.64 3.59504 5.64 3.8125V8.875C5.64 9.09246 5.47285 9.26875 5.26667 9.26875H2.06667C1.86048 9.26875 1.69333 9.09246 1.69333 8.875V3.8125Z" fill="#2889FC"/>
</svg>
