<svg width="16" height="16" viewBox="0 0 16 16" fill="none" xmlns="http://www.w3.org/2000/svg">
<path fill-rule="evenodd" clip-rule="evenodd" d="M2 1.2H14C14.4418 1.2 14.8 1.55817 14.8 2V14C14.8 14.4418 14.4418 14.8 14 14.8H2C1.55817 14.8 1.2 14.4418 1.2 14V2C1.2 1.55817 1.55817 1.2 2 1.2ZM0 2C0 0.895431 0.895431 0 2 0H14C15.1046 0 16 0.895431 16 2V14C16 15.1046 15.1046 16 14 16H2C0.895431 16 0 15.1046 0 14V2ZM7.1345 9.8218C7.08353 10.1977 7.39711 10.5102 7.77641 10.5102C8.15102 10.5102 8.44256 10.2029 8.51793 9.83595C8.59897 9.44135 8.75792 9.11892 8.99478 8.86864L9.80119 8.10776C10.6002 7.30931 10.9997 6.49911 10.9997 5.67717C10.9997 4.84584 10.7383 4.19298 10.2155 3.71861C9.69762 3.23954 8.97259 3 8.0404 3C7.14275 3 6.41278 3.23484 5.85051 3.70452C5.47033 4.02171 5.21752 4.40774 5.09209 4.86262C4.99135 5.22793 5.30954 5.54331 5.68849 5.54331C6.06399 5.54331 6.34329 5.21843 6.52217 4.88828C6.59671 4.75071 6.69835 4.62853 6.82709 4.52176C7.13288 4.26813 7.53732 4.14132 8.0404 4.14132C8.55828 4.14132 8.95286 4.28222 9.22413 4.56403C9.4954 4.84114 9.63103 5.22628 9.63103 5.71944C9.63103 6.23139 9.42388 6.71046 9.00958 7.15666L8.0404 8.10776C7.66063 8.50229 7.40908 8.86159 7.28578 9.18567C7.21843 9.36268 7.168 9.57473 7.1345 9.8218ZM7.22659 11.7389C7.09343 11.8798 7.02684 12.0559 7.02684 12.2673C7.02684 12.4787 7.09343 12.6548 7.22659 12.7957C7.3647 12.9319 7.56691 13 7.83325 13C8.09959 13 8.30181 12.9319 8.43991 12.7957C8.57801 12.6548 8.64706 12.4787 8.64706 12.2673C8.64706 12.0559 8.57801 11.8798 8.43991 11.7389C8.30181 11.5933 8.09959 11.5205 7.83325 11.5205C7.56691 11.5205 7.3647 11.5933 7.22659 11.7389Z" fill="#909DB1"/>
</svg>
