<svg width="11" height="11" viewBox="0 0 11 11" fill="none" xmlns="http://www.w3.org/2000/svg">
<path d="M9.30417 6.15544C9.18868 6.11945 9.06365 6.13057 8.95634 6.18638C8.84902 6.24218 8.76811 6.33815 8.73125 6.45336C8.51472 7.11541 8.09259 7.6911 7.52628 8.09667C6.95996 8.50224 6.27901 8.71653 5.5825 8.70836C4.72099 8.71815 3.89076 8.3859 3.27386 7.78447C2.65696 7.18303 2.30375 6.3615 2.29167 5.50003C2.30375 4.63855 2.65696 3.81702 3.27386 3.21558C3.89076 2.61415 4.72099 2.2819 5.5825 2.29169C6.36056 2.28981 7.11467 2.56065 7.71375 3.05711L6.71917 2.89211C6.65956 2.8823 6.5986 2.88437 6.5398 2.89821C6.48099 2.91204 6.4255 2.93736 6.37652 2.97272C6.32754 3.00807 6.28603 3.05276 6.25437 3.10421C6.22272 3.15566 6.20155 3.21286 6.19208 3.27253C6.18228 3.33213 6.18435 3.39309 6.19818 3.4519C6.21201 3.5107 6.23734 3.56619 6.27269 3.61517C6.30804 3.66416 6.35273 3.70567 6.40418 3.73732C6.45564 3.76897 6.51284 3.79014 6.5725 3.79961L8.51583 4.12044H8.59375C8.6469 4.12038 8.69963 4.11108 8.74958 4.09294C8.76637 4.08657 8.78189 4.07726 8.79542 4.06544C8.82828 4.05322 8.85917 4.03624 8.88708 4.01503L8.92833 3.96461C8.92833 3.94169 8.96958 3.92336 8.98792 3.89586C9.00625 3.86836 8.98792 3.85003 9.01083 3.83169C9.0235 3.805 9.03422 3.77743 9.04292 3.74919L9.38667 1.91586C9.3981 1.85567 9.39757 1.79382 9.3851 1.73383C9.37264 1.67385 9.34847 1.61691 9.314 1.56626C9.27953 1.51562 9.23542 1.47226 9.18419 1.43866C9.13295 1.40506 9.07561 1.38188 9.01542 1.37044C8.95523 1.35901 8.89338 1.35954 8.83339 1.37201C8.77341 1.38447 8.71647 1.40863 8.66582 1.44311C8.56353 1.51273 8.4931 1.62014 8.47 1.74169L8.34625 2.40628C7.57899 1.74135 6.59779 1.37522 5.5825 1.37503C4.47789 1.36525 3.41451 1.79408 2.6257 2.56742C1.8369 3.34076 1.3871 4.39544 1.375 5.50003C1.3871 6.60462 1.8369 7.6593 2.6257 8.43264C3.41451 9.20597 4.47789 9.6348 5.5825 9.62503C6.47769 9.63878 7.35364 9.36475 8.08139 8.84328C8.80914 8.32181 9.35023 7.58045 9.625 6.72836C9.64239 6.66968 9.64784 6.60811 9.64105 6.54729C9.63426 6.48646 9.61535 6.42762 9.58545 6.37422C9.55554 6.32082 9.51525 6.27395 9.46694 6.23638C9.41863 6.1988 9.36328 6.17128 9.30417 6.15544Z" fill="#2889FC"/>
</svg>
