<svg width="18" height="18" viewBox="0 0 18 18" fill="none" xmlns="http://www.w3.org/2000/svg">
<circle cx="9" cy="9" r="9" fill="white"/>
<path d="M3.15198 6.30381C3.15198 6.1104 3.30876 5.95361 3.50217 5.95361H9.73564C10.7027 5.95361 11.4866 6.73755 11.4866 7.70459V11.9069C11.4866 12.1003 11.3298 12.2571 11.1364 12.2571H4.90295C3.93591 12.2571 3.15198 11.4732 3.15198 10.5061V6.30381Z" fill="#2889FC"/>
<path d="M11.8367 8.18371C11.8367 8.07741 11.885 7.97686 11.9679 7.9104L14.2792 6.05898C14.5085 5.87534 14.8483 6.03855 14.8483 6.3323V11.8778C14.8483 12.1715 14.5085 12.3347 14.2792 12.1511L11.9679 10.2997C11.885 10.2332 11.8367 10.1327 11.8367 10.0263V8.18371Z" fill="#2889FC"/>
</svg>
