<svg width="23" height="24" viewBox="0 0 23 24" fill="none" xmlns="http://www.w3.org/2000/svg">
<path fill-rule="evenodd" clip-rule="evenodd" d="M19.9333 1.95H10.7333C10.1405 1.95 9.66 2.4201 9.66 3V4.5H12.2667C13.9603 4.5 15.3333 5.84315 15.3333 7.5V17.55H19.9333C20.5261 17.55 21.0067 17.0799 21.0067 16.5V3C21.0067 2.4201 20.5261 1.95 19.9333 1.95ZM15.3333 19.5H19.9333C21.627 19.5 23 18.1569 23 16.5V3C23 1.34315 21.627 0 19.9333 0H10.7333C9.03966 0 7.66667 1.34315 7.66667 3V4.5H3.06667C1.37299 4.5 0 5.84315 0 7.5V21C0 22.6569 1.37299 24 3.06667 24H12.2667C13.9603 24 15.3333 22.6569 15.3333 21V19.5ZM1.99333 7.5C1.99333 6.9201 2.47388 6.45 3.06667 6.45H12.2667C12.8595 6.45 13.34 6.9201 13.34 7.5V21C13.34 21.5799 12.8595 22.05 12.2667 22.05H3.06667C2.47388 22.05 1.99333 21.5799 1.99333 21V7.5Z" fill="#909DB1"/>
</svg>
