<svg width="34" height="23" viewBox="0 0 34 23" fill="none" xmlns="http://www.w3.org/2000/svg">
<path d="M33.3069 4.35135C33.1196 3.68292 32.7546 3.07776 32.2507 2.60019C31.7327 2.10794 31.0977 1.75582 30.4058 1.57707C27.8163 0.894533 17.4417 0.894533 17.4417 0.894533C13.1166 0.845325 8.79265 1.06175 4.49413 1.5426C3.8022 1.73456 3.16844 2.09454 2.64921 2.59054C2.13903 3.08142 1.76949 3.68674 1.57645 4.34997C1.11273 6.84813 0.887417 9.38469 0.903561 11.9255C0.887015 14.464 1.11177 16.9997 1.57645 19.501C1.76535 20.1614 2.13351 20.764 2.64507 21.2507C3.15663 21.7375 3.79367 22.0891 4.49413 22.2752C7.11812 22.9564 17.4417 22.9564 17.4417 22.9564C21.7722 23.0057 26.1018 22.7893 30.4058 22.3083C31.0977 22.1296 31.7327 21.7775 32.2507 21.2852C32.7609 20.7985 33.1236 20.1932 33.3056 19.5341C33.7814 17.0369 34.0128 14.4993 33.9964 11.9572C34.0322 9.40436 33.8011 6.85477 33.3069 4.34997V4.35135ZM14.1434 16.6467V7.20561L22.7752 11.9268L14.1434 16.6467Z" fill="#2889FC"/>
</svg>
