<svg width="24" height="24" viewBox="0 0 24 24" fill="none" xmlns="http://www.w3.org/2000/svg">
<path d="M5.625 12C5.625 10.8109 5.95261 9.69702 6.52177 8.74326V4.69757H2.47608C0.870375 6.78295 0 9.32446 0 12C0 14.6755 0.870375 17.217 2.47608 19.3024H6.52177V15.2567C5.95261 14.303 5.625 13.1891 5.625 12Z" fill="#FBBD00"/>
<path d="M12 18.3751L9.1875 21.1876L12 24.0001C14.6756 24.0001 17.217 23.1297 19.3024 21.524V17.4826H15.261C14.2989 18.0538 13.1804 18.3751 12 18.3751Z" fill="#0F9D58"/>
<path d="M6.5217 15.2567L2.47601 19.3023C2.79392 19.7152 3.14009 20.1106 3.51467 20.4852C5.78117 22.7517 8.79462 23.9999 11.9999 23.9999V18.3749C9.67381 18.3749 7.63508 17.1224 6.5217 15.2567Z" fill="#31AA52"/>
<path d="M24 12C24 11.2699 23.9339 10.5385 23.8035 9.82609L23.698 9.24957H12V14.8746H17.6931C17.1402 15.9743 16.2902 16.8715 15.261 17.4826L19.3024 21.524C19.7153 21.2061 20.1106 20.8599 20.4853 20.4853C22.7518 18.2188 24 15.2053 24 12Z" fill="#3C79E6"/>
<path d="M16.5078 7.49217L17.005 7.98933L20.9825 4.01189L20.4853 3.51473C18.2188 1.24823 15.2054 0 12 0L9.1875 2.8125L12 5.625C13.7028 5.625 15.3037 6.28809 16.5078 7.49217Z" fill="#CF2D48"/>
<path d="M12 5.625V0C8.79467 0 5.78122 1.24823 3.51467 3.51469C3.14009 3.88927 2.79392 4.28466 2.47601 4.69758L6.5217 8.74327C7.63512 6.8775 9.67386 5.625 12 5.625Z" fill="#EB4132"/>
</svg>
