<svg width="30" height="30" viewBox="0 0 30 30" fill="none" xmlns="http://www.w3.org/2000/svg">
<g clip-path="url(#clip0)">
<path d="M15 30.0001C15.9946 30.0001 16.9484 29.605 17.6516 28.9017C18.3549 28.1984 18.75 27.2446 18.75 26.2501H11.25C11.25 27.2446 11.6451 28.1984 12.3483 28.9017C13.0516 29.605 14.0054 30.0001 15 30.0001ZM16.8656 2.06068C16.8918 1.79997 16.863 1.53667 16.7812 1.28775C16.6993 1.03884 16.5662 0.809847 16.3905 0.615537C16.2147 0.421228 16.0001 0.265918 15.7606 0.159625C15.5211 0.0533309 15.262 -0.00158691 15 -0.00158691C14.738 -0.00158691 14.4789 0.0533309 14.2394 0.159625C13.9999 0.265918 13.7853 0.421228 13.6095 0.615537C13.4338 0.809847 13.3007 1.03884 13.2188 1.28775C13.137 1.53667 13.1082 1.79997 13.1344 2.06068C11.0151 2.49174 9.10992 3.64198 7.74143 5.31662C6.37295 6.99126 5.62527 9.08738 5.625 11.2501C5.625 13.3088 4.6875 22.5001 1.875 24.3751H28.125C25.3125 22.5001 24.375 13.3088 24.375 11.2501C24.375 6.71255 21.15 2.92505 16.8656 2.06068Z" fill="#2F80ED"/>
</g>
<defs>
<clipPath id="clip0">
<rect width="30" height="30" fill="white"/>
</clipPath>
</defs>
</svg>
