<svg width="29" height="29" viewBox="0 0 29 29" fill="none" xmlns="http://www.w3.org/2000/svg">
<path d="M14.4311 10.2584C11.8613 10.2584 9.76418 12.3555 9.76418 14.9252C9.76418 17.495 11.8613 19.5921 14.4311 19.5921C17.0008 19.5921 19.0979 17.495 19.0979 14.9252C19.0979 12.3555 17.0008 10.2584 14.4311 10.2584ZM28.4282 14.9252C28.4282 12.9927 28.4457 11.0776 28.3371 9.14854C28.2286 6.90789 27.7175 4.9193 26.079 3.28082C24.437 1.63884 22.4519 1.13119 20.2113 1.02266C18.2787 0.914124 16.3636 0.931629 14.4346 0.931629C12.502 0.931629 10.5869 0.914124 8.65786 1.02266C6.4172 1.13119 4.42862 1.64234 2.79013 3.28082C1.14815 4.9228 0.640501 6.90789 0.531969 9.14854C0.423438 11.0811 0.440943 12.9962 0.440943 14.9252C0.440943 16.8543 0.423438 18.7729 0.531969 20.7019C0.640501 22.9426 1.15165 24.9312 2.79013 26.5697C4.43212 28.2116 6.4172 28.7193 8.65786 28.8278C10.5904 28.9364 12.5055 28.9189 14.4346 28.9189C16.3671 28.9189 18.2822 28.9364 20.2113 28.8278C22.4519 28.7193 24.4405 28.2081 26.079 26.5697C27.721 24.9277 28.2286 22.9426 28.3371 20.7019C28.4492 18.7729 28.4282 16.8578 28.4282 14.9252V14.9252ZM14.4311 22.1059C10.4574 22.1059 7.25045 18.8989 7.25045 14.9252C7.25045 10.9516 10.4574 7.74463 14.4311 7.74463C18.4047 7.74463 21.6117 10.9516 21.6117 14.9252C21.6117 18.8989 18.4047 22.1059 14.4311 22.1059ZM21.9058 9.12754C20.978 9.12754 20.2288 8.37832 20.2288 7.45055C20.2288 6.52277 20.978 5.77355 21.9058 5.77355C22.8335 5.77355 23.5828 6.52277 23.5828 7.45055C23.583 7.67085 23.5398 7.88904 23.4557 8.09263C23.3715 8.29622 23.248 8.4812 23.0922 8.63698C22.9364 8.79275 22.7514 8.91627 22.5478 9.00045C22.3443 9.08463 22.1261 9.12781 21.9058 9.12754V9.12754Z" fill="#2889FC"/>
</svg>
