<svg width="25" height="26" viewBox="0 0 25 26" fill="none" xmlns="http://www.w3.org/2000/svg">
<path d="M10.51 11.0708C9.49872 11.0708 8.51015 10.7708 7.66939 10.2088C6.82863 9.64684 6.17347 8.84807 5.78681 7.91361C5.40015 6.97915 5.29937 5.95099 5.49721 4.95924C5.69506 3.96748 6.18264 3.0567 6.89826 2.34213C7.61389 1.62757 8.52539 1.14133 9.51744 0.944956C10.5095 0.748579 11.5375 0.850885 12.4714 1.23893C13.4053 1.62697 14.2031 2.28331 14.7638 3.1249C15.3246 3.96649 15.6231 4.95551 15.6216 5.9668C15.6176 7.32055 15.0775 8.6176 14.1196 9.57415C13.1616 10.5307 11.8638 11.0688 10.51 11.0708ZM10.51 2.36752C9.79815 2.36752 9.10226 2.57862 8.51036 2.97411C7.91847 3.36961 7.45714 3.93174 7.18472 4.58942C6.91229 5.2471 6.84102 5.9708 6.9799 6.66899C7.11878 7.36718 7.46157 8.00851 7.96494 8.51188C8.46831 9.01525 9.10964 9.35804 9.80783 9.49692C10.506 9.6358 11.2297 9.56452 11.8874 9.2921C12.5451 9.01968 13.1072 8.55835 13.5027 7.96646C13.8982 7.37456 14.1093 6.67867 14.1093 5.9668C14.1093 5.01221 13.7301 4.09672 13.0551 3.42173C12.3801 2.74673 11.4646 2.36752 10.51 2.36752Z" fill="#2889FC"/>
<path d="M11.8256 23.8268C11.6603 23.6615 11.5328 23.4623 11.4519 23.243C11.371 23.0238 11.3385 22.7895 11.3568 22.5565H2.43418V18.1859C3.50633 17.0419 4.80676 16.1358 6.2513 15.5262C7.69584 14.9166 9.25229 14.6171 10.8199 14.6471H11.3643C11.3296 14.3936 11.3539 14.1355 11.4352 13.8929C11.5165 13.6503 11.6527 13.4297 11.8331 13.2483L11.9239 13.1651C11.5685 13.1651 11.1677 13.1197 10.8199 13.1197C8.97519 13.0759 7.1438 13.4426 5.45816 14.1932C3.77251 14.9439 2.27473 16.0597 1.07311 17.46C0.97494 17.5909 0.921875 17.7501 0.921875 17.9137V22.5565C0.921875 22.9576 1.08121 23.3422 1.36482 23.6258C1.64843 23.9095 2.03309 24.0688 2.43418 24.0688H12.0373L11.8256 23.8268Z" fill="#2889FC"/>
<path d="M24.8759 17.5057L23.3636 17.0444C23.2555 16.6745 23.1085 16.3171 22.925 15.9782L23.6812 14.5718C23.7058 14.5155 23.7117 14.4529 23.6981 14.393C23.6845 14.3331 23.6521 14.2792 23.6056 14.2391L22.5092 13.1427C22.4677 13.0978 22.4123 13.0682 22.352 13.0586C22.2916 13.049 22.2298 13.0599 22.1765 13.0897L20.7851 13.8459C20.4425 13.6533 20.08 13.4986 19.7038 13.3846L19.2426 11.8723C19.223 11.8167 19.1859 11.7689 19.1368 11.7361C19.0877 11.7034 19.0293 11.6875 18.9704 11.6909H17.4203C17.3607 11.6902 17.3026 11.709 17.2548 11.7445C17.207 11.7801 17.1722 11.8303 17.1556 11.8875L16.6944 13.3998C16.3156 13.51 15.9504 13.6621 15.6055 13.8535L14.2293 13.0973C14.1771 13.0681 14.1165 13.0574 14.0575 13.067C13.9984 13.0766 13.9444 13.106 13.9042 13.1502L12.7851 14.2391C12.7436 14.2828 12.7169 14.3384 12.7087 14.3981C12.7006 14.4578 12.7114 14.5186 12.7397 14.5718L13.4958 15.948C13.2958 16.2888 13.136 16.6517 13.0195 17.0293L11.5072 17.483C11.45 17.4995 11.3998 17.5344 11.3642 17.5822C11.3287 17.63 11.3099 17.6881 11.3106 17.7476V19.2977C11.315 19.3524 11.3363 19.4043 11.3716 19.4462C11.4068 19.4882 11.4542 19.5182 11.5072 19.5322L13.0195 19.9934C13.1312 20.3643 13.2834 20.7219 13.4732 21.0596L12.717 22.5038C12.6882 22.5556 12.677 22.6153 12.6852 22.674C12.6933 22.7327 12.7205 22.7871 12.7624 22.829L13.8588 23.9254C13.9016 23.9681 13.9568 23.9962 14.0166 24.0057C14.0763 24.0152 14.1375 24.0056 14.1915 23.9783L15.6055 23.2222C15.942 23.4032 16.2969 23.5476 16.6641 23.6532L17.1178 25.1655C17.1364 25.2215 17.1718 25.2703 17.2191 25.3055C17.2665 25.3407 17.3235 25.3604 17.3825 25.3621H18.9326C18.9918 25.3616 19.0494 25.3422 19.0969 25.3069C19.1445 25.2716 19.1796 25.2221 19.1972 25.1655L19.6585 23.6154C20.0208 23.5098 20.3707 23.3652 20.702 23.1844L22.1311 23.9405C22.1836 23.9684 22.2439 23.9784 22.3026 23.9688C22.3613 23.9593 22.4153 23.9307 22.4562 23.8876L23.6056 22.8592C23.6365 22.8148 23.6531 22.7621 23.6531 22.708C23.6531 22.6539 23.6365 22.6011 23.6056 22.5568L22.8494 21.1352C23.033 20.8016 23.18 20.4492 23.288 20.0841L24.8003 19.6229C24.8575 19.6064 24.9077 19.5715 24.9432 19.5237C24.9787 19.4759 24.9976 19.4178 24.9969 19.3582V17.7703C25.0038 17.7193 24.9962 17.6673 24.9747 17.6205C24.9533 17.5736 24.9191 17.5338 24.8759 17.5057ZM18.1991 21.0445C17.699 21.046 17.2096 20.8989 16.7931 20.622C16.3767 20.345 16.0518 19.9507 15.8597 19.4889C15.6676 19.0271 15.617 18.5187 15.7142 18.0281C15.8114 17.5375 16.0521 17.0868 16.4057 16.7331C16.7594 16.3794 17.2101 16.1387 17.7007 16.0415C18.1913 15.9443 18.6997 15.995 19.1615 16.1871C19.6233 16.3792 20.0177 16.704 20.2946 17.1205C20.5715 17.537 20.7186 18.0263 20.7171 18.5265C20.7151 19.1937 20.4492 19.833 19.9774 20.3048C19.5056 20.7765 18.8663 21.0425 18.1991 21.0445Z" fill="#2889FC"/>
</svg>
