<svg width="24" height="24" viewBox="0 0 24 24" fill="none" xmlns="http://www.w3.org/2000/svg">
<path d="M20.7379 11.92C20.7379 10.5563 21.5777 9.4825 22.84 8.7441C22.6112 7.9849 22.3109 7.2556 21.9404 6.5705C20.5247 6.941 19.3794 6.3872 18.4161 5.4226C17.4528 4.4606 17.1577 3.3153 17.5282 1.8983C16.8431 1.5278 16.1138 1.2249 15.3546 1C14.6162 2.261 13.2811 3.0995 11.92 3.0995C10.5576 3.0995 9.2238 2.261 8.4841 1C7.7236 1.2249 6.9969 1.5278 6.3118 1.8983C6.6823 3.3153 6.3885 4.4606 5.4226 5.4226C4.4606 6.3872 3.3153 6.941 1.8983 6.5705C1.5278 7.2556 1.2262 7.9849 1 8.7441C2.261 9.4825 3.0995 10.5563 3.0995 11.92C3.0995 13.2811 2.261 14.6162 1 15.3559C1.2275 16.1151 1.5278 16.8431 1.8983 17.5295C3.3153 17.159 4.4606 17.4528 5.4226 18.4161C6.3859 19.3807 6.6823 20.526 6.3118 21.9404C6.9969 22.3109 7.7249 22.6138 8.4854 22.8413C9.2238 21.5764 10.5589 20.7392 11.9213 20.7392C13.2824 20.7392 14.6175 21.5777 15.3572 22.8413C16.1164 22.6125 16.8444 22.3109 17.5308 21.9404C17.1603 20.526 17.4541 19.3807 18.4187 18.4161C19.382 17.4541 20.5273 16.9003 21.943 17.2682C22.3135 16.5831 22.6151 15.8564 22.8426 15.0946C21.5777 14.3549 20.7379 13.2811 20.7379 11.92ZM11.92 16.6676C9.2966 16.6676 7.1711 14.5421 7.1711 11.92C7.1711 9.2966 9.2979 7.1698 11.92 7.1698C14.5434 7.1698 16.6676 9.2979 16.6676 11.92C16.6676 14.5434 14.5434 16.6676 11.92 16.6676Z" stroke="#909DB1" stroke-width="1.8" stroke-linejoin="round"/>
</svg>
