<svg width="19" height="18" viewBox="0 0 19 18" fill="none" xmlns="http://www.w3.org/2000/svg">
<path fill-rule="evenodd" clip-rule="evenodd" d="M15.7687 0.112097C14.7013 -0.170184 13.5675 0.0893298 12.7372 0.792811L12.5512 0.962989L1.52525 11.8453C1.39962 11.9693 1.30895 12.1235 1.2622 12.2926L0.0371008 16.7261C-0.170749 17.4783 0.528553 18.1685 1.29067 17.9634L5.78271 16.7542C5.95412 16.7081 6.11036 16.6186 6.23599 16.4946L17.2619 5.61235C18.1034 4.78182 18.4321 3.5713 18.124 2.43678C17.816 1.30226 16.9182 0.416092 15.7687 0.112097ZM15.8181 4.18737L4.9839 14.8804L2.47708 15.5552L3.16076 13.081L13.995 2.38798C14.3207 2.06655 14.7953 1.94101 15.2402 2.05866C15.6851 2.17632 16.0326 2.51928 16.1518 2.95836C16.271 3.39744 16.1438 3.86594 15.8181 4.18737Z" fill="#909DB1"/>
</svg>
