<svg width="11" height="11" viewBox="0 0 11 11" fill="none" xmlns="http://www.w3.org/2000/svg">
<path d="M7.18703 2.40629C7.18699 2.07638 7.30296 1.75695 7.51464 1.50391C7.72632 1.25086 8.02024 1.0803 8.34497 1.02208C8.6697 0.963849 9.00457 1.02166 9.29099 1.18539C9.5774 1.34912 9.79712 1.60835 9.91171 1.91772C10.0263 2.2271 10.0285 2.56691 9.91781 2.87771C9.80716 3.18851 9.59075 3.45051 9.30644 3.61787C9.02213 3.78523 8.68802 3.84729 8.36257 3.79319C8.03713 3.73909 7.74107 3.57228 7.52619 3.32195L3.74769 5.07677C3.83455 5.35205 3.83455 5.6474 3.74769 5.92269L7.52619 7.67751C7.75333 7.41335 8.07044 7.24292 8.41608 7.19924C8.76172 7.15556 9.11127 7.24176 9.39698 7.44111C9.68269 7.64047 9.88422 7.9388 9.96251 8.27827C10.0408 8.61775 9.99027 8.9742 9.82073 9.27855C9.65118 9.5829 9.37469 9.81347 9.04483 9.92558C8.71497 10.0377 8.35524 10.0233 8.03536 9.88534C7.71547 9.74733 7.4582 9.49548 7.31342 9.1786C7.16864 8.86172 7.14665 8.50238 7.25171 8.17021L3.47322 6.41539C3.28617 6.63337 3.03684 6.78885 2.75879 6.86089C2.48073 6.93294 2.18728 6.9181 1.91791 6.81837C1.64854 6.71864 1.41618 6.53881 1.25207 6.30306C1.08797 6.06732 1 5.78697 1 5.49973C1 5.21249 1.08797 4.93214 1.25207 4.6964C1.41618 4.46065 1.64854 4.28082 1.91791 4.18109C2.18728 4.08136 2.48073 4.06652 2.75879 4.13857C3.03684 4.21061 3.28617 4.36608 3.47322 4.58407L7.25171 2.82924C7.2087 2.69238 7.18689 2.54975 7.18703 2.40629Z" fill="#2889FC"/>
</svg>
