<svg width="23" height="23" viewBox="0 0 23 23" fill="none" xmlns="http://www.w3.org/2000/svg">
<path d="M16.5267 7.63759C16.5267 4.62465 14.0606 2.18217 11.0185 2.18217C7.97639 2.18217 5.51027 4.62465 5.51027 7.63759C5.51027 11.1566 4.84704 13.8936 3.72328 15.934C3.6401 16.0851 3.55643 16.2291 3.47264 16.3663H18.5644C18.4806 16.2291 18.3969 16.0851 18.3137 15.934C17.19 13.8936 16.5267 11.1566 16.5267 7.63759ZM18.73 7.63759C18.73 10.8015 19.3062 13.179 20.248 14.8891C20.5633 15.4617 20.8942 15.9095 21.2167 16.2467C21.3909 16.4288 21.5082 16.5256 21.5444 16.5495C22.4513 17.1483 22.0233 18.5484 20.9333 18.5484H1.10368C0.0136988 18.5484 -0.414324 17.1483 0.492594 16.5495C0.528829 16.5256 0.646143 16.4288 0.820331 16.2467C1.14282 15.9095 1.47366 15.4617 1.78902 14.8891C2.73085 13.179 3.30697 10.8015 3.30697 7.63759C3.30697 3.41947 6.75954 0 11.0185 0C15.2775 0 18.73 3.41947 18.73 7.63759ZM11.5787 19.9564C11.8839 19.4352 12.5581 19.2577 13.0844 19.5601C13.6106 19.8624 13.7898 20.5301 13.4845 21.0513C12.8933 22.0608 11.8041 22.6822 10.6257 22.6822C9.4474 22.6822 8.3582 22.0608 7.76695 21.0513C7.46166 20.5301 7.64082 19.8624 8.1671 19.5601C8.69339 19.2577 9.36751 19.4352 9.6728 19.9564C9.86989 20.2929 10.233 20.5 10.6257 20.5C11.0185 20.5 11.3816 20.2929 11.5787 19.9564Z" fill="#2889FC"/>
</svg>
