<svg width="14" height="15" viewBox="0 0 14 15" fill="none" xmlns="http://www.w3.org/2000/svg">
<path fill-rule="evenodd" clip-rule="evenodd" d="M12.1333 1.21875H6.53333C6.17251 1.21875 5.88 1.51256 5.88 1.875V2.8125H7.46667C8.4976 2.8125 9.33333 3.65197 9.33333 4.6875V10.9688H12.1333C12.4942 10.9688 12.7867 10.6749 12.7867 10.3125V1.875C12.7867 1.51256 12.4942 1.21875 12.1333 1.21875ZM9.33333 12.1875H12.1333C13.1643 12.1875 14 11.348 14 10.3125V1.875C14 0.839466 13.1643 0 12.1333 0H6.53333C5.5024 0 4.66667 0.839466 4.66667 1.875V2.8125H1.86667C0.835735 2.8125 0 3.65197 0 4.6875V13.125C0 14.1605 0.835735 15 1.86667 15H7.46667C8.4976 15 9.33333 14.1605 9.33333 13.125V12.1875ZM1.21333 4.6875C1.21333 4.32506 1.50584 4.03125 1.86667 4.03125H7.46667C7.82749 4.03125 8.12 4.32506 8.12 4.6875V13.125C8.12 13.4874 7.82749 13.7812 7.46667 13.7812H1.86667C1.50584 13.7812 1.21333 13.4874 1.21333 13.125V4.6875Z" fill="#EAECF0"/>
</svg>
