<svg width="22" height="22" viewBox="0 0 22 22" fill="none" xmlns="http://www.w3.org/2000/svg">
<path d="M5.329 4V3C5.329 1.339 6.7561 0 8.50702 0H12.7702C14.5211 0 15.9482 1.339 15.9482 3V4H20.2308C20.8087 4 21.2772 4.44772 21.2772 5C21.2772 5.55228 20.8087 6 20.2308 6H19.1456V19C19.1456 20.661 17.7185 22 15.9676 22H5.30962C3.5587 22 2.1316 20.661 2.1316 19V6H1.04642C0.468499 6 0 5.55228 0 5C0 4.44772 0.468499 4 1.04642 4H5.329ZM7.42184 4H13.8554V3C13.8554 2.45186 13.3738 2 12.7702 2H8.50702C7.90343 2 7.42184 2.45186 7.42184 3V4ZM17.0528 6H4.22444V19C4.22444 19.5481 4.70604 20 5.30962 20H15.9676C16.5712 20 17.0528 19.5481 17.0528 19V6Z" fill="#909DB1"/>
</svg>
