<svg width="16" height="16" viewBox="0 0 16 16" fill="none" xmlns="http://www.w3.org/2000/svg">
<path fill-rule="evenodd" clip-rule="evenodd" d="M14 1.2H2C1.55817 1.2 1.2 1.55817 1.2 2V14C1.2 14.4418 1.55817 14.8 2 14.8H14C14.4418 14.8 14.8 14.4418 14.8 14V2C14.8 1.55817 14.4418 1.2 14 1.2ZM2 0C0.895431 0 0 0.895431 0 2V14C0 15.1046 0.895431 16 2 16H14C15.1046 16 16 15.1046 16 14V2C16 0.895431 15.1046 0 14 0H2ZM7.02734 12.2673C7.02734 12.0559 7.09393 11.8798 7.2271 11.7389C7.3652 11.5933 7.56742 11.5205 7.83376 11.5205C8.10009 11.5205 8.30231 11.5933 8.44041 11.7389C8.57852 11.8798 8.64757 12.0559 8.64757 12.2673C8.64757 12.4787 8.57852 12.6548 8.44041 12.7957C8.30231 12.9319 8.10009 13 7.83376 13C7.56742 13 7.3652 12.9319 7.2271 12.7957C7.09393 12.6548 7.02734 12.4787 7.02734 12.2673ZM7.9002 3C7.5136 3 7.2002 3.3134 7.2002 3.7V9.8C7.2002 10.1866 7.5136 10.5 7.9002 10.5C8.28679 10.5 8.60019 10.1866 8.60019 9.8V3.7C8.60019 3.3134 8.28679 3 7.9002 3Z" fill="#909DB1"/>
</svg>
