<svg width="218" height="196" viewBox="0 0 218 196" fill="none" xmlns="http://www.w3.org/2000/svg">
<g clip-path="url(#clip0)">
<path d="M216.088 74.9541C216.01 74.9541 215.933 74.9302 215.869 74.8855L110.098 1.10783C109.776 0.88436 109.393 0.764945 109.002 0.76563C108.61 0.766314 108.228 0.88707 107.907 1.11167L2.89675 74.8847C2.85562 74.9136 2.8092 74.9341 2.76016 74.9451C2.71111 74.956 2.66039 74.9572 2.6109 74.9485C2.56141 74.9398 2.51413 74.9214 2.47173 74.8944C2.42933 74.8674 2.39266 74.8323 2.3638 74.7911C2.33495 74.7499 2.31447 74.7034 2.30355 74.6543C2.29264 74.6052 2.2915 74.5544 2.30018 74.5048C2.30886 74.4552 2.3272 74.4079 2.35416 74.3654C2.38112 74.3229 2.41617 74.2862 2.4573 74.2573L107.468 0.484224C107.917 0.169871 108.452 0.000893743 109 3.5355e-06C109.549 -0.000886672 110.084 0.166353 110.535 0.479244L216.307 74.2558C216.373 74.3024 216.424 74.3691 216.45 74.4464C216.476 74.5236 216.477 74.6072 216.453 74.685C216.429 74.7629 216.38 74.8309 216.314 74.8792C216.249 74.9274 216.169 74.9534 216.088 74.9533V74.9541Z" fill="#79A5CC"/>
<path d="M8.89744 77.5688L109.106 3.18665L210.074 82.8622L114.269 139.746L62.2547 127.871L8.89744 77.5688Z" fill="#F3F8FC"/>
<path d="M66.6453 174.879H17.1398C16.5264 174.879 15.9381 174.635 15.5043 174.201C15.0706 173.766 14.8269 173.177 14.8269 172.563C14.8269 171.948 15.0706 171.359 15.5043 170.924C15.9381 170.49 16.5264 170.246 17.1398 170.246H66.6449C67.2583 170.246 67.8466 170.49 68.2804 170.924C68.7141 171.359 68.9578 171.948 68.9578 172.563C68.9578 173.177 68.7141 173.766 68.2804 174.201C67.8466 174.635 67.2583 174.879 66.6449 174.879H66.6453Z" fill="#2F80ED"/>
<path d="M34.9014 164.92H17.1401C16.5267 164.92 15.9384 164.676 15.5046 164.241C15.0709 163.807 14.8272 163.218 14.8272 162.603C14.8272 161.989 15.0709 161.4 15.5046 160.965C15.9384 160.531 16.5267 160.287 17.1401 160.287H34.9014C35.5148 160.287 36.1031 160.531 36.5369 160.965C36.9706 161.4 37.2143 161.989 37.2143 162.603C37.2143 163.218 36.9706 163.807 36.5369 164.241C36.1031 164.676 35.5148 164.92 34.9014 164.92Z" fill="#2F80ED"/>
<path d="M110.515 119C110.138 119 109.766 118.927 109.417 118.784L47.6158 93.1009V12.7075C47.6166 11.9966 47.8989 11.3151 48.4008 10.8124C48.9027 10.3097 49.5832 10.0269 50.293 10.0261H168.854C169.564 10.0269 170.245 10.3097 170.747 10.8124C171.248 11.3151 171.531 11.9966 171.532 12.7075V93.1569L171.417 93.2067L111.647 118.772C111.289 118.922 110.904 119 110.516 119H110.515Z" fill="white"/>
<path d="M110.515 119.191C110.113 119.192 109.716 119.113 109.344 118.961L47.4246 93.2289V12.7075C47.4254 11.9458 47.7278 11.2155 48.2656 10.6769C48.8034 10.1383 49.5325 9.83541 50.293 9.83459H168.854C169.615 9.83551 170.344 10.1385 170.882 10.6771C171.419 11.2156 171.722 11.9458 171.723 12.7075V93.2836L111.72 118.948C111.338 119.109 110.929 119.192 110.515 119.191ZM48.1895 92.7171L109.636 118.254C110.209 118.486 110.851 118.483 111.421 118.243L170.958 92.7776V12.7075C170.957 12.149 170.735 11.6135 170.341 11.2186C169.947 10.8236 169.412 10.6014 168.854 10.6007H50.293C49.7353 10.6014 49.2007 10.8236 48.8064 11.2186C48.412 11.6135 48.1902 12.149 48.1895 12.7075V92.7171Z" fill="#3F3D56"/>
<path d="M215.323 74.1879H215.246L171.34 92.9653L111.268 118.657C111.033 118.756 110.781 118.807 110.527 118.809C110.272 118.81 110.02 118.761 109.784 118.664L47.807 92.9116L2.82253 74.2185L2.75369 74.1879H2.67719C1.96741 74.1887 1.28692 74.4714 0.785023 74.9741C0.283127 75.4768 0.000809798 76.1584 0 76.8693V193.318C0.000809798 194.029 0.283127 194.711 0.785023 195.213C1.28692 195.716 1.96741 195.999 2.67719 196H215.323C216.033 195.999 216.713 195.716 217.215 195.213C217.717 194.711 217.999 194.029 218 193.318V76.8693C217.999 76.1584 217.717 75.4768 217.215 74.9741C216.713 74.4714 216.033 74.1887 215.323 74.1879ZM217.235 193.318C217.235 193.826 217.034 194.313 216.675 194.673C216.316 195.032 215.83 195.233 215.323 195.233H2.67719C2.17002 195.233 1.68363 195.032 1.32501 194.673C0.966389 194.313 0.764912 193.826 0.764912 193.318V76.8693C0.7656 76.374 0.957406 75.8981 1.30024 75.5412C1.64308 75.1842 2.11041 74.9738 2.60453 74.954L47.807 93.739L109.49 119.374C110.157 119.646 110.905 119.642 111.57 119.363L171.34 93.7965L215.399 74.954C215.893 74.9753 216.359 75.1862 216.701 75.543C217.043 75.8997 217.234 76.3747 217.235 76.8693V193.318Z" fill="#79A5CC"/>
<path d="M109.897 96.2032C107.615 96.2071 105.394 95.4676 103.569 94.0964L103.454 94.0114L79.6227 75.7366C77.3938 74.0261 75.9346 71.4988 75.5661 68.7107C75.3836 67.3301 75.4744 65.9271 75.8334 64.5818C76.1923 63.2364 76.8122 61.975 77.6579 60.8696C78.5035 59.7642 79.5582 58.8365 80.7619 58.1393C81.9655 57.4422 83.2944 56.9893 84.6728 56.8066C87.4565 56.4375 90.2726 57.1911 92.5016 58.9017L107.937 70.7565L144.415 23.1124C145.261 22.0073 146.316 21.0798 147.52 20.3831C148.724 19.6863 150.053 19.2339 151.432 19.0517C152.81 18.8694 154.211 18.9609 155.554 19.3208C156.897 19.6808 158.156 20.3022 159.26 21.1496L159.033 21.458L159.265 21.1542C161.491 22.8674 162.947 25.3949 163.315 28.1822C163.682 30.9694 162.93 33.7888 161.225 36.0217L118.32 92.0647C117.328 93.3561 116.052 94.4011 114.591 95.1188C113.13 95.8365 111.524 96.2076 109.897 96.2032Z" fill="#2F80ED"/>
</g>
<defs>
<clipPath id="clip0">
<rect width="218" height="196" fill="white"/>
</clipPath>
</defs>
</svg>
