<svg width="29" height="30" viewBox="0 0 29 30" fill="none" xmlns="http://www.w3.org/2000/svg">
<path d="M27.3547 0.757812H1.60783C1.18322 0.76097 0.776906 0.931045 0.476656 1.23129C0.176406 1.53154 0.00633088 1.93786 0.00317383 2.36247V28.1094C0.00633088 28.534 0.176406 28.9403 0.476656 29.2405C0.776906 29.5408 1.18322 29.7109 1.60783 29.714H15.4706V18.5176H11.7063V14.138H15.4706V10.9166C15.4706 7.17644 17.7509 5.13744 21.105 5.13744C22.2271 5.13744 23.3491 5.13744 24.4712 5.30635V9.20337H22.1667C20.3449 9.20337 19.995 10.0721 19.995 11.3389V14.1259H24.3385L23.7714 18.5056H19.995V29.714H27.3547C27.7793 29.7109 28.1857 29.5408 28.4859 29.2405C28.7862 28.9403 28.9562 28.534 28.9594 28.1094V2.36247C28.9562 1.93786 28.7862 1.53154 28.4859 1.23129C28.1857 0.931045 27.7793 0.76097 27.3547 0.757812V0.757812Z" fill="#2889FC"/>
</svg>
