<svg width="18" height="18" viewBox="0 0 18 18" fill="none" xmlns="http://www.w3.org/2000/svg">
<circle cx="9" cy="9" r="8.25" stroke="#909DB1" stroke-width="1.5"/>
<path d="M8.92285 13.3975C9.4541 13.3975 9.88477 13.0258 9.88477 12.5674C9.88477 12.1089 9.4541 11.7373 8.92285 11.7373C8.3916 11.7373 7.96094 12.1089 7.96094 12.5674C7.96094 13.0258 8.3916 13.3975 8.92285 13.3975Z" fill="#909DB1"/>
<path d="M8.92188 4.2666C7.2246 4.2666 5.84375 5.4582 5.84375 6.92285C5.84375 7.28961 6.18827 7.58691 6.61328 7.58691C7.03829 7.58691 7.38281 7.28961 7.38281 6.92285C7.38281 6.19052 8.07324 5.59473 8.92188 5.59473C9.77051 5.59473 10.4609 6.19052 10.4609 6.92285C10.4609 7.65518 9.77051 8.25098 8.92188 8.25098C8.49686 8.25098 8.15234 8.54828 8.15234 8.91504V10.5752C8.15234 10.942 8.49686 11.2393 8.92188 11.2393C9.34689 11.2393 9.69141 10.942 9.69141 10.5752V9.49506C11.0175 9.19946 12 8.15831 12 6.92285C12 5.4582 10.6192 4.2666 8.92188 4.2666Z" fill="#909DB1"/>
</svg>
