<svg width="30" height="30" viewBox="0 0 30 30" fill="none" xmlns="http://www.w3.org/2000/svg">
<circle cx="15" cy="15" r="15" fill="#2889FC"/>
<path fill-rule="evenodd" clip-rule="evenodd" d="M7.33334 15C7.33334 14.6318 7.59671 14.3333 7.92158 14.3333L16.7451 14.3333C17.07 14.3333 17.3333 14.6318 17.3333 15C17.3333 15.3682 17.07 15.6666 16.7451 15.6666L7.92158 15.6666C7.59671 15.6666 7.33334 15.3682 7.33334 15Z" fill="white"/>
<path fill-rule="evenodd" clip-rule="evenodd" d="M17.1381 14.5286C17.3984 14.7889 17.3984 15.211 17.1381 15.4714L13.1381 19.4714C12.8777 19.7317 12.4556 19.7317 12.1953 19.4714C11.9349 19.211 11.9349 18.7889 12.1953 18.5286L16.1953 14.5286C16.4556 14.2682 16.8777 14.2682 17.1381 14.5286Z" fill="white"/>
<path fill-rule="evenodd" clip-rule="evenodd" d="M12.1953 10.5286C12.4556 10.2682 12.8777 10.2682 13.1381 10.5286L17.1381 14.5286C17.3984 14.7889 17.3984 15.211 17.1381 15.4714C16.8777 15.7317 16.4556 15.7317 16.1953 15.4714L12.1953 11.4714C11.9349 11.211 11.9349 10.7889 12.1953 10.5286Z" fill="white"/>
<path fill-rule="evenodd" clip-rule="evenodd" d="M19.3333 10.3333C19.7015 10.3333 20 10.6318 20 11V19C20 19.3682 19.7015 19.6666 19.3333 19.6666C18.9651 19.6666 18.6667 19.3682 18.6667 19V11C18.6667 10.6318 18.9651 10.3333 19.3333 10.3333Z" fill="white"/>
</svg>
