<svg width="22" height="22" viewBox="0 0 22 22" fill="none" xmlns="http://www.w3.org/2000/svg">
<path d="M12.2222 14.9111V11C12.2222 10.325 11.675 9.77778 11 9.77778C10.325 9.77778 9.77778 10.325 9.77778 11V14.9111C9.77778 15.5861 10.325 16.1333 11 16.1333C11.675 16.1333 12.2222 15.5861 12.2222 14.9111Z" fill="#C7CDD8"/>
<path d="M11.0098 8.31111H11C10.325 8.31111 9.77778 7.7639 9.77778 7.08889C9.77778 6.41387 10.325 5.86667 11 5.86667H11.0098C11.6848 5.86667 12.232 6.41387 12.232 7.08889C12.232 7.7639 11.6848 8.31111 11.0098 8.31111Z" fill="#C7CDD8"/>
<path fill-rule="evenodd" clip-rule="evenodd" d="M22 11C22 17.0751 17.0751 22 11 22C4.92487 22 0 17.0751 0 11C0 4.92487 4.92487 0 11 0C17.0751 0 22 4.92487 22 11ZM2.44444 11C2.44444 15.7251 6.2749 19.5556 11 19.5556C15.7251 19.5556 19.5556 15.7251 19.5556 11C19.5556 6.2749 15.7251 2.44444 11 2.44444C6.2749 2.44444 2.44444 6.2749 2.44444 11Z" fill="#C7CDD8"/>
</svg>
