<svg width="16" height="18" viewBox="0 0 16 18" fill="none" xmlns="http://www.w3.org/2000/svg">
<path d="M14.7967 12.2739L14.7967 12.2739C14.8641 12.6361 14.91 12.9799 14.9328 13.296C14.9328 13.296 14.9328 13.296 14.9328 13.296L14.7967 12.2739ZM14.7967 12.2739C14.7285 11.9081 14.6406 11.5616 14.535 11.2442L14.535 11.2442L14.7967 12.2739ZM12.4468 8.84443L12.4469 8.84445C12.8231 8.98798 13.1505 9.18559 13.4192 9.43303C13.6741 9.66771 13.9002 9.95193 14.092 10.2769C14.092 10.2769 14.092 10.2769 14.092 10.2769L14.0059 10.3278L12.4468 8.84443ZM12.4468 8.84443C12.0698 8.70086 11.6537 8.62877 11.2109 8.62877C11.0103 8.62877 10.8249 8.71048 10.5071 8.90966L10.5071 8.9097M12.4468 8.84443L10.5071 8.9097M10.5071 8.9097C10.3124 9.03194 10.0845 9.17338 9.83007 9.32987M10.5071 8.9097L9.83007 9.32987M6.86018 9.787C7.21587 9.89772 7.57676 9.95387 7.93283 9.95387C8.28915 9.95387 8.65004 9.89772 9.00547 9.787C9.36978 9.67372 9.66473 9.5486 9.88246 9.41505C10.1371 9.25844 10.3652 9.11683 10.5602 8.9944L6.86018 9.787ZM6.86018 9.787C6.49625 9.67384 6.20117 9.54872 5.98383 9.41517M6.86018 9.787L5.98383 9.41517M9.83007 9.32987C9.62197 9.45749 9.33558 9.57963 8.97578 9.69151L8.97573 9.69152C8.62949 9.79938 8.27862 9.85387 7.93283 9.85387C7.5873 9.85387 7.23642 9.79938 6.8899 9.69152L6.88987 9.69151C6.53036 9.57973 6.24385 9.45757 6.03618 9.32997L9.83007 9.32987ZM5.98383 9.41517C5.73161 9.26002 5.50336 9.11842 5.30542 8.99428M5.98383 9.41517L2.51444 9.50673C2.77299 9.26857 3.08937 9.07728 3.45482 8.938C3.81914 8.79909 4.22288 8.72865 4.65504 8.72865C4.8247 8.72865 4.98879 8.79567 5.30542 8.99428M5.35855 8.90956C5.04099 8.71037 4.85561 8.62865 4.65504 8.62865C4.21202 8.62865 3.79605 8.70086 3.41919 8.84456M5.35855 8.90956L3.41919 8.84456M5.35855 8.90956C5.35855 8.90956 5.35856 8.90956 5.35856 8.90956L5.30542 8.99428M5.35855 8.90956L5.30542 8.99428M3.41919 8.84456C3.4192 8.84456 3.41921 8.84456 3.41921 8.84456L3.45446 8.93705L3.41919 8.84456ZM0.93348 13.2964C0.956233 12.9796 1.00205 12.6357 1.06959 12.2739L0.93348 13.2964ZM0.93348 13.2964C0.933481 13.2964 0.933482 13.2964 0.933483 13.2964L1.03322 13.3036L0.93348 13.2964ZM13.3078 15.5054L13.3078 15.5054C13.6307 15.2096 13.7925 14.8036 13.7927 14.2485C13.7925 13.95 13.7822 13.6563 13.7617 13.3758L13.7617 13.3757C13.742 13.1018 13.7015 12.7992 13.6414 12.4761C13.5823 12.1588 13.5069 11.8618 13.4176 11.5932C13.333 11.3387 13.2171 11.0857 13.073 10.8419L13.073 10.8419C12.9366 10.6108 12.7808 10.4146 12.6104 10.2576C12.4541 10.1138 12.2551 9.99384 12.0171 9.90315C11.8065 9.82294 11.5688 9.77715 11.3087 9.768C11.2749 9.78623 11.2223 9.81628 11.1454 9.86448C10.9448 9.99043 10.7202 10.1298 10.4589 10.2905L10.4589 10.2906C10.1617 10.4729 9.78308 10.6353 9.33482 10.7747C8.87324 10.9183 8.40154 10.9915 7.93295 10.9915C7.46438 10.9915 6.99281 10.9183 6.53099 10.7746L13.3078 15.5054ZM13.3078 15.5054C12.9759 15.8094 12.5313 15.9624 11.9347 15.9624H3.93187C3.33509 15.9624 2.89047 15.8094 2.55879 15.5055C2.23585 15.2096 2.07399 14.8035 2.07399 14.2484C2.07399 13.9509 2.08419 13.6573 2.10454 13.3756L2.10455 13.3756M13.3078 15.5054L2.10455 13.3756M2.10455 13.3756C2.12427 13.1011 2.16467 12.7986 2.22484 12.4762L2.12654 12.4579M2.10455 13.3756L2.12654 12.4579M2.12654 12.4579L2.22484 12.4762C2.2841 12.1587 2.35937 11.8615 2.44854 11.5933C2.53331 11.3385 2.64912 11.0857 2.79305 10.8417C2.92939 10.6109 3.08525 10.4147 3.25567 10.2576L3.1879 10.1841L3.25567 10.2576C3.41188 10.1136 3.61091 9.99386 3.84903 9.90315L3.84903 9.90315M2.12654 12.4579L3.84903 9.90315M3.84903 9.90315C4.05954 9.82294 4.2972 9.77715 4.55724 9.768C4.5911 9.78622 4.64366 9.81622 4.72056 9.86449L4.72058 9.86451M3.84903 9.90315L4.72058 9.86451M4.72058 9.86451C4.9211 9.9903 5.15214 10.1338 5.4075 10.2908L5.40756 10.2908M4.72058 9.86451L5.40756 10.2908M5.40756 10.2908C5.70431 10.4729 6.08306 10.6354 6.53095 10.7746L5.40756 10.2908ZM10.7284 7.65028L10.7284 7.65027C11.5256 6.88271 11.9317 5.94026 11.9317 4.85351C11.9317 3.76712 11.5257 2.82455 10.7282 2.05674L10.7282 2.05673C9.93089 1.28942 8.95358 0.9 7.82847 0.9C6.7031 0.9 5.72591 1.28942 4.92869 2.05686C4.13135 2.82443 3.72522 3.767 3.72522 4.85351C3.72522 5.94026 4.13135 6.88283 4.92869 7.6504L4.92871 7.65042C5.72616 8.41772 6.70347 8.80726 7.82847 8.80726C8.95371 8.80726 9.93102 8.41785 10.7284 7.65028ZM5.7562 2.86391C6.33432 2.30738 7.00979 2.03762 7.82847 2.03762C8.64702 2.03762 9.32261 2.30738 9.90086 2.86392C10.4789 3.42045 10.7577 4.06907 10.7577 4.85351C10.7577 5.6382 10.4789 6.2867 9.90085 6.84324C9.3226 7.39989 8.64701 7.66964 7.82847 7.66964C7.01006 7.66964 6.33459 7.39978 5.7562 6.84322C5.17808 6.28681 4.89921 5.63821 4.89921 4.85351C4.89921 4.06906 5.17808 3.42045 5.7562 2.86391Z" fill="#909DB1" stroke="#C7CDD8" stroke-width="0.2"/>
</svg>
