<svg width="137" height="127" viewBox="0 0 137 127" fill="none" xmlns="http://www.w3.org/2000/svg">
<ellipse opacity="0.05" cx="68.4677" cy="115.123" rx="68.4677" ry="10.9064" fill="#2F80ED"/>
<path d="M54.3211 103.08H82.602C82.0369 106.421 80.3068 109.455 77.7184 111.642C75.1299 113.83 71.8505 115.03 68.4616 115.03C65.0726 115.03 61.7932 113.83 59.2048 111.642C56.6163 109.455 54.8862 106.421 54.3211 103.08ZM68.4616 21.8127C77.9704 21.8127 87.0898 25.5901 93.8135 32.3139C100.537 39.0376 104.315 48.157 104.315 57.6659V76.7875L111.093 91.8936C111.401 92.5845 111.532 93.3415 111.474 94.0957C111.415 94.85 111.169 95.5776 110.757 96.2126C110.346 96.8475 109.783 97.3697 109.119 97.7316C108.454 98.0935 107.71 98.2838 106.953 98.285H29.9888C29.2312 98.2849 28.4858 98.0953 27.8202 97.7334C27.1547 97.3716 26.5903 96.849 26.1783 96.2132C25.7664 95.5775 25.52 94.8488 25.4616 94.0935C25.4033 93.3382 25.5348 92.5803 25.8442 91.8889L32.6084 76.7827V57.6037L32.6323 56.4086C32.9594 47.1243 36.8773 38.3295 43.5609 31.8769C50.2444 25.4244 59.1715 21.818 68.4616 21.8175V21.8127Z" fill="#2F80ED"/>
<path d="M14.5058 8.08053e-07C15.6848 8.08053e-07 21.0787 0.0545289 23.2583 1.06404C23.3024 1.08491 23.341 1.11575 23.371 1.15412C23.4011 1.19248 23.4218 1.23733 23.4315 1.28509C23.4413 1.33285 23.4397 1.38223 23.4271 1.42929C23.4144 1.47636 23.3909 1.51983 23.3586 1.55626C22.2813 2.77357 18.1268 7.42762 15.6377 9.60138C15.5895 9.64369 15.5554 9.69975 15.5401 9.76199C15.5247 9.82424 15.5288 9.8897 15.5518 9.94956C15.5747 10.0094 15.6154 10.0608 15.6685 10.0969C15.7215 10.1329 15.7843 10.1518 15.8484 10.1511C17.5285 10.1334 21.1023 10.2027 22.5745 11.0486C22.6366 11.0837 22.685 11.1387 22.7118 11.2049C22.7386 11.271 22.7421 11.3442 22.7219 11.4126L22.4168 12.4752C22.3958 12.5487 22.3484 12.6119 22.2837 12.6527C22.219 12.6935 22.1415 12.709 22.0661 12.6962C20.7589 12.4855 15.0776 11.6071 11.8487 11.7987C11.7849 11.8033 11.7211 11.7883 11.6661 11.7557C11.611 11.723 11.5673 11.6744 11.5406 11.6162C11.514 11.558 11.5058 11.493 11.5172 11.43C11.5285 11.367 11.5588 11.309 11.6041 11.2637L20.2991 2.52156C20.3415 2.47877 20.3707 2.42473 20.3834 2.36583C20.396 2.30694 20.3915 2.24566 20.3705 2.18923C20.3494 2.13281 20.3126 2.0836 20.2644 2.04743C20.2162 2.01126 20.1587 1.98963 20.0987 1.98512C18.426 1.86575 14.2406 1.57984 13.9827 1.69037C13.7248 1.8009 14.0549 0.700024 14.2067 0.21664C14.2272 0.153541 14.2673 0.0985837 14.321 0.0596602C14.3748 0.0207367 14.4395 -0.000149729 14.5058 8.08053e-07Z" fill="#333333"/>
<path d="M8.44676 25.4482C9.62574 25.4482 15.0196 25.5028 17.1993 26.5123C17.2433 26.5331 17.2819 26.564 17.312 26.6024C17.342 26.6407 17.3627 26.6856 17.3725 26.7333C17.3822 26.7811 17.3806 26.8305 17.368 26.8775C17.3553 26.9246 17.3319 26.9681 17.2995 27.0045C16.2222 28.2218 12.0677 32.8759 9.57858 35.0496C9.53042 35.0919 9.49637 35.148 9.48101 35.2102C9.46565 35.2725 9.46972 35.3379 9.49267 35.3978C9.51562 35.4577 9.55635 35.5091 9.60939 35.5451C9.66242 35.5811 9.72522 35.6 9.78933 35.5993C11.4694 35.5816 15.0432 35.6509 16.5155 36.4968C16.5776 36.5319 16.6259 36.587 16.6527 36.6531C16.6795 36.7192 16.683 36.7924 16.6628 36.8608L16.3578 37.9234C16.3367 37.9969 16.2893 38.0601 16.2246 38.1009C16.1599 38.1417 16.0824 38.1572 16.007 38.1445C14.6998 37.9337 9.01857 37.0554 5.78961 37.247C5.72578 37.2516 5.66206 37.2365 5.607 37.2039C5.55195 37.1713 5.50817 37.1226 5.48156 37.0644C5.45494 37.0062 5.44675 36.9413 5.45809 36.8783C5.46942 36.8153 5.49974 36.7573 5.54497 36.712L14.24 27.9698C14.2824 27.927 14.3116 27.873 14.3243 27.8141C14.3369 27.7552 14.3325 27.6939 14.3114 27.6375C14.2903 27.581 14.2535 27.5318 14.2053 27.4957C14.1572 27.4595 14.0996 27.4379 14.0396 27.4334C12.3669 27.314 8.18148 27.0281 7.92358 27.1386C7.66568 27.2491 7.99579 26.1483 8.14759 25.6649C8.16815 25.6018 8.20818 25.5468 8.26194 25.5079C8.31569 25.469 8.38039 25.4481 8.44676 25.4482Z" fill="#333333"/>
<path d="M16.3236 47.2609C17.5026 47.2609 22.8964 47.3154 25.0761 48.3249C25.1201 48.3458 25.1587 48.3766 25.1888 48.415C25.2189 48.4533 25.2396 48.4982 25.2493 48.546C25.259 48.5937 25.2575 48.6431 25.2448 48.6902C25.2321 48.7372 25.2087 48.7807 25.1763 48.8171C24.099 50.0344 19.9446 54.6885 17.4554 56.8622C17.4073 56.9046 17.3732 56.9606 17.3578 57.0229C17.3425 57.0851 17.3465 57.1506 17.3695 57.2104C17.3925 57.2703 17.4332 57.3217 17.4862 57.3577C17.5393 57.3937 17.602 57.4127 17.6662 57.4119C19.3462 57.3943 22.92 57.4635 24.3923 58.3094C24.4544 58.3445 24.5028 58.3996 24.5295 58.4657C24.5563 58.5318 24.5599 58.6051 24.5397 58.6735L24.2346 59.736C24.2135 59.8096 24.1661 59.8728 24.1014 59.9135C24.0367 59.9543 23.9593 59.9698 23.8838 59.9571C22.5766 59.7463 16.8954 58.868 13.6664 59.0596C13.6026 59.0642 13.5389 59.0492 13.4838 59.0165C13.4288 58.9839 13.385 58.9352 13.3584 58.877C13.3318 58.8188 13.3236 58.7539 13.3349 58.6909C13.3463 58.6279 13.3766 58.5699 13.4218 58.5246L22.1168 49.7824C22.1592 49.7396 22.1885 49.6856 22.2011 49.6267C22.2138 49.5678 22.2093 49.5065 22.1882 49.4501C22.1671 49.3937 22.1303 49.3445 22.0822 49.3083C22.034 49.2721 21.9765 49.2505 21.9164 49.246C20.2437 49.1266 16.0583 48.8407 15.8004 48.9512C15.5425 49.0618 15.8726 47.9609 16.0244 47.4775C16.045 47.4144 16.085 47.3594 16.1388 47.3205C16.1925 47.2816 16.2572 47.2607 16.3236 47.2609Z" fill="#333333"/>
<path d="M8.44676 70.8914C9.62574 70.8914 15.0196 70.9459 17.1993 71.9554C17.2433 71.9763 17.2819 72.0071 17.312 72.0455C17.342 72.0838 17.3627 72.1287 17.3725 72.1764C17.3822 72.2242 17.3806 72.2736 17.368 72.3207C17.3553 72.3677 17.3319 72.4112 17.2995 72.4476C16.2222 73.6649 12.0677 78.319 9.57858 80.4927C9.53042 80.5351 9.49637 80.5911 9.48101 80.6534C9.46565 80.7156 9.46972 80.7811 9.49267 80.8409C9.51562 80.9008 9.55635 80.9522 9.60939 80.9882C9.66242 81.0242 9.72522 81.0432 9.78933 81.0424C11.4694 81.0248 15.0432 81.094 16.5155 81.9399C16.5776 81.975 16.6259 82.0301 16.6527 82.0962C16.6795 82.1623 16.683 82.2356 16.6628 82.304L16.3578 83.3665C16.3367 83.44 16.2893 83.5032 16.2246 83.544C16.1599 83.5848 16.0824 83.6003 16.007 83.5876C14.6998 83.3768 9.01857 82.4985 5.78961 82.6901C5.72578 82.6947 5.66206 82.6797 5.607 82.647C5.55195 82.6144 5.50817 82.5657 5.48156 82.5075C5.45494 82.4493 5.44675 82.3844 5.45809 82.3214C5.46942 82.2584 5.49974 82.2004 5.54497 82.1551L14.24 73.4129C14.2824 73.3701 14.3116 73.3161 14.3243 73.2572C14.3369 73.1983 14.3325 73.137 14.3114 73.0806C14.2903 73.0242 14.2535 72.975 14.2053 72.9388C14.1572 72.9026 14.0996 72.881 14.0396 72.8765C12.3669 72.7571 8.18148 72.4712 7.92358 72.5817C7.66568 72.6923 7.99579 71.5914 8.14759 71.108C8.16815 71.0449 8.20818 70.9899 8.26194 70.951C8.31569 70.9121 8.38039 70.8912 8.44676 70.8914Z" fill="#333333"/>
</svg>
