<svg width="22" height="22" viewBox="0 0 22 22" fill="none" xmlns="http://www.w3.org/2000/svg">
<path fill-rule="evenodd" clip-rule="evenodd" d="M19.0217 0.137007C17.7341 -0.208002 16.3664 0.109181 15.3649 0.968991L15.1405 1.17699L1.83991 14.4775C1.68836 14.6291 1.57898 14.8176 1.52259 15.0243L0.0447546 20.4431C-0.205974 21.3624 0.637593 22.206 1.55693 21.9552L6.97567 20.4774C7.18244 20.421 7.37091 20.3116 7.52246 20.1601L20.823 6.85954C21.8381 5.84445 22.2345 4.36492 21.863 2.97828C21.4914 1.59165 20.4084 0.508556 19.0217 0.137007ZM19.0814 5.11789L6.01207 18.1872L2.9881 19.0119L3.81282 15.9879L16.8821 2.91864C17.275 2.52578 17.8476 2.37235 18.3842 2.51615C18.9209 2.65994 19.3401 3.07912 19.4839 3.61577C19.6277 4.15243 19.4742 4.72503 19.0814 5.11789Z" fill="#C7CDD8"/>
</svg>
