<svg width="22" height="22" viewBox="0 0 22 22" fill="none" xmlns="http://www.w3.org/2000/svg">
<path d="M20.3704 12.4279V3.07819C20.3704 2.27817 19.7218 1.62963 18.9218 1.62963H3.07819C2.27817 1.62963 1.62962 2.27817 1.62962 3.07819V18.9218C1.62962 19.6171 2.11948 20.198 2.7729 20.3381L14.9506 8.16046C15.2688 7.84226 15.7847 7.84226 16.1029 8.16046L20.3704 12.4279ZM20.3704 14.7326L15.5267 9.88895L5.04532 20.3704H18.9218C19.7218 20.3704 20.3704 19.7218 20.3704 18.9218V14.7326ZM3.07819 0H18.9218C20.6219 0 22 1.37815 22 3.07819V18.9218C22 20.6218 20.6219 22 18.9218 22H3.07819C1.37815 22 0 20.6218 0 18.9218V3.07819C0 1.37815 1.37815 0 3.07819 0ZM7.03909 9.55144C5.65156 9.55144 4.52675 8.42663 4.52675 7.03909C4.52675 5.65156 5.65156 4.52675 7.03909 4.52675C8.42662 4.52675 9.55144 5.65156 9.55144 7.03909C9.55144 8.42663 8.42662 9.55144 7.03909 9.55144ZM7.03909 7.92181C7.5266 7.92181 7.92181 7.52661 7.92181 7.03909C7.92181 6.55158 7.5266 6.15638 7.03909 6.15638C6.55158 6.15638 6.15637 6.55158 6.15637 7.03909C6.15637 7.52661 6.55158 7.92181 7.03909 7.92181Z" fill="#C7CDD8"/>
</svg>
