<svg width="20" height="22" viewBox="0 0 20 22" fill="none" xmlns="http://www.w3.org/2000/svg">
<path d="M14.9277 7.00113C14.9277 4.23926 12.7002 2.00032 9.95238 2.00032C7.20461 2.00032 4.97711 4.23926 4.97711 7.00113C4.97711 10.2269 4.37805 12.7358 3.36303 14.6062C3.28789 14.7447 3.21232 14.8767 3.13663 15.0024H16.7681C16.6924 14.8767 16.6169 14.7447 16.5417 14.6062C15.5267 12.7358 14.9277 10.2269 14.9277 7.00113ZM16.9178 7.00113C16.9178 9.90135 17.4381 12.0807 18.2888 13.6483C18.5737 14.1732 18.8725 14.5837 19.1638 14.8928C19.3211 15.0597 19.4271 15.1485 19.4598 15.1704C20.279 15.7193 19.8924 17.0027 18.9079 17.0027H0.99689C0.0123753 17.0027 -0.374236 15.7193 0.444931 15.1704C0.47766 15.1485 0.583623 15.0597 0.740956 14.8928C1.03224 14.5837 1.33108 14.1732 1.61592 13.6483C2.46662 12.0807 2.987 9.90135 2.987 7.00113C2.987 3.13451 6.10551 0 9.95238 0C13.7993 0 16.9178 3.13451 16.9178 7.00113ZM10.8131 19.5014C11.0889 19.0236 11.6978 18.8609 12.1731 19.1381C12.6485 19.4152 12.8103 20.0273 12.5346 20.5051C12.0005 21.4304 11.0167 22 9.95238 22C8.88807 22 7.90426 21.4304 7.37021 20.5051C7.09446 20.0273 7.25629 19.4152 7.73165 19.1381C8.20702 18.8609 8.81591 19.0236 9.09166 19.5014C9.26967 19.8098 9.59761 19.9997 9.95238 19.9997C10.3072 19.9997 10.6351 19.8098 10.8131 19.5014Z" fill="#C7CDD8"/>
</svg>
