<svg width="22" height="22" viewBox="0 0 22 22" fill="none" xmlns="http://www.w3.org/2000/svg">
<path d="M16.0061 17.7346C14.3252 19.0459 12.2106 19.8272 9.91357 19.8272C4.43846 19.8272 0 15.3887 0 9.91358C0 4.43846 4.43846 0 9.91357 0C15.3887 0 19.8271 4.43846 19.8271 9.91358C19.8271 12.2106 19.0459 14.3252 17.7346 16.0061L21.642 19.9135C22.1193 20.3908 22.1193 21.1647 21.642 21.642C21.2081 22.0759 20.5291 22.1154 20.0506 21.7604L19.9135 21.642L16.0061 17.7346ZM15.2997 15.0883C16.5897 13.7459 17.3827 11.9224 17.3827 9.91358C17.3827 5.78849 14.0387 2.44444 9.91357 2.44444C5.78848 2.44444 2.44446 5.78849 2.44446 9.91358C2.44446 14.0387 5.78848 17.3827 9.91357 17.3827C11.9224 17.3827 13.7459 16.5897 15.0883 15.2997C15.1187 15.2608 15.1518 15.2234 15.1876 15.1876C15.2234 15.1518 15.2608 15.1187 15.2997 15.0883Z" fill="#C7CDD8"/>
</svg>
