<svg width="22" height="22" viewBox="0 0 22 22" fill="none" xmlns="http://www.w3.org/2000/svg">
<path d="M17.4412 2.78272L17.6119 2.61201H17.3705H13.0795C12.387 2.61201 11.8235 2.04844 11.8235 1.35601C11.8235 0.663568 12.387 0.1 13.0795 0.1H20.6441C21.3365 0.1 21.9001 0.663572 21.9001 1.35601V8.92058C21.9001 9.61302 21.3365 10.1766 20.6441 10.1766C19.9517 10.1766 19.3881 9.61302 19.3881 8.92058V4.62964V4.38821L19.2174 4.55893L12.0597 11.7167C11.8222 11.9542 11.5071 12.0847 11.1714 12.0847C10.8357 12.0847 10.5207 11.9541 10.2833 11.7165L10.2832 11.7164C10.0459 11.4794 9.91543 11.1644 9.91543 10.8286C9.91543 10.4928 10.0459 10.1778 10.2834 9.94044L10.2834 9.94042L17.4412 2.78272ZM15.5853 19.7754H15.6853V19.6754V9.74352L17.8099 7.61893V20.8377C17.8099 21.4244 17.3343 21.9 16.7476 21.9H1.16229C0.575625 21.9 0.1 21.4244 0.1 20.8377V5.25238C0.1 4.66571 0.575625 4.19009 1.16229 4.19009H14.3811L12.2565 6.31467H2.32458H2.22458V6.41467V19.6754V19.7754H2.32458H15.5853ZM10.2127 9.86971C9.95645 10.1258 9.81543 10.4663 9.81543 10.8286C9.81543 11.1909 9.95638 11.5313 10.2125 11.7872C10.4687 12.0436 10.8091 12.1847 11.1714 12.1847C11.5336 12.1847 11.8742 12.0437 12.1304 11.7874L10.2127 9.86971Z" fill="#C7CDD8" stroke="#FAFBFD" stroke-width="0.2"/>
</svg>
