<svg width="21" height="22" viewBox="0 0 21 22" fill="none" xmlns="http://www.w3.org/2000/svg">
<path d="M5.13434 4V3C5.13434 1.339 6.50931 0 8.19627 0H12.3037C13.9907 0 15.3657 1.339 15.3657 3V4H19.4918C20.0486 4 20.5 4.44772 20.5 5C20.5 5.55228 20.0486 6 19.4918 6H18.4463V19C18.4463 20.661 17.0713 22 15.3843 22H5.11566C3.42871 22 2.05373 20.661 2.05373 19V6H1.0082C0.451385 6 0 5.55228 0 5C0 4.44772 0.451385 4 1.0082 4H5.13434ZM7.15073 4H13.3493V3C13.3493 2.45186 12.8853 2 12.3037 2H8.19627C7.61473 2 7.15073 2.45186 7.15073 3V4ZM16.4299 6H4.07013V19C4.07013 19.5481 4.53413 20 5.11566 20H15.3843C15.9659 20 16.4299 19.5481 16.4299 19V6Z" fill="#C7CDD8"/>
</svg>
