<svg width="160" height="112" viewBox="0 0 160 112" fill="none" xmlns="http://www.w3.org/2000/svg">
<g clip-path="url(#clip0)">
<path d="M153.955 47.4813H5.92136C2.6054 47.4813 0 44.8704 0 41.5474V5.94371C0 2.6207 2.6054 0.00976562 5.92136 0.00976562H153.955C157.271 0.00976562 159.877 2.6207 159.877 5.94371V41.5474C159.877 44.8704 157.271 47.4813 153.955 47.4813Z" fill="black"/>
<path d="M154.273 0.00195312H74.6412L105.832 47.4861H154.273C157.359 47.4861 159.877 44.9723 159.877 41.8767V5.61375C159.878 2.5193 157.36 0.00195312 154.273 0.00195312Z" fill="url(#paint0_linear)"/>
<path d="M153.955 0.959196C156.679 0.959196 158.929 3.21409 158.929 5.94371V41.5474C158.929 44.277 156.679 46.5319 153.955 46.5319H5.92136C3.19754 46.5319 0.947418 44.277 0.947418 41.5474V5.94371C0.947418 3.21409 3.19754 0.959196 5.92136 0.959196H153.955ZM153.955 0.00976562H5.92136C2.6054 0.00976562 0 2.73938 0 5.94371V41.5474C0 44.8704 2.6054 47.4813 5.92136 47.4813H153.955C157.271 47.4813 159.877 44.8704 159.877 41.5474V5.94371C159.877 2.73938 157.271 0.00976562 153.955 0.00976562Z" fill="#C7CDD8"/>
<path d="M80.6489 25.8802C77.8067 25.8802 75.5566 28.0164 75.5566 30.9833C75.5566 33.8316 77.8067 36.0865 80.6489 36.0865C83.4912 36.0865 85.7413 33.9503 85.7413 30.9833C85.7413 27.8977 83.4912 25.8802 80.6489 25.8802ZM80.6489 33.9503C79.1094 33.9503 77.8067 32.6448 77.8067 30.8647C77.8067 29.0845 79.1094 27.779 80.6489 27.779C82.1885 27.779 83.4912 28.9658 83.4912 30.8647C83.4912 32.6448 82.1885 33.9503 80.6489 33.9503ZM69.6352 25.8802C66.7929 25.8802 64.5428 28.0164 64.5428 30.9833C64.5428 33.8316 66.7929 36.0865 69.6352 36.0865C72.4775 36.0865 74.7276 33.9503 74.7276 30.9833C74.7276 27.8977 72.4775 25.8802 69.6352 25.8802ZM69.6352 33.9503C68.0956 33.9503 66.793 32.6448 66.793 30.8647C66.793 29.0845 68.0956 27.779 69.6352 27.779C71.1748 27.779 72.4775 28.9658 72.4775 30.8647C72.4775 32.6448 71.1748 33.9503 69.6352 33.9503ZM56.4898 27.423V29.5592H61.5822C61.4637 30.746 60.99 31.6954 60.3979 32.2888C59.6873 33.0009 58.503 33.8316 56.4898 33.8316C53.2922 33.8316 50.9237 31.3394 50.9237 28.1351C50.9237 24.9307 53.4107 22.4385 56.4898 22.4385C58.1478 22.4385 59.4505 23.1505 60.3979 23.9813L61.9374 22.4385C60.6347 21.2517 58.9768 20.3022 56.6082 20.3022C52.3448 20.3022 48.6736 23.8626 48.6736 28.1351C48.6736 32.4075 52.3448 35.9679 56.6082 35.9679C58.9768 35.9679 60.6347 35.2558 62.0559 33.713C63.477 32.2888 63.9507 30.2713 63.9507 28.7284C63.9507 28.2537 63.9507 27.779 63.8323 27.423H56.4898ZM110.256 29.0845C109.782 27.8977 108.598 25.8802 105.992 25.8802C103.387 25.8802 101.255 27.8977 101.255 30.9833C101.255 33.8316 103.387 36.0865 106.229 36.0865C108.479 36.0865 109.9 34.6624 110.374 33.8316L108.716 32.6448C108.124 33.4756 107.413 34.069 106.229 34.069C105.045 34.069 104.334 33.5943 103.742 32.5262L110.493 29.6779L110.256 29.0845ZM103.387 30.746C103.387 28.8471 104.927 27.779 105.992 27.779C106.821 27.779 107.65 28.2537 107.887 28.8471L103.387 30.746ZM97.8209 35.6118H100.071V20.777H97.8209V35.6118ZM94.2681 26.9483C93.6759 26.3549 92.7285 25.7615 91.5442 25.7615C89.0573 25.7615 86.6887 28.0164 86.6887 30.8647C86.6887 33.713 88.9388 35.8492 91.5442 35.8492C92.7285 35.8492 93.6759 35.2558 94.1496 34.6624H94.2681V35.3745C94.2681 37.2733 93.2022 38.3414 91.5442 38.3414C90.2415 38.3414 89.2941 37.392 89.0573 36.5612L87.1624 37.392C87.7546 38.6975 89.1757 40.359 91.6627 40.359C94.2681 40.359 96.3998 38.8161 96.3998 35.1371V26.1175H94.2681V26.9483ZM91.6627 33.9503C90.1231 33.9503 88.8204 32.6448 88.8204 30.8647C88.8204 29.0845 90.1231 27.779 91.6627 27.779C93.2022 27.779 94.3865 29.0845 94.3865 30.8647C94.3865 32.6448 93.2022 33.9503 91.6627 33.9503ZM120.559 20.777H115.23V35.6118H117.48V30.0339H120.559C123.046 30.0339 125.414 28.2537 125.414 25.4054C125.414 22.5571 123.046 20.777 120.559 20.777ZM120.677 27.8977H117.48V22.7945H120.677C122.335 22.7945 123.283 24.2186 123.283 25.2868C123.164 26.5922 122.217 27.8977 120.677 27.8977ZM134.296 25.7615C132.638 25.7615 130.98 26.4735 130.388 28.0164L132.402 28.8471C132.875 28.0164 133.586 27.779 134.415 27.779C135.599 27.779 136.665 28.4911 136.783 29.6779V29.7966C136.428 29.5592 135.481 29.2032 134.533 29.2032C132.402 29.2032 130.27 30.3899 130.27 32.5262C130.27 34.5437 132.046 35.8492 133.941 35.8492C135.481 35.8492 136.191 35.1371 136.783 34.425H136.902V35.6118H139.034V29.9152C138.797 27.3043 136.783 25.7615 134.296 25.7615ZM134.06 33.9503C133.349 33.9503 132.283 33.5943 132.283 32.6448C132.283 31.4581 133.586 31.102 134.652 31.102C135.599 31.102 136.073 31.3394 136.665 31.5767C136.428 33.0009 135.244 33.9503 134.06 33.9503ZM146.494 26.1175L144.007 32.5262H143.889L141.284 26.1175H138.915L142.823 35.1371L140.573 40.1216H142.823L148.863 26.1175H146.494ZM126.599 35.6118H128.849V20.777H126.599V35.6118Z" fill="white"/>
<path d="M12.3164 8.90918C11.9611 9.26522 11.8427 9.85861 11.8427 10.5707V36.7987C11.8427 37.5108 12.0795 38.1042 12.4348 38.4602L12.5532 38.5789L27.2382 23.8627V23.6254L12.3164 8.90918Z" fill="url(#paint1_linear)"/>
<path d="M31.9754 28.8475L27.1199 23.9816V23.6256L31.9754 18.7598L32.0938 18.8784L37.8968 22.2015C39.5547 23.1509 39.5547 24.6937 37.8968 25.6431L31.9754 28.8475Z" fill="url(#paint2_linear)"/>
<path d="M32.0938 28.7287L27.1198 23.7441L12.3164 38.579C12.9085 39.1724 13.7375 39.1724 14.8034 38.6977L32.0938 28.7287Z" fill="url(#paint3_linear)"/>
<path d="M32.0938 18.7595L14.8034 8.90917C13.7375 8.31578 12.9085 8.43445 12.3164 9.02785L27.1198 23.744L32.0938 18.7595Z" fill="url(#paint4_linear)"/>
<path opacity="0.2" d="M31.9753 28.6099L14.8034 38.3415C13.856 38.9349 13.027 38.8162 12.4348 38.3415L12.3164 38.4602L12.4348 38.5789C13.027 39.0536 13.856 39.1723 14.8034 38.5789L31.9753 28.6099Z" fill="black"/>
<path opacity="0.12" d="M12.3164 38.3416C11.9611 37.9856 11.8427 37.3922 11.8427 36.6801V36.7988C11.8427 37.5109 12.0795 38.1043 12.4348 38.4603V38.3416H12.3164ZM37.8967 25.287L31.9753 28.61L32.0937 28.7287L37.8967 25.4056C38.7256 24.9309 39.0809 24.3375 39.0809 23.7441C39.0809 24.3375 38.6072 24.8122 37.8967 25.287Z" fill="black"/>
<path opacity="0.25" d="M14.8033 9.02811L37.8967 22.2015C38.6072 22.6762 39.0809 23.1509 39.0809 23.7443C39.0809 23.1509 38.7256 22.5575 37.8967 22.0828L14.8033 8.90943C13.1454 7.96 11.8427 8.67207 11.8427 10.5709V10.6896C11.8427 8.90943 13.1454 8.07868 14.8033 9.02811Z" fill="white"/>
<path d="M54.9472 15.9527H53.6236L52.8996 13.6717H50.3816L49.6908 15.9527H48.4028L50.8983 8.18574H52.4386L54.9472 15.9527ZM52.6816 12.7146L52.0263 10.6865C51.9576 10.4787 51.8308 9.99538 51.6353 9.22355H51.6116C51.531 9.55722 51.4161 10.0417 51.2431 10.6865L50.5997 12.7146H52.6816ZM61.1869 10.3528L59.0706 15.9527H57.8631L55.8156 10.3528H57.1499L58.1049 13.3142C58.266 13.8094 58.4035 14.282 58.5066 14.7308H58.5409C58.6335 14.3283 58.7708 13.8557 58.9426 13.3142L59.8858 10.3528H61.1869ZM65.6919 15.9527L65.5995 15.3078H65.565C65.1858 15.8267 64.6337 16.0797 63.9323 16.0797C62.9321 16.0797 62.2188 15.3767 62.2188 14.4315C62.2188 13.0493 63.4144 12.3345 65.4844 12.3345V12.2312C65.4844 11.4938 65.0934 11.1245 64.3232 11.1245C63.7709 11.1245 63.2876 11.2635 62.8634 11.5401L62.6109 10.722C63.1287 10.399 63.7722 10.2375 64.5317 10.2375C65.9915 10.2375 66.7285 11.0093 66.7285 12.5542V14.6168C66.7285 15.182 66.7522 15.6201 66.8091 15.9538L65.6919 15.9527ZM65.5189 13.1634C64.1386 13.1634 63.4489 13.4983 63.4489 14.2927C63.4489 14.8805 63.8055 15.1678 64.2996 15.1678C64.9323 15.1678 65.5189 14.6845 65.5189 14.0279V13.1634ZM69.4943 9.43017C69.0807 9.43017 68.7584 9.10719 68.7584 8.6809C68.7584 8.25461 69.0915 7.94351 69.518 7.94351C69.9434 7.94351 70.2882 8.25461 70.2764 8.6809C70.2764 9.13093 69.9553 9.43017 69.4943 9.43017ZM70.1389 15.9527H68.8971V10.3528H70.1389V15.9527ZM73.587 15.9527H72.3452V7.7832H73.587V15.9527ZM78.8646 15.9527L78.772 15.3078H78.7378C78.3586 15.8267 77.8064 16.0797 77.105 16.0797C76.1049 16.0797 75.3916 15.3767 75.3916 14.4315C75.3916 13.0493 76.5871 12.3345 78.6571 12.3345V12.2312C78.6571 11.4938 78.2661 11.1245 77.4959 11.1245C76.9437 11.1245 76.4603 11.2635 76.0361 11.5401L75.7826 10.7208C76.3004 10.3978 76.9438 10.2363 77.7033 10.2363C79.1632 10.2363 79.9001 11.0082 79.9001 12.553V14.6156C79.9001 15.1808 79.9251 15.6189 79.9796 15.9526H78.8646V15.9527ZM78.6916 13.1634C77.3111 13.1634 76.6215 13.4983 76.6215 14.2927C76.6215 14.8805 76.9781 15.1678 77.4722 15.1678C78.1049 15.1678 78.6916 14.6845 78.6916 14.0279V13.1634ZM84.9314 16.0798C84.1387 16.0798 83.5533 15.7449 83.1741 15.0883H83.1492L83.0781 15.9527H82.02C82.0543 15.5039 82.0662 14.9956 82.0662 14.4435V7.7832H83.3092V11.1721H83.3329C83.7013 10.5499 84.2975 10.2388 85.115 10.2388C86.461 10.2388 87.4042 11.3918 87.4042 13.0732C87.4042 14.8116 86.3568 16.0798 84.9314 16.0798ZM84.6789 11.2161C83.9644 11.2161 83.3104 11.8383 83.3104 12.7027V13.6823C83.3104 14.4542 83.8981 15.0883 84.6577 15.0883C85.5878 15.0883 86.1412 14.3283 86.1412 13.1183C86.1399 11.9891 85.564 11.2161 84.6789 11.2161ZM90.4814 15.9527H89.2409V7.7832H90.4814V15.9527ZM97.2415 13.452H93.5137C93.5386 14.5124 94.2376 15.1108 95.2732 15.1108C95.8254 15.1108 96.3313 15.0182 96.7792 14.846L96.9724 15.7105C96.4439 15.9408 95.823 16.056 95.099 16.056C93.3501 16.056 92.3157 14.9493 92.3157 13.2335C92.3157 11.5165 93.3751 10.2257 94.9592 10.2257C96.3848 10.2257 97.2828 11.2861 97.2828 12.888C97.2876 13.1064 97.2769 13.3024 97.2415 13.452ZM96.1027 12.565C96.1027 11.7005 95.6653 11.0902 94.8715 11.0902C94.1581 11.0902 93.5966 11.7124 93.5136 12.565H96.1027ZM104.768 16.0798C103.135 16.0798 102.077 14.8579 102.077 13.1991C102.077 11.4702 103.158 10.2376 104.862 10.2376C106.469 10.2376 107.552 11.4013 107.552 13.1076C107.553 14.8579 106.436 16.0798 104.768 16.0798ZM104.815 11.1472C103.918 11.1472 103.344 11.9879 103.344 13.1634C103.344 14.3164 103.93 15.1571 104.804 15.1571C105.677 15.1571 106.262 14.2583 106.262 13.1397C106.263 11.9998 105.689 11.1472 104.815 11.1472ZM114.228 15.9527H112.988V12.7372C112.988 11.7468 112.608 11.2505 111.861 11.2505C111.125 11.2505 110.618 11.8846 110.618 12.622V15.9527H109.377V11.9535C109.377 11.4583 109.364 10.9275 109.331 10.3516H110.424L110.482 11.2161H110.516C110.848 10.6176 111.528 10.2364 112.286 10.2364C113.458 10.2364 114.228 11.1353 114.228 12.5982V15.9527H114.228ZM122.353 11.2861H120.987V14.0053C120.987 14.6976 121.228 15.0431 121.71 15.0431C121.929 15.0431 122.114 15.0194 122.262 14.985L122.296 15.9302C122.055 16.0229 121.731 16.0691 121.332 16.0691C120.353 16.0691 119.769 15.5276 119.769 14.1098V11.2861H118.954V10.3528H119.769V9.32686L120.987 8.95757V10.3516H122.353V11.2861ZM128.93 15.9527H127.686V12.7609C127.686 11.7587 127.307 11.2517 126.56 11.2517C125.916 11.2517 125.319 11.6898 125.319 12.5769V15.9527H124.076V7.7832H125.319V11.1472H125.343C125.734 10.5369 126.298 10.2364 127.022 10.2364C128.206 10.2364 128.93 11.1579 128.93 12.622V15.9527ZM135.275 13.452H131.548C131.572 14.5124 132.271 15.1108 133.307 15.1108C133.86 15.1108 134.365 15.0182 134.813 14.846L135.007 15.7105C134.479 15.9408 133.857 16.056 133.133 16.056C131.384 16.056 130.349 14.9493 130.349 13.2335C130.349 11.5165 131.409 10.2257 132.993 10.2257C134.418 10.2257 135.316 11.2861 135.316 12.888C135.321 13.1064 135.309 13.3024 135.275 13.452ZM134.136 12.565C134.136 11.7005 133.7 11.0902 132.906 11.0902C132.192 11.0902 131.63 11.7124 131.548 12.565H134.136Z" fill="white"/>
</g>
<g clip-path="url(#clip1)">
<path d="M158.816 105.88C158.816 108.393 156.785 110.428 154.273 110.428H5.60347C3.09264 110.428 1.05469 108.393 1.05469 105.88V69.6124C1.05469 67.101 3.09274 65.0586 5.60347 65.0586H154.272C156.785 65.0586 158.815 67.101 158.815 69.6124L158.816 105.88Z" fill="white"/>
<path d="M154.273 111.487H5.60345C2.51438 111.487 0 108.973 0 105.881V69.6142C0 66.5198 2.51438 64.0024 5.60345 64.0024H154.272C157.358 64.0024 159.875 66.5198 159.875 69.6142V105.881C159.878 108.973 157.36 111.487 154.273 111.487Z" fill="#C7CDD8"/>
<path d="M158.816 105.88C158.816 108.393 156.785 110.428 154.273 110.428H5.60347C3.09264 110.428 1.05469 108.393 1.05469 105.88V69.6124C1.05469 67.101 3.09274 65.0586 5.60347 65.0586H154.272C156.785 65.0586 158.815 67.101 158.815 69.6124L158.816 105.88Z" fill="black"/>
<path d="M35.699 87.4941C35.6646 83.6671 38.8259 81.8052 38.9705 81.7185C37.1801 79.1026 34.4051 78.7452 33.4299 78.7167C31.0992 78.4709 28.8384 80.1143 27.6511 80.1143C26.4401 80.1143 24.6118 78.7404 22.6413 78.7808C20.1056 78.82 17.7335 80.2912 16.4324 82.5758C13.7475 87.2341 15.7499 94.0796 18.3224 97.845C19.6091 99.6902 21.1129 101.748 23.0809 101.676C25.0064 101.597 25.7256 100.447 28.0493 100.447C30.3514 100.447 31.0269 101.676 33.0341 101.629C35.1007 101.597 36.4016 99.7769 37.6435 97.9162C39.1306 95.8038 39.7277 93.721 39.7514 93.6142C39.704 93.5975 35.7392 92.08 35.699 87.4941ZM31.9072 76.2397C32.9427 74.9418 33.6514 73.1761 33.4547 71.3843C31.9557 71.4508 30.0813 72.4233 29.0017 73.6926C28.0467 74.8112 27.1936 76.6446 27.4139 78.3687C29.0978 78.4946 30.8266 77.5174 31.9072 76.2397Z" fill="white"/>
<path d="M154.273 64.002H74.6412L105.832 111.486H154.273C157.359 111.486 159.877 108.972 159.877 105.877V69.6137C159.878 66.5193 157.36 64.002 154.273 64.002Z" fill="url(#paint5_linear)"/>
<path d="M63.5882 101.411H60.8973L59.4233 96.7694H54.2996L52.8955 101.411H50.2758L55.3531 85.6087H58.4884L63.5882 101.411ZM58.979 94.822L57.646 90.6957C57.505 90.2741 57.2396 89.2814 56.8508 87.7188H56.8035C56.6471 88.3909 56.3971 89.3836 56.0547 90.6957L54.7442 94.822H58.979ZM76.62 95.5736C76.62 97.5115 76.0951 99.0433 75.044 100.168C74.1033 101.169 72.9337 101.669 71.539 101.669C70.033 101.669 68.95 101.131 68.2923 100.053V106.031H65.7661V93.7616C65.7661 92.5444 65.7342 91.2965 65.6726 90.0165H67.8943L68.0353 91.8225H68.0826C68.9251 90.4618 70.2036 89.7813 71.9194 89.7813C73.2607 89.7813 74.3804 90.312 75.2762 91.3748C76.1708 92.44 76.62 93.8388 76.62 95.5736ZM74.0463 95.6663C74.0463 94.5572 73.7974 93.6429 73.2974 92.9221C72.7512 92.1728 72.0177 91.7977 71.0982 91.7977C70.475 91.7977 69.9086 92.0066 69.4026 92.4186C68.8955 92.8342 68.5637 93.3769 68.4086 94.049C68.3304 94.3625 68.2913 94.6178 68.2913 94.8197V96.7207C68.2913 97.5483 68.5448 98.2478 69.052 98.8202C69.5591 99.3901 70.2179 99.6762 71.0284 99.6762C71.98 99.6762 72.7206 99.307 73.2501 98.5743C73.7809 97.8392 74.0463 96.8703 74.0463 95.6663ZM89.6978 95.5736C89.6978 97.5115 89.1729 99.0433 88.1219 100.168C87.1798 101.169 86.0115 101.669 84.6157 101.669C83.1097 101.669 82.0267 101.131 81.369 100.053V106.031H78.8428V93.7616C78.8428 92.5444 78.8108 91.2965 78.7492 90.0165H80.9709L81.1119 91.8225H81.1593C82.0006 90.4618 83.2791 89.7813 84.996 89.7813C86.3361 89.7813 87.4558 90.312 88.3541 91.3748C89.2476 92.44 89.6978 93.8388 89.6978 95.5736ZM87.123 95.6663C87.123 94.5572 86.8731 93.6429 86.3729 92.9221C85.8267 92.1728 85.0956 91.7977 84.1761 91.7977C83.5528 91.7977 82.9864 92.0066 82.4781 92.4186C81.971 92.8342 81.6405 93.3769 81.4852 94.049C81.4081 94.3625 81.3667 94.6178 81.3667 94.8197V96.7207C81.3667 97.5483 81.6214 98.2478 82.1262 98.8202C82.6333 99.3889 83.2922 99.6762 84.105 99.6762C85.0576 99.6762 85.7981 99.307 86.3267 98.5743C86.8576 97.8392 87.123 96.8703 87.123 95.6663ZM104.32 96.9784C104.32 98.3237 103.85 99.4173 102.918 100.262C101.892 101.183 100.459 101.645 98.6225 101.645C96.9258 101.645 95.5655 101.317 94.5393 100.661L95.1235 98.5505C96.2314 99.2084 97.4483 99.5361 98.773 99.5361C99.7257 99.5361 100.466 99.32 100.995 98.8913C101.524 98.4615 101.792 97.8867 101.792 97.1695C101.792 96.5272 101.571 95.9892 101.136 95.5512C100.699 95.1142 99.9757 94.7069 98.9603 94.3329C96.1994 93.301 94.8178 91.7918 94.8178 89.8064C94.8178 88.5097 95.306 87.4482 96.2801 86.6181C97.2541 85.7893 98.5456 85.375 100.152 85.375C101.587 85.375 102.783 85.6255 103.732 86.1255L103.098 88.1891C102.205 87.7046 101.196 87.4624 100.068 87.4624C99.1772 87.4624 98.478 87.6821 97.978 88.119C97.5573 88.5097 97.344 88.986 97.344 89.5511C97.344 90.1746 97.587 90.6923 98.0704 91.0984C98.4898 91.4723 99.2553 91.8797 100.362 92.3167C101.72 92.8653 102.717 93.5041 103.356 94.238C104 94.9716 104.32 95.8871 104.32 96.9784ZM112.693 91.9164H109.909V97.4486C109.909 98.8557 110.399 99.5575 111.383 99.5575C111.834 99.5575 112.209 99.5194 112.505 99.4399L112.575 101.362C112.077 101.549 111.422 101.643 110.61 101.643C109.613 101.643 108.833 101.337 108.27 100.727C107.71 100.117 107.428 99.0944 107.428 97.6552V91.9116H105.769V90.0117H107.428V87.9254L109.909 87.1749V90.0117H112.693V91.9164ZM125.232 95.6199C125.232 97.3713 124.732 98.8093 123.734 99.9339C122.69 101.092 121.302 101.669 119.571 101.669C117.9 101.669 116.572 101.114 115.581 100.006C114.59 98.896 114.095 97.4973 114.095 95.8099C114.095 94.0441 114.607 92.5979 115.627 91.4734C116.65 90.3478 118.027 89.785 119.758 89.785C121.426 89.785 122.766 90.3406 123.781 91.4497C124.75 92.5255 125.232 93.9148 125.232 95.6199ZM122.613 95.6781C122.613 94.6343 122.388 93.739 121.937 92.9897C121.407 92.0849 120.649 91.6326 119.667 91.6326C118.655 91.6326 117.879 92.0849 117.35 92.9897C116.897 93.739 116.672 94.6497 116.672 95.7255C116.672 96.7706 116.897 97.6682 117.35 98.4152C117.896 99.32 118.658 99.7724 119.645 99.7724C120.611 99.7724 121.368 99.3105 121.916 98.3926C122.38 97.6255 122.613 96.7243 122.613 95.6781ZM133.447 92.2429C133.197 92.1965 132.929 92.1727 132.651 92.1727C131.762 92.1727 131.075 92.5077 130.592 93.1821C130.172 93.7758 129.961 94.5262 129.961 95.4322V101.411H127.435V93.6049C127.435 92.2928 127.41 91.0958 127.362 90.0176H129.562L129.654 92.1977H129.724C129.992 91.4485 130.412 90.844 130.987 90.3916C131.55 89.9844 132.158 89.7813 132.813 89.7813C133.047 89.7813 133.258 89.7979 133.445 89.8277L133.447 92.2429ZM144.745 95.1747C144.745 95.6283 144.716 96.0105 144.653 96.3229H137.074C137.103 97.4486 137.47 98.3107 138.174 98.9044C138.812 99.4341 139.638 99.7 140.653 99.7C141.775 99.7 142.798 99.5218 143.719 99.162L144.115 100.918C143.039 101.388 141.769 101.622 140.303 101.622C138.54 101.622 137.156 101.102 136.149 100.064C135.144 99.0255 134.64 97.6291 134.64 95.88C134.64 94.1629 135.108 92.7321 136.046 91.591C137.027 90.3727 138.353 89.7634 140.021 89.7634C141.66 89.7634 142.9 90.3726 143.743 91.591C144.41 92.5564 144.745 93.7533 144.745 95.1747ZM142.336 94.518C142.354 93.7664 142.188 93.1192 141.846 92.5718C141.408 91.8665 140.736 91.515 139.834 91.515C139.008 91.515 138.335 91.8582 137.823 92.5469C137.402 93.0943 137.152 93.7521 137.075 94.5156L142.336 94.518Z" fill="white"/>
<path d="M57.7609 79.9527H56.4373L55.7133 77.6717H53.1954L52.5046 79.9527H51.2166L53.712 72.1857H55.2524L57.7609 79.9527ZM55.4953 76.7146L54.84 74.6865C54.7713 74.4787 54.6445 73.9954 54.449 73.2236H54.4253C54.3447 73.5572 54.2298 74.0417 54.0568 74.6865L53.4134 76.7146H55.4953ZM64.0006 74.3528L61.8843 79.9527H60.6768L58.6294 74.3528H59.9636L60.9186 77.3142C61.0798 77.8094 61.2172 78.282 61.3203 78.7309H61.3547C61.4472 78.3283 61.5845 77.8557 61.7563 77.3142L62.6995 74.3528H64.0006ZM68.5056 79.9527L68.4132 79.3078H68.3787C67.9995 79.8267 67.4474 80.0797 66.746 80.0797C65.7458 80.0797 65.0325 79.3767 65.0325 78.4315C65.0325 77.0494 66.2281 76.3345 68.2981 76.3345V76.2312C68.2981 75.4938 67.9071 75.1245 67.1369 75.1245C66.5847 75.1245 66.1013 75.2635 65.6771 75.5401L65.4246 74.722C65.9424 74.399 66.586 74.2375 67.3454 74.2375C68.8052 74.2375 69.5422 75.0093 69.5422 76.5542V78.6168C69.5422 79.182 69.5659 79.6201 69.6228 79.9538L68.5056 79.9527ZM68.3326 77.1634C66.9523 77.1634 66.2626 77.4983 66.2626 78.2927C66.2626 78.8805 66.6192 79.1678 67.1133 79.1678C67.746 79.1678 68.3326 78.6845 68.3326 78.0279V77.1634ZM72.308 73.4302C71.8945 73.4302 71.5722 73.1072 71.5722 72.6809C71.5722 72.2546 71.9052 71.9435 72.3317 71.9435C72.7571 71.9435 73.1019 72.2546 73.0901 72.6809C73.0901 73.1309 72.769 73.4302 72.308 73.4302ZM72.9526 79.9527H71.7108V74.3528H72.9526V79.9527ZM76.4007 79.9527H75.1589V71.7832H76.4007V79.9527ZM81.6783 79.9527L81.5858 79.3078H81.5515C81.1723 79.8267 80.6201 80.0797 79.9187 80.0797C78.9186 80.0797 78.2053 79.3767 78.2053 78.4315C78.2053 77.0494 79.4008 76.3345 81.4708 76.3345V76.2312C81.4708 75.4938 81.0798 75.1245 80.3096 75.1245C79.7574 75.1245 79.274 75.2635 78.8498 75.5401L78.5963 74.7208C79.1141 74.3978 79.7575 74.2363 80.5171 74.2363C81.9769 74.2363 82.7138 75.0082 82.7138 76.553V78.6156C82.7138 79.1808 82.7388 79.6189 82.7933 79.9526H81.6783V79.9527ZM81.5053 77.1634C80.1249 77.1634 79.4352 77.4983 79.4352 78.2927C79.4352 78.8805 79.7918 79.1678 80.2859 79.1678C80.9186 79.1678 81.5053 78.6845 81.5053 78.0279V77.1634ZM87.7451 80.0798C86.9524 80.0798 86.367 79.7449 85.9878 79.0883H85.9629L85.8918 79.9527H84.8337C84.8681 79.5039 84.8799 78.9956 84.8799 78.4435V71.7832H86.1229V75.1721H86.1466C86.515 74.5499 87.1112 74.2388 87.9287 74.2388C89.2747 74.2388 90.2179 75.3918 90.2179 77.0732C90.2179 78.8116 89.1705 80.0798 87.7451 80.0798ZM87.4926 75.2161C86.7781 75.2161 86.1242 75.8383 86.1242 76.7027V77.6824C86.1242 78.4542 86.7118 79.0883 87.4714 79.0883C88.4016 79.0883 88.9549 78.3283 88.9549 77.1183C88.9536 75.9891 88.3778 75.2161 87.4926 75.2161ZM93.2951 79.9527H92.0546V71.7832H93.2951V79.9527ZM100.055 77.452H96.3274C96.3523 78.5124 97.0513 79.1108 98.0869 79.1108C98.6391 79.1108 99.1451 79.0182 99.593 78.846L99.7861 79.7105C99.2576 79.9408 98.6367 80.056 97.9128 80.056C96.1638 80.056 95.1294 78.9493 95.1294 77.2335C95.1294 75.5165 96.1888 74.2257 97.7729 74.2257C99.1985 74.2257 100.097 75.2861 100.097 76.888C100.101 77.1064 100.091 77.3024 100.055 77.452ZM98.9164 76.565C98.9164 75.7005 98.479 75.0902 97.6852 75.0902C96.9718 75.0902 96.4103 75.7124 96.3273 76.565H98.9164ZM107.582 80.0798C105.949 80.0798 104.891 78.8579 104.891 77.1991C104.891 75.4702 105.971 74.2376 107.675 74.2376C109.283 74.2376 110.366 75.4013 110.366 77.1076C110.366 78.8579 109.25 80.0798 107.582 80.0798ZM107.629 75.1472C106.732 75.1472 106.157 75.9879 106.157 77.1634C106.157 78.3164 106.744 79.1571 107.617 79.1571C108.491 79.1571 109.076 78.2583 109.076 77.1397C109.077 75.9998 108.502 75.1472 107.629 75.1472ZM117.042 79.9527H115.801V76.7372C115.801 75.7468 115.422 75.2505 114.675 75.2505C113.939 75.2505 113.432 75.8846 113.432 76.622V79.9527H112.191V75.9535C112.191 75.4583 112.178 74.9275 112.145 74.3516H113.237L113.295 75.2161H113.33C113.661 74.6176 114.342 74.2364 115.1 74.2364C116.272 74.2364 117.042 75.1353 117.042 76.5982V79.9527H117.042ZM125.167 75.2861H123.801V78.0053C123.801 78.6976 124.041 79.0431 124.524 79.0431C124.743 79.0431 124.928 79.0194 125.076 78.985L125.11 79.9302C124.868 80.0229 124.545 80.0691 124.146 80.0691C123.167 80.0691 122.583 79.5276 122.583 78.1098V75.2861H121.767V74.3528H122.583V73.3269L123.801 72.9576V74.3516H125.167V75.2861ZM131.743 79.9527H130.5V76.7609C130.5 75.7587 130.121 75.2517 129.373 75.2517C128.73 75.2517 128.133 75.6898 128.133 76.5769V79.9527H126.89V71.7832H128.133V75.1472H128.157C128.548 74.5369 129.112 74.2364 129.836 74.2364C131.019 74.2364 131.743 75.1579 131.743 76.622V79.9527ZM138.088 77.452H134.362C134.386 78.5124 135.085 79.1108 136.12 79.1108C136.674 79.1108 137.178 79.0182 137.626 78.846L137.821 79.7105C137.292 79.9408 136.67 80.056 135.946 80.056C134.197 80.056 133.163 78.9493 133.163 77.2335C133.163 75.5165 134.222 74.2257 135.806 74.2257C137.232 74.2257 138.13 75.2861 138.13 76.888C138.135 77.1064 138.123 77.3024 138.088 77.452ZM136.95 76.565C136.95 75.7005 136.514 75.0902 135.72 75.0902C135.005 75.0902 134.444 75.7124 134.362 76.565H136.95Z" fill="white"/>
</g>
<defs>
<linearGradient id="paint0_linear" x1="117.26" y1="47.6151" x2="117.26" y2="4.81302" gradientUnits="userSpaceOnUse">
<stop stop-color="#1A1A1A" stop-opacity="0.1"/>
<stop offset="0.123" stop-color="#212121" stop-opacity="0.151"/>
<stop offset="0.308" stop-color="#353535" stop-opacity="0.227"/>
<stop offset="0.532" stop-color="#575757" stop-opacity="0.318"/>
<stop offset="0.783" stop-color="#858585" stop-opacity="0.421"/>
<stop offset="1" stop-color="#B3B3B3" stop-opacity="0.51"/>
</linearGradient>
<linearGradient id="paint1_linear" x1="25.8171" y1="10.3452" x2="5.89923" y2="30.2196" gradientUnits="userSpaceOnUse">
<stop stop-color="#00A0FF"/>
<stop offset="0.007" stop-color="#00A1FF"/>
<stop offset="0.26" stop-color="#00BEFF"/>
<stop offset="0.512" stop-color="#00D2FF"/>
<stop offset="0.76" stop-color="#00DFFF"/>
<stop offset="1" stop-color="#00E3FF"/>
</linearGradient>
<linearGradient id="paint2_linear" x1="40.0687" y1="23.7455" x2="11.4129" y2="23.7455" gradientUnits="userSpaceOnUse">
<stop stop-color="#FFE000"/>
<stop offset="0.409" stop-color="#FFBD00"/>
<stop offset="0.775" stop-color="#FFA500"/>
<stop offset="1" stop-color="#FF9C00"/>
</linearGradient>
<linearGradient id="paint3_linear" x1="29.4019" y1="26.469" x2="2.39302" y2="53.4206" gradientUnits="userSpaceOnUse">
<stop stop-color="#FF3A44"/>
<stop offset="1" stop-color="#C31162"/>
</linearGradient>
<linearGradient id="paint4_linear" x1="8.64161" y1="0.217132" x2="20.7029" y2="12.2529" gradientUnits="userSpaceOnUse">
<stop stop-color="#32A071"/>
<stop offset="0.069" stop-color="#2DA771"/>
<stop offset="0.476" stop-color="#15CF74"/>
<stop offset="0.801" stop-color="#06E775"/>
<stop offset="1" stop-color="#00F076"/>
</linearGradient>
<linearGradient id="paint5_linear" x1="117.26" y1="111.615" x2="117.26" y2="68.813" gradientUnits="userSpaceOnUse">
<stop stop-color="#1A1A1A" stop-opacity="0.1"/>
<stop offset="0.123" stop-color="#212121" stop-opacity="0.151"/>
<stop offset="0.308" stop-color="#353535" stop-opacity="0.227"/>
<stop offset="0.532" stop-color="#575757" stop-opacity="0.318"/>
<stop offset="0.783" stop-color="#858585" stop-opacity="0.421"/>
<stop offset="1" stop-color="#B3B3B3" stop-opacity="0.51"/>
</linearGradient>
<clipPath id="clip0">
<rect width="159.877" height="47.4882" fill="white"/>
</clipPath>
<clipPath id="clip1">
<rect width="159.877" height="47.4882" fill="white" transform="translate(0 64)"/>
</clipPath>
</defs>
</svg>
