<svg width="137" height="51" viewBox="0 0 137 51" fill="none" xmlns="http://www.w3.org/2000/svg">
<path d="M81.6953 35.9903C89.964 44.8017 99.9867 40.9567 99.9867 40.9567C99.9867 43.9917 98.9844 47.5786 98.2327 50.0618C109.007 46.7509 118.529 39.8531 120.283 25.2298C121.937 11.4342 110.687 0.397766 98.2327 0.397766C88.4139 0.397766 79.4402 6.1919 76.9346 16.4006C75.2011 23.4632 77.088 31.0806 81.6953 35.9903Z" fill="#2889FC"/>
<path d="M97.5584 35.9903C105.975 44.8017 116.176 40.9567 116.176 40.9567C116.176 43.9917 115.156 47.5786 114.391 50.0618C125.358 46.7509 135.049 39.8531 136.835 25.2298C138.519 11.4342 127.068 0.397766 114.391 0.397766C104.397 0.397766 95.2631 6.1919 92.7127 16.4006C90.9482 23.4632 92.8688 31.0806 97.5584 35.9903Z" fill="#B52B8F"/>
<path d="M8.84123 26.4732L0 0H5.30474L11.5694 19.7538L17.733 0H23.0882L14.2975 26.4732V40.9223H8.84123V26.4732Z" fill="#2889FC"/>
<path d="M28.6048 41.3264C25.5062 41.3264 23.3 40.417 21.9865 38.5983C20.7066 36.7458 20.0667 34.0682 20.0667 30.5654V22.0778C20.0667 18.575 20.7066 15.9142 21.9865 14.0954C23.3 12.243 25.5062 11.3168 28.6048 11.3168C31.6698 11.3168 33.8422 12.243 35.122 14.0954C36.4356 15.9142 37.0924 18.575 37.0924 22.0778V30.5654C37.0924 34.0682 36.4356 36.7458 35.122 38.5983C33.8422 40.417 31.6698 41.3264 28.6048 41.3264ZM28.6048 37.3352C29.5815 37.3352 30.2888 37.049 30.7267 36.4764C31.1645 35.9038 31.434 35.1965 31.535 34.3545C31.6361 33.5125 31.6866 32.3673 31.6866 30.919V21.7747C31.6866 20.3264 31.6361 19.1813 31.535 18.3392C31.434 17.4635 31.1645 16.7394 30.7267 16.1668C30.2888 15.5942 29.5815 15.308 28.6048 15.308C27.6281 15.308 26.9039 15.5942 26.4324 16.1668C25.9945 16.7394 25.7251 17.4635 25.624 18.3392C25.523 19.1813 25.4725 20.3264 25.4725 21.7747V30.919C25.4725 32.3673 25.523 33.5125 25.624 34.3545C25.7251 35.1965 25.9945 35.9038 26.4324 36.4764C26.9039 37.049 27.6281 37.3352 28.6048 37.3352Z" fill="#2889FC"/>
<path d="M44.7124 41.3264C43.1294 41.3264 42.0011 40.7539 41.3275 39.6087C40.6539 38.4636 40.3171 37.049 40.3171 35.3649V11.7209H45.7228V33.7482C45.7228 34.8597 45.8912 35.7017 46.228 36.2743C46.5649 36.8132 47.1711 37.0826 48.0468 37.0826C49.1246 37.0826 50.3876 36.4764 51.8359 35.2639V11.7209H57.2417V40.9223H51.8359V38.0425C49.5119 40.2318 47.1374 41.3264 44.7124 41.3264Z" fill="#2889FC"/>
<path d="M67.4375 4.24379H60.0109V0H80.371V4.24379H73.1464V40.9223H67.4375V4.24379Z" fill="#2889FC"/>
</svg>
